<?xml version="1.0" encoding="UTF-8" standalone="no"?>
<!-- Created with Inkscape (http://www.inkscape.org/) -->

<svg
   width="60.959999mm"
   height="128.5mm"
   viewBox="0 0 60.960004 128.50002"
   version="1.1"
   id="svg8"
   inkscape:version="1.2.2 (b0a8486, 2022-12-01)"
   sodipodi:docname="Dot.svg"
   xmlns:inkscape="http://www.inkscape.org/namespaces/inkscape"
   xmlns:sodipodi="http://sodipodi.sourceforge.net/DTD/sodipodi-0.dtd"
   xmlns="http://www.w3.org/2000/svg"
   xmlns:svg="http://www.w3.org/2000/svg"
   xmlns:rdf="http://www.w3.org/1999/02/22-rdf-syntax-ns#"
   xmlns:cc="http://creativecommons.org/ns#"
   xmlns:dc="http://purl.org/dc/elements/1.1/">
  <defs
     id="defs2">
    <rect
       x="55.814789"
       y="23.362507"
       width="30.355562"
       height="17.501892"
       id="rect4374" />
    <rect
       x="12.71181"
       y="77.259315"
       width="1.5995342"
       height="21.848299"
       id="rect22244" />
    <rect
       x="0"
       y="97.435753"
       width="153.60001"
       height="25.261122"
       id="rect13402" />
    <rect
       x="0"
       y="485.66928"
       width="38.399998"
       height="290.79779"
       id="rect13372" />
    <rect
       x="241.42645"
       y="129.29953"
       width="129.29953"
       height="44.797848"
       id="rect2594" />
    <rect
       x="39.223248"
       y="127.27922"
       width="52.950508"
       height="12.121831"
       id="rect2108" />
    <rect
       x="241.42645"
       y="129.29953"
       width="129.29953"
       height="44.797848"
       id="rect2594-2" />
    <rect
       x="0"
       y="97.435753"
       width="153.60001"
       height="25.261122"
       id="rect13402-9" />
    <rect
       x="55.814789"
       y="23.362507"
       width="30.355562"
       height="17.501892"
       id="rect4374-3" />
    <rect
       x="55.814789"
       y="23.362507"
       width="30.355562"
       height="17.501892"
       id="rect4374-3-7" />
    <rect
       x="55.814789"
       y="23.362507"
       width="30.355562"
       height="17.501892"
       id="rect4374-9" />
    <rect
       x="55.814789"
       y="23.362507"
       width="30.355562"
       height="17.501892"
       id="rect4374-9-9" />
  </defs>
  <sodipodi:namedview
     id="base"
     pagecolor="#ffffff"
     bordercolor="#666666"
     borderopacity="1.0"
     inkscape:pageopacity="0.0"
     inkscape:pageshadow="2"
     inkscape:zoom="1.7294059"
     inkscape:cx="126.34397"
     inkscape:cy="252.97705"
     inkscape:document-units="mm"
     inkscape:current-layer="layer2"
     showgrid="false"
     units="mm"
     inkscape:snap-bbox="true"
     inkscape:snap-page="true"
     inkscape:bbox-nodes="false"
     inkscape:snap-bbox-edge-midpoints="false"
     inkscape:window-width="1600"
     inkscape:window-height="1061"
     inkscape:window-x="-83"
     inkscape:window-y="781"
     inkscape:window-maximized="0"
     inkscape:snap-bbox-midpoints="true"
     inkscape:snap-nodes="false"
     inkscape:showpageshadow="2"
     inkscape:pagecheckerboard="0"
     inkscape:deskcolor="#d1d1d1" />
  <metadata
     id="metadata5">
    <rdf:RDF>
      <cc:Work
         rdf:about="">
        <dc:format>image/svg+xml</dc:format>
        <dc:type
           rdf:resource="http://purl.org/dc/dcmitype/StillImage" />
      </cc:Work>
    </rdf:RDF>
  </metadata>
  <g
     inkscape:label="Layer 1"
     inkscape:groupmode="layer"
     id="layer1"
     transform="translate(0,-168.49998)">
    <rect
       style="display:inline;opacity:1;vector-effect:none;fill:#d100d1;fill-opacity:1;fill-rule:evenodd;stroke:none;stroke-width:0.91833;stroke-linecap:butt;stroke-linejoin:miter;stroke-miterlimit:4;stroke-dasharray:none;stroke-dashoffset:0;stroke-opacity:1;paint-order:normal"
       id="rect420"
       width="60.959999"
       height="128.5"
       x="-2.7815501e-08"
       y="168.49998" />
    <text
       xml:space="preserve"
       transform="matrix(0.26458333,0,0,0.26458333,0,168.49998)"
       id="text22242"
       style="font-style:normal;font-variant:normal;font-weight:normal;font-stretch:normal;font-size:15.1505px;font-family:Silom;-inkscape-font-specification:'Silom, Normal';font-variant-ligatures:normal;font-variant-caps:normal;font-variant-numeric:normal;font-variant-east-asian:normal;white-space:pre;shape-inside:url(#rect22244);display:inline;fill:#00e8ff;fill-opacity:1;stroke:none;stroke-width:0.755906;stroke-linecap:round;stroke-linejoin:bevel" />
    <path
       style="fill:none;fill-opacity:1;stroke:#ffffff;stroke-width:0.3;stroke-linecap:round;stroke-linejoin:bevel;stroke-dasharray:0.075, 0.6;stroke-dashoffset:0;stroke-opacity:1"
       d="m 12.36783,168.49998 v 128.5 z"
       id="path1321" />
    <g
       aria-label="c"
       id="text542-5-8-2"
       style="font-size:3.175px;font-family:Courier;-inkscape-font-specification:'Courier, Normal';fill:#ffffff;stroke-width:0.2;stroke-linecap:round;stroke-linejoin:bevel"
       transform="translate(-29.633346)">
      <path
         d="m 46.835686,185.96093 0.0016,-0.006 q 0.01085,-0.0512 0.04496,-0.0744 0.03566,-0.0248 0.09767,-0.0248 0.06356,0 0.07906,0.0372 0.0155,0.0372 -0.0093,0.15348 l -0.06046,0.28835 q -0.0124,0.0574 -0.04806,0.0868 -0.03566,0.0279 -0.09457,0.0279 -0.04186,0 -0.06666,-0.0233 -0.02481,-0.0248 -0.05271,-0.10077 -0.04806,-0.12557 -0.141077,-0.18914 -0.09147,-0.0651 -0.229443,-0.0651 -0.241846,0 -0.42323,0.14263 -0.181384,0.14263 -0.229443,0.36897 -0.04961,0.23099 0.06356,0.37827 0.114721,0.14573 0.342614,0.14573 0.10387,0 0.203089,-0.0279 0.100769,-0.0294 0.196887,-0.0868 0.03256,-0.0186 0.09147,-0.0574 0.117822,-0.0822 0.175183,-0.0822 0.04806,0 0.07131,0.031 0.0248,0.0294 0.01395,0.0775 -0.02635,0.12247 -0.285253,0.25115 -0.258899,0.12712 -0.519349,0.12712 -0.336413,0 -0.514697,-0.21549 -0.178284,-0.21549 -0.110071,-0.53795 0.06976,-0.32246 0.337964,-0.53795 0.269751,-0.21704 0.604614,-0.21704 0.117823,0 0.229444,0.0325 0.111621,0.031 0.230993,0.0977 z"
         style="font-style:italic"
         id="path4036" />
    </g>
    <g
       aria-label="a"
       id="text542-5-8-4"
       style="font-size:3.175px;font-family:Courier;-inkscape-font-specification:'Courier, Normal';fill:#ffffff;stroke-width:0.2;stroke-linecap:round;stroke-linejoin:bevel"
       transform="translate(-0.93714498,0.09548567)">
      <path
         d="m 17.928378,176.01379 q -0.07906,-0.0279 -0.15658,-0.0403 -0.07596,-0.0139 -0.155029,-0.0139 -0.238745,0 -0.393775,0.0806 -0.155029,0.0806 -0.184485,0.21704 -0.0217,0.10542 0.04961,0.17363 0.07131,0.0682 0.204638,0.0682 0.196888,0 0.386023,-0.10232 0.190686,-0.10387 0.213941,-0.21549 z m -0.09147,0.48834 q -0.150378,0.11472 -0.313159,0.17519 -0.162781,0.0605 -0.320911,0.0605 -0.230993,0 -0.345715,-0.12868 -0.114722,-0.12867 -0.06976,-0.33486 0.05116,-0.24495 0.268201,-0.37982 0.217041,-0.13488 0.558105,-0.13488 0.08992,0 0.178284,0.0124 0.08992,0.0109 0.181384,0.0357 l 0.0016,-0.0109 q 0.03876,-0.17828 -0.02946,-0.26355 -0.06666,-0.0853 -0.246497,-0.0853 -0.120923,0 -0.283703,0.0651 -0.162781,0.0651 -0.21084,0.0651 -0.04496,0 -0.06666,-0.0357 -0.0217,-0.0372 -0.0093,-0.0946 0.02015,-0.0915 0.204639,-0.15503 0.184485,-0.0636 0.451135,-0.0636 0.272852,0 0.382923,0.13953 0.11007,0.13798 0.05271,0.40928 l -0.150379,0.70228 h 0.07597 q 0.11007,0 0.142626,0.0232 0.03256,0.0233 0.02015,0.0837 -0.0124,0.0558 -0.04961,0.0837 -0.03566,0.0279 -0.09767,0.0279 h -0.243396 q -0.04341,0 -0.06666,-0.0263 -0.0217,-0.0264 -0.02015,-0.076 z"
         style="font-style:italic"
         id="path4046" />
    </g>
    <g
       aria-label="chain"
       id="text542-5-8-9"
       style="font-size:3.175px;font-family:Courier;-inkscape-font-specification:'Courier, Normal';fill:#ffffff;stroke-width:0.2;stroke-linecap:round;stroke-linejoin:bevel">
      <path
         d="m 3.0956981,282.20876 0.00155,-0.006 q 0.010852,-0.0512 0.044959,-0.0744 0.035657,-0.0248 0.097668,-0.0248 0.063562,0 0.079065,0.0372 0.015503,0.0372 -0.0093,0.15348 l -0.060462,0.28836 q -0.012402,0.0574 -0.048059,0.0868 -0.035657,0.0279 -0.094568,0.0279 -0.041858,0 -0.066663,-0.0233 -0.024805,-0.0248 -0.05271,-0.10077 -0.048059,-0.12557 -0.1410766,-0.18913 -0.091467,-0.0651 -0.2294434,-0.0651 -0.2418457,0 -0.42323,0.14262 -0.1813842,0.14263 -0.2294433,0.36897 -0.049609,0.231 0.063562,0.37827 0.1147217,0.14573 0.3426147,0.14573 0.1038697,0 0.2030884,-0.0279 0.1007691,-0.0295 0.1968872,-0.0868 0.032556,-0.0186 0.091467,-0.0574 0.1178223,-0.0822 0.1751831,-0.0822 0.048059,0 0.071314,0.031 0.024805,0.0294 0.013953,0.0775 -0.026355,0.12248 -0.2852539,0.25115 -0.2588989,0.12713 -0.5193481,0.12713 -0.3364136,0 -0.5146973,-0.2155 -0.1782837,-0.21549 -0.1100708,-0.53795 0.069763,-0.32246 0.3379639,-0.53795 0.269751,-0.21704 0.6046142,-0.21704 0.1178223,0 0.2294434,0.0326 0.1116211,0.031 0.2309936,0.0977 z"
         style="font-style:italic"
         id="path4070" />
      <path
         d="m 3.7127147,283.32963 0.3379639,-1.5875 H 4.021223 q -0.1054199,0 -0.1395263,-0.0248 -0.034107,-0.0248 -0.021704,-0.0868 0.012402,-0.0558 0.049609,-0.0837 0.038757,-0.0279 0.099219,-0.0279 h 0.2356445 q 0.041858,0 0.060461,0.0171 0.020154,0.0171 0.013953,0.0465 l -0.1488281,0.70228 q 0.1348754,-0.10542 0.2557983,-0.15503 0.1224731,-0.0512 0.2418457,-0.0512 0.2340942,0 0.3364136,0.14573 0.1038696,0.14573 0.049609,0.40307 l -0.1503784,0.70229 h 0.072864 q 0.077515,0 0.1054199,0.0263 0.029456,0.0248 0.018604,0.0806 -0.012402,0.0558 -0.049609,0.0837 -0.035657,0.0279 -0.097668,0.0279 h -0.412379 q -0.072864,0 -0.094568,-0.0233 -0.020154,-0.0248 -0.0062,-0.0884 0.012402,-0.062 0.048059,-0.0837 0.037207,-0.0233 0.1255737,-0.0233 h 0.05426 l 0.1379761,-0.64493 q 0.038757,-0.18138 -0.023254,-0.27595 -0.062012,-0.0961 -0.2185913,-0.0961 -0.1596802,0 -0.3023072,0.10697 -0.1426269,0.10697 -0.1767334,0.2651 l -0.137976,0.64493 h 0.05426 q 0.093018,0 0.1209229,0.0233 0.027905,0.0233 0.015503,0.0837 -0.013953,0.0636 -0.044959,0.0884 -0.029456,0.0233 -0.1023193,0.0233 H 3.5778393 q -0.060461,0 -0.085266,-0.0279 -0.024805,-0.0279 -0.012402,-0.0837 0.012402,-0.062 0.05271,-0.0837 0.041858,-0.0233 0.1472778,-0.0233 z"
         style="font-style:italic"
         id="path4072" />
      <path
         d="m 6.6443187,282.86299 q -0.079065,-0.0279 -0.1565796,-0.0403 -0.075964,-0.0139 -0.1550293,-0.0139 -0.2387451,0 -0.3937744,0.0806 -0.1550293,0.0806 -0.1844848,0.21704 -0.021704,0.10542 0.049609,0.17364 0.071313,0.0682 0.2046387,0.0682 0.1968872,0 0.3860229,-0.10232 0.1906861,-0.10387 0.2139405,-0.21549 z m -0.091467,0.48834 q -0.1503784,0.11472 -0.3131592,0.17518 -0.1627807,0.0605 -0.3209106,0.0605 -0.2309936,0 -0.3457153,-0.12868 -0.1147217,-0.12867 -0.069763,-0.33486 0.05116,-0.24495 0.2682007,-0.37982 0.217041,-0.13488 0.5581054,-0.13488 0.089917,0 0.1782837,0.0124 0.089917,0.0108 0.1813843,0.0357 l 0.00155,-0.0108 q 0.038757,-0.17829 -0.029456,-0.26355 -0.066663,-0.0853 -0.2464966,-0.0853 -0.1209228,0 -0.2837036,0.0651 -0.1627807,0.0651 -0.2108398,0.0651 -0.044958,0 -0.066663,-0.0357 -0.021704,-0.0372 -0.0093,-0.0946 0.020154,-0.0915 0.2046387,-0.15503 0.1844849,-0.0636 0.4511353,-0.0636 0.2728515,0 0.3829223,0.13953 0.1100708,0.13797 0.05271,0.40927 l -0.1503784,0.70229 h 0.075964 q 0.1100708,0 0.142627,0.0233 0.032556,0.0233 0.020154,0.0837 -0.012402,0.0558 -0.049609,0.0837 -0.035657,0.0279 -0.097669,0.0279 H 6.6334667 q -0.043408,0 -0.066663,-0.0264 -0.021704,-0.0263 -0.020154,-0.076 z"
         style="font-style:italic"
         id="path4074" />
      <path
         d="m 8.3170847,281.66926 q 0.035657,-0.16743 0.074414,-0.21084 0.040308,-0.0434 0.1395264,-0.0434 0.096118,0 0.1193726,0.0372 0.023254,0.0357 -0.0062,0.17208 -0.027905,0.13333 -0.063562,0.16589 -0.035657,0.031 -0.1364258,0.031 -0.099219,0 -0.1240234,-0.0294 -0.023254,-0.0295 -0.0031,-0.12248 z m -0.066663,1.66037 h 0.497644 q 0.060461,0 0.083716,0.0263 0.023254,0.0248 0.012402,0.0806 -0.013953,0.0636 -0.046509,0.0884 -0.031006,0.0233 -0.1038696,0.0233 H 7.4907785 q -0.062012,0 -0.088367,-0.0279 -0.024805,-0.0279 -0.012402,-0.0837 0.010852,-0.0543 0.048059,-0.0806 0.038757,-0.0263 0.1038696,-0.0263 h 0.4728394 l 0.2123901,-0.99374 h -0.302307 q -0.063562,0 -0.091467,-0.0279 -0.026355,-0.0294 -0.015503,-0.0837 0.010852,-0.0543 0.048059,-0.0806 0.037207,-0.0279 0.099219,-0.0279 H 8.419404 q 0.041858,0 0.062012,0.017 0.020154,0.0171 0.013953,0.0465 z"
         style="font-style:italic"
         id="path4076" />
      <path
         d="m 9.434846,283.32963 0.2123901,-0.99374 h -0.029456 q -0.1054199,0 -0.1395264,-0.0248 -0.034106,-0.0248 -0.021704,-0.0868 0.012402,-0.0574 0.049609,-0.0822 0.038757,-0.0264 0.1116211,-0.0264 h 0.072864 0.1488282 q 0.041858,0 0.060461,0.017 0.020154,0.0171 0.013953,0.0465 l -0.021704,0.10542 q 0.134876,-0.10542 0.255799,-0.15503 0.122473,-0.0512 0.241845,-0.0512 0.234095,0 0.336414,0.14573 0.10387,0.14573 0.04961,0.40307 l -0.150378,0.70229 h 0.07286 q 0.07751,0 0.10542,0.0263 0.02945,0.0248 0.0186,0.0806 -0.0124,0.0605 -0.05426,0.0868 -0.04186,0.0248 -0.134876,0.0248 h -0.342614 q -0.09922,0 -0.122473,-0.0233 -0.02325,-0.0233 -0.0093,-0.0884 0.0124,-0.0605 0.04961,-0.0837 0.03721,-0.0233 0.127124,-0.0233 h 0.05426 l 0.137977,-0.64493 q 0.03876,-0.18138 -0.02326,-0.27595 -0.06201,-0.0961 -0.218591,-0.0961 -0.15813,0 -0.3023077,0.10697 -0.1426269,0.10697 -0.1767334,0.2651 l -0.1379761,0.64493 h 0.05426 q 0.093018,0 0.1209229,0.0233 0.027905,0.0233 0.015503,0.0837 -0.013953,0.0651 -0.046509,0.0884 -0.032556,0.0233 -0.1410767,0.0233 H 9.3898875 9.3061717 q -0.063562,0 -0.089917,-0.0264 -0.026355,-0.0279 -0.013953,-0.0853 0.012402,-0.062 0.05271,-0.0837 0.041858,-0.0233 0.1472779,-0.0233 z"
         style="font-style:italic"
         id="path4078" />
    </g>
    <g
       aria-label="in"
       id="text542-5-8-6"
       style="font-size:3.175px;font-family:Courier;-inkscape-font-specification:'Courier, Normal';fill:#ffffff;stroke-width:0.2;stroke-linecap:round;stroke-linejoin:bevel">
      <path
         d="m 5.3857063,181.77258 q 0.035657,-0.16743 0.074414,-0.21084 0.040308,-0.0434 0.1395263,-0.0434 0.096118,0 0.1193726,0.0372 0.023254,0.0357 -0.0062,0.17208 -0.027905,0.13333 -0.063562,0.16588 -0.035657,0.031 -0.1364258,0.031 -0.099219,0 -0.1240234,-0.0295 -0.023254,-0.0294 -0.0031,-0.12247 z m -0.066663,1.66036 h 0.4976441 q 0.060461,0 0.083716,0.0264 0.023254,0.0248 0.012402,0.0806 -0.013953,0.0636 -0.046509,0.0884 -0.031006,0.0233 -0.1038696,0.0233 H 4.5594002 q -0.062012,0 -0.088367,-0.0279 -0.024805,-0.0279 -0.012402,-0.0837 0.010852,-0.0543 0.048059,-0.0806 0.038757,-0.0264 0.1038696,-0.0264 h 0.4728394 l 0.2123901,-0.99373 H 4.9934822 q -0.063562,0 -0.091467,-0.0279 -0.026355,-0.0295 -0.015503,-0.0837 0.010852,-0.0543 0.048059,-0.0806 0.037207,-0.0279 0.099219,-0.0279 H 5.488026 q 0.041858,0 0.062012,0.0171 0.020154,0.0171 0.013953,0.0465 z"
         style="font-style:italic"
         id="path4081" />
      <path
         d="m 6.5034675,183.43294 0.2123902,-0.99373 h -0.029456 q -0.1054199,0 -0.1395264,-0.0248 -0.034106,-0.0248 -0.021704,-0.0868 0.012402,-0.0574 0.049609,-0.0822 0.038757,-0.0264 0.1116211,-0.0264 h 0.072864 0.1488281 q 0.041858,0 0.060461,0.0171 0.020154,0.0171 0.013953,0.0465 l -0.021704,0.10542 q 0.1348755,-0.10542 0.2557984,-0.15503 0.1224731,-0.0512 0.2418457,-0.0512 0.2340942,0 0.3364136,0.14572 0.1038696,0.14573 0.049609,0.40308 l -0.1503784,0.70228 h 0.072864 q 0.077515,0 0.1054199,0.0264 0.029456,0.0248 0.018604,0.0806 -0.012402,0.0605 -0.05426,0.0868 -0.041858,0.0248 -0.1348755,0.0248 h -0.342615 q -0.099219,0 -0.1224731,-0.0233 -0.023254,-0.0232 -0.0093,-0.0884 0.012402,-0.0605 0.049609,-0.0837 0.037207,-0.0233 0.127124,-0.0233 h 0.05426 l 0.1379761,-0.64492 q 0.038757,-0.18138 -0.023254,-0.27595 -0.062012,-0.0961 -0.2185913,-0.0961 -0.1581299,0 -0.3023072,0.10697 -0.1426269,0.10697 -0.1767334,0.2651 l -0.137976,0.64492 h 0.05426 q 0.093018,0 0.1209229,0.0233 0.027905,0.0233 0.015503,0.0837 -0.013953,0.0651 -0.046509,0.0884 -0.032556,0.0233 -0.1410766,0.0233 H 6.458509 6.3747932 q -0.063562,0 -0.089917,-0.0264 -0.026355,-0.0279 -0.013953,-0.0853 0.012402,-0.062 0.05271,-0.0837 0.041858,-0.0233 0.1472779,-0.0233 z"
         style="font-style:italic"
         id="path4083" />
    </g>
  </g>
  <g
     inkscape:groupmode="layer"
     id="layer2"
     inkscape:label="components">
    <circle
       style="display:inline;vector-effect:none;fill:#0000ff;fill-opacity:1;fill-rule:evenodd;stroke:none;stroke-width:1;stroke-linecap:butt;stroke-linejoin:miter;stroke-miterlimit:4;stroke-dasharray:none;stroke-dashoffset:0;stroke-opacity:1;paint-order:normal"
       id="path4954"
       cx="34.613644"
       cy="18.084949"
       r="4"
       inkscape:label="out0L" />
    <circle
       r="4"
       cy="7.4835739"
       cx="22.442801"
       id="circle4956"
       style="display:inline;vector-effect:none;fill:#ff0000;fill-opacity:1;fill-rule:evenodd;stroke:none;stroke-width:1;stroke-linecap:butt;stroke-linejoin:miter;stroke-miterlimit:4;stroke-dasharray:none;stroke-dashoffset:0;stroke-opacity:1;paint-order:normal"
       inkscape:label="a0" />
    <circle
       r="4"
       cy="7.4835739"
       cx="6.1741991"
       id="circle4956-5"
       style="display:inline;vector-effect:none;fill:#00ff00;fill-opacity:1;fill-rule:evenodd;stroke:none;stroke-width:1;stroke-linecap:butt;stroke-linejoin:miter;stroke-miterlimit:4;stroke-dasharray:none;stroke-dashoffset:0;stroke-opacity:1;paint-order:normal"
       inkscape:label="in" />
    <circle
       r="4"
       cy="120.0732"
       cx="6.2495432"
       id="circle4956-5-3"
       style="display:inline;vector-effect:none;fill:#0000ff;fill-opacity:1;fill-rule:evenodd;stroke:none;stroke-width:1;stroke-linecap:butt;stroke-linejoin:miter;stroke-miterlimit:4;stroke-dasharray:none;stroke-dashoffset:0;stroke-opacity:1;paint-order:normal"
       inkscape:label="chain" />
    <circle
       style="display:inline;vector-effect:none;fill:#00ff00;fill-opacity:1;fill-rule:evenodd;stroke:none;stroke-width:1;stroke-linecap:butt;stroke-linejoin:miter;stroke-miterlimit:4;stroke-dasharray:none;stroke-dashoffset:0;stroke-opacity:1;paint-order:normal"
       id="circle4958"
       cx="34.402718"
       cy="7.6099033"
       r="4"
       inkscape:label="in0L" />
    <circle
       style="display:inline;vector-effect:none;fill:#0000ff;fill-opacity:1;fill-rule:evenodd;stroke:none;stroke-width:1;stroke-linecap:butt;stroke-linejoin:miter;stroke-miterlimit:4;stroke-dasharray:none;stroke-dashoffset:0;stroke-opacity:1;paint-order:normal"
       id="path4954-7"
       cx="53.690079"
       cy="18.084949"
       r="4"
       inkscape:label="out0R" />
    <circle
       style="display:inline;vector-effect:none;fill:#00ff00;fill-opacity:1;fill-rule:evenodd;stroke:none;stroke-width:1;stroke-linecap:butt;stroke-linejoin:miter;stroke-miterlimit:4;stroke-dasharray:none;stroke-dashoffset:0;stroke-opacity:1;paint-order:normal"
       id="circle4958-98"
       cx="53.479153"
       cy="7.6099033"
       r="4"
       inkscape:label="in0R" />
    <circle
       inkscape:label="c0"
       r="4"
       cy="18.084949"
       cx="22.76104"
       id="circle66"
       style="display:inline;vector-effect:none;fill:#ff0000;fill-opacity:1;fill-rule:evenodd;stroke:none;stroke-width:1;stroke-linecap:butt;stroke-linejoin:miter;stroke-miterlimit:4;stroke-dasharray:none;stroke-dashoffset:0;stroke-opacity:1;paint-order:normal" />
    <path
       style="fill:none;fill-opacity:1;stroke:#ffffff;stroke-width:0.338967;stroke-linecap:round;stroke-linejoin:bevel;stroke-dasharray:0.084742, 0.677936;stroke-dashoffset:0;stroke-opacity:1"
       d="M 12.40333,52.391248 H 60.936372 Z"
       id="path1321-6-8" />
    <path
       style="fill:none;fill-opacity:1;stroke:#ffffff;stroke-width:0.339008;stroke-linecap:round;stroke-linejoin:bevel;stroke-dasharray:0.0847523, 0.678019;stroke-dashoffset:0;stroke-opacity:1"
       d="M 12.403376,27.722666 H 60.948184 Z"
       id="path1321-6-8-3" />
    <path
       style="fill:none;fill-opacity:1;stroke:#ffffff;stroke-width:0.338926;stroke-linecap:round;stroke-linejoin:bevel;stroke-dasharray:0.0847317, 0.677854;stroke-dashoffset:0;stroke-opacity:1"
       d="M 12.403284,78.795911 H 60.924563 Z"
       id="path1321-6-9" />
    <g
       aria-label="out"
       id="text542-5-8-9-4-6-1"
       style="font-size:3.175px;font-family:Courier;-inkscape-font-specification:'Courier, Normal';fill:#ffffff;stroke-width:0.2;stroke-linecap:round;stroke-linejoin:bevel"
       transform="translate(-1.9750412,-41.656747)">
      <path
         d="m 43.693681,60.278946 q 0.238745,0 0.42323,-0.150378 0.184484,-0.151929 0.234094,-0.386023 0.05116,-0.234095 -0.07131,-0.386023 -0.120923,-0.153479 -0.358117,-0.153479 -0.237195,0 -0.42168,0.153479 -0.184485,0.151928 -0.235645,0.386023 -0.04961,0.235644 0.06976,0.386023 0.120922,0.150378 0.359668,0.150378 z m 0.927075,-0.536401 q -0.06976,0.331762 -0.341065,0.542602 -0.271301,0.21084 -0.632519,0.21084 -0.359668,0 -0.541052,-0.21084 -0.181385,-0.21084 -0.111622,-0.542602 0.07131,-0.331763 0.342615,-0.541053 0.271301,-0.21084 0.630969,-0.21084 0.359668,0 0.541053,0.21084 0.182934,0.21084 0.111621,0.541053 z"
         style="font-style:italic"
         id="path4019-4" />
      <path
         d="m 45.296683,59.885172 q -0.04186,0.195336 0.02015,0.285253 0.06356,0.08992 0.241846,0.08992 0.168982,0 0.311609,-0.10697 0.144177,-0.10697 0.178284,-0.2682 l 0.136425,-0.640271 h -0.21239 q -0.06046,0 -0.08217,-0.02481 -0.0217,-0.02635 -0.01085,-0.08061 0.0124,-0.05891 0.04806,-0.08682 0.03566,-0.0279 0.100769,-0.0279 h 0.330212 q 0.05891,0 0.07751,0.02635 0.0186,0.02481 -0.0031,0.124023 l -0.226343,1.063501 h 0.07131 q 0.07596,0 0.10387,0.02481 0.02945,0.02481 0.01705,0.08217 -0.0124,0.05581 -0.04961,0.08371 -0.03721,0.02791 -0.09767,0.02791 H 46.016 q -0.04186,0 -0.06201,-0.01705 -0.02015,-0.01705 -0.01395,-0.04651 l 0.02325,-0.10542 q -0.173632,0.114721 -0.289904,0.15813 -0.114722,0.04186 -0.232544,0.04186 -0.255799,0 -0.355017,-0.134875 -0.09922,-0.136426 -0.04031,-0.410828 l 0.148828,-0.697631 h -0.03256 q -0.10542,0 -0.139526,-0.02481 -0.03256,-0.02481 -0.02015,-0.08682 0.01085,-0.05426 0.04651,-0.08062 0.03721,-0.0279 0.100769,-0.0279 H 45.3835 q 0.05426,0 0.06976,0.0217 0.01705,0.0217 0.0016,0.09612 z"
         style="font-style:italic"
         id="path4021-8" />
      <path
         d="m 48.175577,59.111575 q 0.07597,0 0.10542,0.02635 0.02946,0.02636 0.01705,0.08372 -0.0124,0.05426 -0.05116,0.08217 -0.03721,0.02636 -0.102319,0.02636 h -0.627869 l -0.110071,0.517797 q -0.05426,0.254249 -0.0062,0.334864 0.04961,0.08062 0.20929,0.08062 0.141076,0 0.355017,-0.08217 0.21549,-0.08217 0.261999,-0.08217 0.04341,0 0.06666,0.03101 0.02325,0.03101 0.01395,0.07596 -0.01085,0.05116 -0.05736,0.08992 -0.04496,0.03721 -0.144178,0.07286 -0.165881,0.06046 -0.293005,0.08837 -0.127124,0.0279 -0.234094,0.0279 -0.181385,0 -0.293006,-0.05736 -0.11007,-0.05891 -0.147278,-0.173633 -0.0186,-0.05426 -0.01705,-0.128674 0.0031,-0.07441 0.03566,-0.229443 l 0.01085,-0.04806 0.110071,-0.517797 h -0.26355 q -0.06511,0 -0.08992,-0.02481 -0.02325,-0.02636 -0.01085,-0.08372 0.01395,-0.06356 0.05891,-0.08682 0.04496,-0.02325 0.176734,-0.02325 h 0.175183 l 0.06821,-0.31781 0.01705,-0.08217 q 0.01395,-0.06666 0.04961,-0.09767 0.03566,-0.03256 0.09612,-0.03256 0.06821,0 0.08527,0.03876 0.0186,0.03876 -0.01085,0.176734 l -0.06666,0.314709 z"
         style="font-style:italic"
         id="path4023-8" />
    </g>
    <path
       style="fill:none;fill-opacity:1;stroke:#ffffff;stroke-width:0.339008;stroke-linecap:round;stroke-linejoin:bevel;stroke-dasharray:0.0847523, 0.678019;stroke-dashoffset:0;stroke-opacity:1"
       d="M 12.403376,104.29522 H 60.948184 Z"
       id="path1321-6-8-4" />
    <g
       aria-label="ref"
       transform="matrix(0.26458333,0,0,0.26458333,24.519451,-0.67749381)"
       id="text4372-0-4"
       style="font-size:12px;font-family:Courier;-inkscape-font-specification:'Courier, Normal';text-align:center;white-space:pre;shape-inside:url(#rect4374-3);fill:#ffffff;stroke-width:1.13386;stroke-linecap:round;stroke-linejoin:bevel;stroke-dasharray:0.283465, 2.26772">
      <path
         d="m 63.383789,33.083984 h 1.945313 q 0.228515,0 0.316406,0.09961 0.08789,0.09375 0.04687,0.304687 -0.05274,0.240235 -0.175781,0.333985 -0.117188,0.08789 -0.392579,0.08789 h -3.832031 q -0.228515,0 -0.328125,-0.105469 -0.09375,-0.105468 -0.04687,-0.316406 0.04102,-0.205078 0.181641,-0.304687 0.140625,-0.09961 0.392578,-0.09961 h 1.019531 l 0.802735,-3.755859 h -0.398438 q -0.568359,0 -0.691406,-0.08789 -0.123047,-0.09375 -0.07031,-0.333984 0.04102,-0.205078 0.175782,-0.304688 0.140625,-0.105468 0.375,-0.105468 h 1.335937 q 0.158203,0 0.222656,0.06445 0.07031,0.05859 0.04687,0.175781 l -0.210937,0.996094 q 0.703125,-0.697266 1.376953,-1.03711 0.679687,-0.339843 1.376953,-0.339843 0.521484,0 0.796875,0.210937 0.28125,0.210938 0.210938,0.544922 -0.04687,0.216797 -0.246094,0.386719 -0.19336,0.164062 -0.386719,0.164062 -0.134766,0 -0.416016,-0.175781 -0.28125,-0.181641 -0.533203,-0.181641 -0.457031,0 -1.037109,0.328125 -0.574219,0.322266 -1.341797,1.025391 z"
         style="font-style:italic"
         id="path4640-1" />
      <path
         d="m 69.524414,31.460937 q -0.128906,0.84375 0.292969,1.306641 0.427734,0.457031 1.335937,0.457031 0.685547,0 1.570313,-0.363281 0.890625,-0.369141 1.060547,-0.369141 0.175781,0 0.269531,0.111329 0.09375,0.111328 0.05859,0.27539 -0.03516,0.169922 -0.1875,0.310547 -0.152344,0.140625 -0.451172,0.275391 -0.650391,0.287109 -1.306641,0.439453 -0.65625,0.152344 -1.271484,0.152344 -1.335938,0 -1.97461,-0.767579 -0.638671,-0.773437 -0.36914,-2.044921 0.27539,-1.294922 1.294922,-2.097657 1.019531,-0.802734 2.384765,-0.802734 1.236328,0 1.892578,0.75 0.65625,0.75 0.427735,1.816406 -0.07031,0.328125 -0.234375,0.439453 -0.158203,0.111328 -0.767578,0.111328 h -0.08789 z m 0.193359,-0.767578 h 3.814454 q 0.05859,-0.697265 -0.345704,-1.11914 -0.404296,-0.427735 -1.125,-0.427735 -0.779296,0 -1.40039,0.410157 -0.615235,0.410156 -0.94336,1.136718 z"
         style="font-style:italic"
         id="path4642-0" />
      <path
         d="m 80.170898,33.072266 q 0.240235,0 0.339844,0.105468 0.105469,0.105469 0.06445,0.310547 -0.04687,0.210938 -0.1875,0.316406 -0.140625,0.105469 -0.36914,0.105469 H 76.18652 q -0.240234,0 -0.345703,-0.105469 -0.105468,-0.105468 -0.05859,-0.316406 0.04101,-0.205078 0.18164,-0.310547 0.146485,-0.105468 0.375,-0.105468 h 0.996094 l 0.761719,-3.580079 h -0.960938 q -0.240234,0 -0.351562,-0.111328 -0.105469,-0.111328 -0.06445,-0.316406 0.04687,-0.210937 0.193359,-0.316406 0.146484,-0.105469 0.380859,-0.105469 h 0.925782 l 0.08203,-0.398437 q 0.228515,-1.060547 0.93164,-1.535157 0.703125,-0.480468 2.050782,-0.480468 0.65625,0 0.9375,0.146484 0.287109,0.146484 0.216797,0.457031 -0.03516,0.181641 -0.199219,0.298828 -0.158203,0.117188 -0.369141,0.117188 -0.105469,0 -0.492187,-0.07031 -0.386719,-0.07031 -0.673828,-0.07031 -0.66211,0 -1.007813,0.28125 -0.345703,0.27539 -0.480469,0.919922 l -0.07031,0.333984 h 2.074219 q 0.240234,0 0.339843,0.105469 0.105469,0.105469 0.05859,0.316406 -0.04102,0.199219 -0.193359,0.316406 -0.152344,0.111328 -0.375,0.111328 h -2.027344 l -0.761719,3.580079 z"
         style="font-style:italic"
         id="path4644-8" />
    </g>
    <g
       aria-label="c"
       id="text542-5-8-2-5"
       style="font-size:3.175px;font-family:Courier;-inkscape-font-specification:'Courier, Normal';fill:#ffffff;stroke-width:0.2;stroke-linecap:round;stroke-linejoin:bevel"
       transform="translate(-29.422421,-141.22728)">
      <path
         d="m 46.835686,185.96093 0.0016,-0.006 q 0.01085,-0.0512 0.04496,-0.0744 0.03566,-0.0248 0.09767,-0.0248 0.06356,0 0.07906,0.0372 0.0155,0.0372 -0.0093,0.15348 l -0.06046,0.28835 q -0.0124,0.0574 -0.04806,0.0868 -0.03566,0.0279 -0.09457,0.0279 -0.04186,0 -0.06666,-0.0233 -0.02481,-0.0248 -0.05271,-0.10077 -0.04806,-0.12557 -0.141077,-0.18914 -0.09147,-0.0651 -0.229443,-0.0651 -0.241846,0 -0.42323,0.14263 -0.181384,0.14263 -0.229443,0.36897 -0.04961,0.23099 0.06356,0.37827 0.114721,0.14573 0.342614,0.14573 0.10387,0 0.203089,-0.0279 0.100769,-0.0294 0.196887,-0.0868 0.03256,-0.0186 0.09147,-0.0574 0.117822,-0.0822 0.175183,-0.0822 0.04806,0 0.07131,0.031 0.0248,0.0294 0.01395,0.0775 -0.02635,0.12247 -0.285253,0.25115 -0.258899,0.12712 -0.519349,0.12712 -0.336413,0 -0.514697,-0.21549 -0.178284,-0.21549 -0.110071,-0.53795 0.06976,-0.32246 0.337964,-0.53795 0.269751,-0.21704 0.604614,-0.21704 0.117823,0 0.229444,0.0325 0.111621,0.031 0.230993,0.0977 z"
         style="font-style:italic"
         id="path4036-6" />
    </g>
    <g
       aria-label="a"
       id="text542-5-8-4-1"
       style="font-size:3.175px;font-family:Courier;-inkscape-font-specification:'Courier, Normal';fill:#ffffff;stroke-width:0.2;stroke-linecap:round;stroke-linejoin:bevel"
       transform="translate(-0.72621963,-141.13179)">
      <path
         d="m 17.928378,176.01379 q -0.07906,-0.0279 -0.15658,-0.0403 -0.07596,-0.0139 -0.155029,-0.0139 -0.238745,0 -0.393775,0.0806 -0.155029,0.0806 -0.184485,0.21704 -0.0217,0.10542 0.04961,0.17363 0.07131,0.0682 0.204638,0.0682 0.196888,0 0.386023,-0.10232 0.190686,-0.10387 0.213941,-0.21549 z m -0.09147,0.48834 q -0.150378,0.11472 -0.313159,0.17519 -0.162781,0.0605 -0.320911,0.0605 -0.230993,0 -0.345715,-0.12868 -0.114722,-0.12867 -0.06976,-0.33486 0.05116,-0.24495 0.268201,-0.37982 0.217041,-0.13488 0.558105,-0.13488 0.08992,0 0.178284,0.0124 0.08992,0.0109 0.181384,0.0357 l 0.0016,-0.0109 q 0.03876,-0.17828 -0.02946,-0.26355 -0.06666,-0.0853 -0.246497,-0.0853 -0.120923,0 -0.283703,0.0651 -0.162781,0.0651 -0.21084,0.0651 -0.04496,0 -0.06666,-0.0357 -0.0217,-0.0372 -0.0093,-0.0946 0.02015,-0.0915 0.204639,-0.15503 0.184485,-0.0636 0.451135,-0.0636 0.272852,0 0.382923,0.13953 0.11007,0.13798 0.05271,0.40928 l -0.150379,0.70228 h 0.07597 q 0.11007,0 0.142626,0.0232 0.03256,0.0233 0.02015,0.0837 -0.0124,0.0558 -0.04961,0.0837 -0.03566,0.0279 -0.09767,0.0279 h -0.243396 q -0.04341,0 -0.06666,-0.0263 -0.0217,-0.0264 -0.02015,-0.076 z"
         style="font-style:italic"
         id="path4046-5" />
    </g>
    <circle
       style="display:inline;vector-effect:none;fill:#0000ff;fill-opacity:1;fill-rule:evenodd;stroke:none;stroke-width:1;stroke-linecap:butt;stroke-linejoin:miter;stroke-miterlimit:4;stroke-dasharray:none;stroke-dashoffset:0;stroke-opacity:1;paint-order:normal"
       id="path4954-9"
       cx="34.82457"
       cy="45.357655"
       r="4"
       inkscape:label="out1L" />
    <circle
       r="4"
       cy="34.756279"
       cx="22.653725"
       id="circle4956-1"
       style="display:inline;vector-effect:none;fill:#ff0000;fill-opacity:1;fill-rule:evenodd;stroke:none;stroke-width:1;stroke-linecap:butt;stroke-linejoin:miter;stroke-miterlimit:4;stroke-dasharray:none;stroke-dashoffset:0;stroke-opacity:1;paint-order:normal"
       inkscape:label="a1" />
    <circle
       style="display:inline;vector-effect:none;fill:#00ff00;fill-opacity:1;fill-rule:evenodd;stroke:none;stroke-width:1;stroke-linecap:butt;stroke-linejoin:miter;stroke-miterlimit:4;stroke-dasharray:none;stroke-dashoffset:0;stroke-opacity:1;paint-order:normal"
       id="circle4958-3"
       cx="34.613644"
       cy="34.88261"
       r="4"
       inkscape:label="in1L" />
    <circle
       style="display:inline;vector-effect:none;fill:#0000ff;fill-opacity:1;fill-rule:evenodd;stroke:none;stroke-width:1;stroke-linecap:butt;stroke-linejoin:miter;stroke-miterlimit:4;stroke-dasharray:none;stroke-dashoffset:0;stroke-opacity:1;paint-order:normal"
       id="path4954-7-8"
       cx="53.901005"
       cy="45.357655"
       r="4"
       inkscape:label="out1R" />
    <circle
       style="display:inline;vector-effect:none;fill:#00ff00;fill-opacity:1;fill-rule:evenodd;stroke:none;stroke-width:1;stroke-linecap:butt;stroke-linejoin:miter;stroke-miterlimit:4;stroke-dasharray:none;stroke-dashoffset:0;stroke-opacity:1;paint-order:normal"
       id="circle4958-98-8"
       cx="53.690079"
       cy="34.88261"
       r="4"
       inkscape:label="in1R" />
    <circle
       inkscape:label="c1"
       r="4"
       cy="45.357655"
       cx="22.971966"
       id="circle66-9"
       style="display:inline;vector-effect:none;fill:#ff0000;fill-opacity:1;fill-rule:evenodd;stroke:none;stroke-width:1;stroke-linecap:butt;stroke-linejoin:miter;stroke-miterlimit:4;stroke-dasharray:none;stroke-dashoffset:0;stroke-opacity:1;paint-order:normal" />
    <g
       aria-label="out"
       id="text542-5-8-9-4-6-1-4"
       style="font-size:3.175px;font-family:Courier;-inkscape-font-specification:'Courier, Normal';fill:#ffffff;stroke-width:0.2;stroke-linecap:round;stroke-linejoin:bevel"
       transform="translate(-1.7641156,-14.384042)">
      <path
         d="m 43.693681,60.278946 q 0.238745,0 0.42323,-0.150378 0.184484,-0.151929 0.234094,-0.386023 0.05116,-0.234095 -0.07131,-0.386023 -0.120923,-0.153479 -0.358117,-0.153479 -0.237195,0 -0.42168,0.153479 -0.184485,0.151928 -0.235645,0.386023 -0.04961,0.235644 0.06976,0.386023 0.120922,0.150378 0.359668,0.150378 z m 0.927075,-0.536401 q -0.06976,0.331762 -0.341065,0.542602 -0.271301,0.21084 -0.632519,0.21084 -0.359668,0 -0.541052,-0.21084 -0.181385,-0.21084 -0.111622,-0.542602 0.07131,-0.331763 0.342615,-0.541053 0.271301,-0.21084 0.630969,-0.21084 0.359668,0 0.541053,0.21084 0.182934,0.21084 0.111621,0.541053 z"
         style="font-style:italic"
         id="path4019-4-3" />
      <path
         d="m 45.296683,59.885172 q -0.04186,0.195336 0.02015,0.285253 0.06356,0.08992 0.241846,0.08992 0.168982,0 0.311609,-0.10697 0.144177,-0.10697 0.178284,-0.2682 l 0.136425,-0.640271 h -0.21239 q -0.06046,0 -0.08217,-0.02481 -0.0217,-0.02635 -0.01085,-0.08061 0.0124,-0.05891 0.04806,-0.08682 0.03566,-0.0279 0.100769,-0.0279 h 0.330212 q 0.05891,0 0.07751,0.02635 0.0186,0.02481 -0.0031,0.124023 l -0.226343,1.063501 h 0.07131 q 0.07596,0 0.10387,0.02481 0.02945,0.02481 0.01705,0.08217 -0.0124,0.05581 -0.04961,0.08371 -0.03721,0.02791 -0.09767,0.02791 H 46.016 q -0.04186,0 -0.06201,-0.01705 -0.02015,-0.01705 -0.01395,-0.04651 l 0.02325,-0.10542 q -0.173632,0.114721 -0.289904,0.15813 -0.114722,0.04186 -0.232544,0.04186 -0.255799,0 -0.355017,-0.134875 -0.09922,-0.136426 -0.04031,-0.410828 l 0.148828,-0.697631 h -0.03256 q -0.10542,0 -0.139526,-0.02481 -0.03256,-0.02481 -0.02015,-0.08682 0.01085,-0.05426 0.04651,-0.08062 0.03721,-0.0279 0.100769,-0.0279 H 45.3835 q 0.05426,0 0.06976,0.0217 0.01705,0.0217 0.0016,0.09612 z"
         style="font-style:italic"
         id="path4021-8-9" />
      <path
         d="m 48.175577,59.111575 q 0.07597,0 0.10542,0.02635 0.02946,0.02636 0.01705,0.08372 -0.0124,0.05426 -0.05116,0.08217 -0.03721,0.02636 -0.102319,0.02636 h -0.627869 l -0.110071,0.517797 q -0.05426,0.254249 -0.0062,0.334864 0.04961,0.08062 0.20929,0.08062 0.141076,0 0.355017,-0.08217 0.21549,-0.08217 0.261999,-0.08217 0.04341,0 0.06666,0.03101 0.02325,0.03101 0.01395,0.07596 -0.01085,0.05116 -0.05736,0.08992 -0.04496,0.03721 -0.144178,0.07286 -0.165881,0.06046 -0.293005,0.08837 -0.127124,0.0279 -0.234094,0.0279 -0.181385,0 -0.293006,-0.05736 -0.11007,-0.05891 -0.147278,-0.173633 -0.0186,-0.05426 -0.01705,-0.128674 0.0031,-0.07441 0.03566,-0.229443 l 0.01085,-0.04806 0.110071,-0.517797 h -0.26355 q -0.06511,0 -0.08992,-0.02481 -0.02325,-0.02636 -0.01085,-0.08372 0.01395,-0.06356 0.05891,-0.08682 0.04496,-0.02325 0.176734,-0.02325 h 0.175183 l 0.06821,-0.31781 0.01705,-0.08217 q 0.01395,-0.06666 0.04961,-0.09767 0.03566,-0.03256 0.09612,-0.03256 0.06821,0 0.08527,0.03876 0.0186,0.03876 -0.01085,0.176734 l -0.06666,0.314709 z"
         style="font-style:italic"
         id="path4023-8-5" />
    </g>
    <g
       aria-label="ref"
       transform="matrix(0.26458333,0,0,0.26458333,24.730376,26.595212)"
       id="text4372-0-4-1"
       style="font-size:12px;font-family:Courier;-inkscape-font-specification:'Courier, Normal';text-align:center;white-space:pre;shape-inside:url(#rect4374-3);fill:#ffffff;stroke-width:1.13386;stroke-linecap:round;stroke-linejoin:bevel;stroke-dasharray:0.283465, 2.26772">
      <path
         d="m 63.383789,33.083984 h 1.945313 q 0.228515,0 0.316406,0.09961 0.08789,0.09375 0.04687,0.304687 -0.05274,0.240235 -0.175781,0.333985 -0.117188,0.08789 -0.392579,0.08789 h -3.832031 q -0.228515,0 -0.328125,-0.105469 -0.09375,-0.105468 -0.04687,-0.316406 0.04102,-0.205078 0.181641,-0.304687 0.140625,-0.09961 0.392578,-0.09961 h 1.019531 l 0.802735,-3.755859 h -0.398438 q -0.568359,0 -0.691406,-0.08789 -0.123047,-0.09375 -0.07031,-0.333984 0.04102,-0.205078 0.175782,-0.304688 0.140625,-0.105468 0.375,-0.105468 h 1.335937 q 0.158203,0 0.222656,0.06445 0.07031,0.05859 0.04687,0.175781 l -0.210937,0.996094 q 0.703125,-0.697266 1.376953,-1.03711 0.679687,-0.339843 1.376953,-0.339843 0.521484,0 0.796875,0.210937 0.28125,0.210938 0.210938,0.544922 -0.04687,0.216797 -0.246094,0.386719 -0.19336,0.164062 -0.386719,0.164062 -0.134766,0 -0.416016,-0.175781 -0.28125,-0.181641 -0.533203,-0.181641 -0.457031,0 -1.037109,0.328125 -0.574219,0.322266 -1.341797,1.025391 z"
         style="font-style:italic"
         id="path4640-1-7" />
      <path
         d="m 69.524414,31.460937 q -0.128906,0.84375 0.292969,1.306641 0.427734,0.457031 1.335937,0.457031 0.685547,0 1.570313,-0.363281 0.890625,-0.369141 1.060547,-0.369141 0.175781,0 0.269531,0.111329 0.09375,0.111328 0.05859,0.27539 -0.03516,0.169922 -0.1875,0.310547 -0.152344,0.140625 -0.451172,0.275391 -0.650391,0.287109 -1.306641,0.439453 -0.65625,0.152344 -1.271484,0.152344 -1.335938,0 -1.97461,-0.767579 -0.638671,-0.773437 -0.36914,-2.044921 0.27539,-1.294922 1.294922,-2.097657 1.019531,-0.802734 2.384765,-0.802734 1.236328,0 1.892578,0.75 0.65625,0.75 0.427735,1.816406 -0.07031,0.328125 -0.234375,0.439453 -0.158203,0.111328 -0.767578,0.111328 h -0.08789 z m 0.193359,-0.767578 h 3.814454 q 0.05859,-0.697265 -0.345704,-1.11914 -0.404296,-0.427735 -1.125,-0.427735 -0.779296,0 -1.40039,0.410157 -0.615235,0.410156 -0.94336,1.136718 z"
         style="font-style:italic"
         id="path4642-0-4" />
      <path
         d="m 80.170898,33.072266 q 0.240235,0 0.339844,0.105468 0.105469,0.105469 0.06445,0.310547 -0.04687,0.210938 -0.1875,0.316406 -0.140625,0.105469 -0.36914,0.105469 H 76.18652 q -0.240234,0 -0.345703,-0.105469 -0.105468,-0.105468 -0.05859,-0.316406 0.04101,-0.205078 0.18164,-0.310547 0.146485,-0.105468 0.375,-0.105468 h 0.996094 l 0.761719,-3.580079 h -0.960938 q -0.240234,0 -0.351562,-0.111328 -0.105469,-0.111328 -0.06445,-0.316406 0.04687,-0.210937 0.193359,-0.316406 0.146484,-0.105469 0.380859,-0.105469 h 0.925782 l 0.08203,-0.398437 q 0.228515,-1.060547 0.93164,-1.535157 0.703125,-0.480468 2.050782,-0.480468 0.65625,0 0.9375,0.146484 0.287109,0.146484 0.216797,0.457031 -0.03516,0.181641 -0.199219,0.298828 -0.158203,0.117188 -0.369141,0.117188 -0.105469,0 -0.492187,-0.07031 -0.386719,-0.07031 -0.673828,-0.07031 -0.66211,0 -1.007813,0.28125 -0.345703,0.27539 -0.480469,0.919922 l -0.07031,0.333984 h 2.074219 q 0.240234,0 0.339843,0.105469 0.105469,0.105469 0.05859,0.316406 -0.04102,0.199219 -0.193359,0.316406 -0.152344,0.111328 -0.375,0.111328 h -2.027344 l -0.761719,3.580079 z"
         style="font-style:italic"
         id="path4644-8-5" />
    </g>
    <g
       aria-label="c"
       id="text542-5-8-2-1"
       style="font-size:3.175px;font-family:Courier;-inkscape-font-specification:'Courier, Normal';fill:#ffffff;stroke-width:0.2;stroke-linecap:round;stroke-linejoin:bevel"
       transform="translate(-29.211493,-116.55871)">
      <path
         d="m 46.835686,185.96093 0.0016,-0.006 q 0.01085,-0.0512 0.04496,-0.0744 0.03566,-0.0248 0.09767,-0.0248 0.06356,0 0.07906,0.0372 0.0155,0.0372 -0.0093,0.15348 l -0.06046,0.28835 q -0.0124,0.0574 -0.04806,0.0868 -0.03566,0.0279 -0.09457,0.0279 -0.04186,0 -0.06666,-0.0233 -0.02481,-0.0248 -0.05271,-0.10077 -0.04806,-0.12557 -0.141077,-0.18914 -0.09147,-0.0651 -0.229443,-0.0651 -0.241846,0 -0.42323,0.14263 -0.181384,0.14263 -0.229443,0.36897 -0.04961,0.23099 0.06356,0.37827 0.114721,0.14573 0.342614,0.14573 0.10387,0 0.203089,-0.0279 0.100769,-0.0294 0.196887,-0.0868 0.03256,-0.0186 0.09147,-0.0574 0.117822,-0.0822 0.175183,-0.0822 0.04806,0 0.07131,0.031 0.0248,0.0294 0.01395,0.0775 -0.02635,0.12247 -0.285253,0.25115 -0.258899,0.12712 -0.519349,0.12712 -0.336413,0 -0.514697,-0.21549 -0.178284,-0.21549 -0.110071,-0.53795 0.06976,-0.32246 0.337964,-0.53795 0.269751,-0.21704 0.604614,-0.21704 0.117823,0 0.229444,0.0325 0.111621,0.031 0.230993,0.0977 z"
         style="font-style:italic"
         id="path4036-4" />
    </g>
    <g
       aria-label="a"
       id="text542-5-8-4-6"
       style="font-size:3.175px;font-family:Courier;-inkscape-font-specification:'Courier, Normal';fill:#ffffff;stroke-width:0.2;stroke-linecap:round;stroke-linejoin:bevel"
       transform="translate(-0.51529215,-116.46322)">
      <path
         d="m 17.928378,176.01379 q -0.07906,-0.0279 -0.15658,-0.0403 -0.07596,-0.0139 -0.155029,-0.0139 -0.238745,0 -0.393775,0.0806 -0.155029,0.0806 -0.184485,0.21704 -0.0217,0.10542 0.04961,0.17363 0.07131,0.0682 0.204638,0.0682 0.196888,0 0.386023,-0.10232 0.190686,-0.10387 0.213941,-0.21549 z m -0.09147,0.48834 q -0.150378,0.11472 -0.313159,0.17519 -0.162781,0.0605 -0.320911,0.0605 -0.230993,0 -0.345715,-0.12868 -0.114722,-0.12867 -0.06976,-0.33486 0.05116,-0.24495 0.268201,-0.37982 0.217041,-0.13488 0.558105,-0.13488 0.08992,0 0.178284,0.0124 0.08992,0.0109 0.181384,0.0357 l 0.0016,-0.0109 q 0.03876,-0.17828 -0.02946,-0.26355 -0.06666,-0.0853 -0.246497,-0.0853 -0.120923,0 -0.283703,0.0651 -0.162781,0.0651 -0.21084,0.0651 -0.04496,0 -0.06666,-0.0357 -0.0217,-0.0372 -0.0093,-0.0946 0.02015,-0.0915 0.204639,-0.15503 0.184485,-0.0636 0.451135,-0.0636 0.272852,0 0.382923,0.13953 0.11007,0.13798 0.05271,0.40928 l -0.150379,0.70228 h 0.07597 q 0.11007,0 0.142626,0.0232 0.03256,0.0233 0.02015,0.0837 -0.0124,0.0558 -0.04961,0.0837 -0.03566,0.0279 -0.09767,0.0279 h -0.243396 q -0.04341,0 -0.06666,-0.0263 -0.0217,-0.0264 -0.02015,-0.076 z"
         style="font-style:italic"
         id="path4046-0" />
    </g>
    <circle
       style="display:inline;vector-effect:none;fill:#0000ff;fill-opacity:1;fill-rule:evenodd;stroke:none;stroke-width:1;stroke-linecap:butt;stroke-linejoin:miter;stroke-miterlimit:4;stroke-dasharray:none;stroke-dashoffset:0;stroke-opacity:1;paint-order:normal"
       id="path4954-3"
       cx="35.035496"
       cy="70.026215"
       r="4"
       inkscape:label="out2L" />
    <circle
       r="4"
       cy="59.424843"
       cx="22.864653"
       id="circle4956-2"
       style="display:inline;vector-effect:none;fill:#ff0000;fill-opacity:1;fill-rule:evenodd;stroke:none;stroke-width:1;stroke-linecap:butt;stroke-linejoin:miter;stroke-miterlimit:4;stroke-dasharray:none;stroke-dashoffset:0;stroke-opacity:1;paint-order:normal"
       inkscape:label="a2" />
    <circle
       style="display:inline;vector-effect:none;fill:#00ff00;fill-opacity:1;fill-rule:evenodd;stroke:none;stroke-width:1;stroke-linecap:butt;stroke-linejoin:miter;stroke-miterlimit:4;stroke-dasharray:none;stroke-dashoffset:0;stroke-opacity:1;paint-order:normal"
       id="circle4958-2"
       cx="34.82457"
       cy="59.55117"
       r="4"
       inkscape:label="in2L" />
    <circle
       style="display:inline;vector-effect:none;fill:#0000ff;fill-opacity:1;fill-rule:evenodd;stroke:none;stroke-width:1;stroke-linecap:butt;stroke-linejoin:miter;stroke-miterlimit:4;stroke-dasharray:none;stroke-dashoffset:0;stroke-opacity:1;paint-order:normal"
       id="path4954-7-1"
       cx="54.111931"
       cy="70.026215"
       r="4"
       inkscape:label="out2R" />
    <circle
       style="display:inline;vector-effect:none;fill:#00ff00;fill-opacity:1;fill-rule:evenodd;stroke:none;stroke-width:1;stroke-linecap:butt;stroke-linejoin:miter;stroke-miterlimit:4;stroke-dasharray:none;stroke-dashoffset:0;stroke-opacity:1;paint-order:normal"
       id="circle4958-98-4"
       cx="53.901005"
       cy="59.55117"
       r="4"
       inkscape:label="in2R" />
    <circle
       inkscape:label="c2"
       r="4"
       cy="70.026215"
       cx="23.182892"
       id="circle66-7"
       style="display:inline;vector-effect:none;fill:#ff0000;fill-opacity:1;fill-rule:evenodd;stroke:none;stroke-width:1;stroke-linecap:butt;stroke-linejoin:miter;stroke-miterlimit:4;stroke-dasharray:none;stroke-dashoffset:0;stroke-opacity:1;paint-order:normal" />
    <g
       aria-label="out"
       id="text542-5-8-9-4-6-1-7"
       style="font-size:3.175px;font-family:Courier;-inkscape-font-specification:'Courier, Normal';fill:#ffffff;stroke-width:0.2;stroke-linecap:round;stroke-linejoin:bevel"
       transform="translate(-1.5531884,10.28452)">
      <path
         d="m 43.693681,60.278946 q 0.238745,0 0.42323,-0.150378 0.184484,-0.151929 0.234094,-0.386023 0.05116,-0.234095 -0.07131,-0.386023 -0.120923,-0.153479 -0.358117,-0.153479 -0.237195,0 -0.42168,0.153479 -0.184485,0.151928 -0.235645,0.386023 -0.04961,0.235644 0.06976,0.386023 0.120922,0.150378 0.359668,0.150378 z m 0.927075,-0.536401 q -0.06976,0.331762 -0.341065,0.542602 -0.271301,0.21084 -0.632519,0.21084 -0.359668,0 -0.541052,-0.21084 -0.181385,-0.21084 -0.111622,-0.542602 0.07131,-0.331763 0.342615,-0.541053 0.271301,-0.21084 0.630969,-0.21084 0.359668,0 0.541053,0.21084 0.182934,0.21084 0.111621,0.541053 z"
         style="font-style:italic"
         id="path4019-4-0" />
      <path
         d="m 45.296683,59.885172 q -0.04186,0.195336 0.02015,0.285253 0.06356,0.08992 0.241846,0.08992 0.168982,0 0.311609,-0.10697 0.144177,-0.10697 0.178284,-0.2682 l 0.136425,-0.640271 h -0.21239 q -0.06046,0 -0.08217,-0.02481 -0.0217,-0.02635 -0.01085,-0.08061 0.0124,-0.05891 0.04806,-0.08682 0.03566,-0.0279 0.100769,-0.0279 h 0.330212 q 0.05891,0 0.07751,0.02635 0.0186,0.02481 -0.0031,0.124023 l -0.226343,1.063501 h 0.07131 q 0.07596,0 0.10387,0.02481 0.02945,0.02481 0.01705,0.08217 -0.0124,0.05581 -0.04961,0.08371 -0.03721,0.02791 -0.09767,0.02791 H 46.016 q -0.04186,0 -0.06201,-0.01705 -0.02015,-0.01705 -0.01395,-0.04651 l 0.02325,-0.10542 q -0.173632,0.114721 -0.289904,0.15813 -0.114722,0.04186 -0.232544,0.04186 -0.255799,0 -0.355017,-0.134875 -0.09922,-0.136426 -0.04031,-0.410828 l 0.148828,-0.697631 h -0.03256 q -0.10542,0 -0.139526,-0.02481 -0.03256,-0.02481 -0.02015,-0.08682 0.01085,-0.05426 0.04651,-0.08062 0.03721,-0.0279 0.100769,-0.0279 H 45.3835 q 0.05426,0 0.06976,0.0217 0.01705,0.0217 0.0016,0.09612 z"
         style="font-style:italic"
         id="path4021-8-95" />
      <path
         d="m 48.175577,59.111575 q 0.07597,0 0.10542,0.02635 0.02946,0.02636 0.01705,0.08372 -0.0124,0.05426 -0.05116,0.08217 -0.03721,0.02636 -0.102319,0.02636 h -0.627869 l -0.110071,0.517797 q -0.05426,0.254249 -0.0062,0.334864 0.04961,0.08062 0.20929,0.08062 0.141076,0 0.355017,-0.08217 0.21549,-0.08217 0.261999,-0.08217 0.04341,0 0.06666,0.03101 0.02325,0.03101 0.01395,0.07596 -0.01085,0.05116 -0.05736,0.08992 -0.04496,0.03721 -0.144178,0.07286 -0.165881,0.06046 -0.293005,0.08837 -0.127124,0.0279 -0.234094,0.0279 -0.181385,0 -0.293006,-0.05736 -0.11007,-0.05891 -0.147278,-0.173633 -0.0186,-0.05426 -0.01705,-0.128674 0.0031,-0.07441 0.03566,-0.229443 l 0.01085,-0.04806 0.110071,-0.517797 h -0.26355 q -0.06511,0 -0.08992,-0.02481 -0.02325,-0.02636 -0.01085,-0.08372 0.01395,-0.06356 0.05891,-0.08682 0.04496,-0.02325 0.176734,-0.02325 h 0.175183 l 0.06821,-0.31781 0.01705,-0.08217 q 0.01395,-0.06666 0.04961,-0.09767 0.03566,-0.03256 0.09612,-0.03256 0.06821,0 0.08527,0.03876 0.0186,0.03876 -0.01085,0.176734 l -0.06666,0.314709 z"
         style="font-style:italic"
         id="path4023-8-7" />
    </g>
    <g
       aria-label="ref"
       transform="matrix(0.26458333,0,0,0.26458333,24.941304,51.263773)"
       id="text4372-0-4-2"
       style="font-size:12px;font-family:Courier;-inkscape-font-specification:'Courier, Normal';text-align:center;white-space:pre;shape-inside:url(#rect4374-3);fill:#ffffff;stroke-width:1.13386;stroke-linecap:round;stroke-linejoin:bevel;stroke-dasharray:0.283465, 2.26772">
      <path
         d="m 63.383789,33.083984 h 1.945313 q 0.228515,0 0.316406,0.09961 0.08789,0.09375 0.04687,0.304687 -0.05274,0.240235 -0.175781,0.333985 -0.117188,0.08789 -0.392579,0.08789 h -3.832031 q -0.228515,0 -0.328125,-0.105469 -0.09375,-0.105468 -0.04687,-0.316406 0.04102,-0.205078 0.181641,-0.304687 0.140625,-0.09961 0.392578,-0.09961 h 1.019531 l 0.802735,-3.755859 h -0.398438 q -0.568359,0 -0.691406,-0.08789 -0.123047,-0.09375 -0.07031,-0.333984 0.04102,-0.205078 0.175782,-0.304688 0.140625,-0.105468 0.375,-0.105468 h 1.335937 q 0.158203,0 0.222656,0.06445 0.07031,0.05859 0.04687,0.175781 l -0.210937,0.996094 q 0.703125,-0.697266 1.376953,-1.03711 0.679687,-0.339843 1.376953,-0.339843 0.521484,0 0.796875,0.210937 0.28125,0.210938 0.210938,0.544922 -0.04687,0.216797 -0.246094,0.386719 -0.19336,0.164062 -0.386719,0.164062 -0.134766,0 -0.416016,-0.175781 -0.28125,-0.181641 -0.533203,-0.181641 -0.457031,0 -1.037109,0.328125 -0.574219,0.322266 -1.341797,1.025391 z"
         style="font-style:italic"
         id="path4640-1-9" />
      <path
         d="m 69.524414,31.460937 q -0.128906,0.84375 0.292969,1.306641 0.427734,0.457031 1.335937,0.457031 0.685547,0 1.570313,-0.363281 0.890625,-0.369141 1.060547,-0.369141 0.175781,0 0.269531,0.111329 0.09375,0.111328 0.05859,0.27539 -0.03516,0.169922 -0.1875,0.310547 -0.152344,0.140625 -0.451172,0.275391 -0.650391,0.287109 -1.306641,0.439453 -0.65625,0.152344 -1.271484,0.152344 -1.335938,0 -1.97461,-0.767579 -0.638671,-0.773437 -0.36914,-2.044921 0.27539,-1.294922 1.294922,-2.097657 1.019531,-0.802734 2.384765,-0.802734 1.236328,0 1.892578,0.75 0.65625,0.75 0.427735,1.816406 -0.07031,0.328125 -0.234375,0.439453 -0.158203,0.111328 -0.767578,0.111328 h -0.08789 z m 0.193359,-0.767578 h 3.814454 q 0.05859,-0.697265 -0.345704,-1.11914 -0.404296,-0.427735 -1.125,-0.427735 -0.779296,0 -1.40039,0.410157 -0.615235,0.410156 -0.94336,1.136718 z"
         style="font-style:italic"
         id="path4642-0-7" />
      <path
         d="m 80.170898,33.072266 q 0.240235,0 0.339844,0.105468 0.105469,0.105469 0.06445,0.310547 -0.04687,0.210938 -0.1875,0.316406 -0.140625,0.105469 -0.36914,0.105469 H 76.18652 q -0.240234,0 -0.345703,-0.105469 -0.105468,-0.105468 -0.05859,-0.316406 0.04101,-0.205078 0.18164,-0.310547 0.146485,-0.105468 0.375,-0.105468 h 0.996094 l 0.761719,-3.580079 h -0.960938 q -0.240234,0 -0.351562,-0.111328 -0.105469,-0.111328 -0.06445,-0.316406 0.04687,-0.210937 0.193359,-0.316406 0.146484,-0.105469 0.380859,-0.105469 h 0.925782 l 0.08203,-0.398437 q 0.228515,-1.060547 0.93164,-1.535157 0.703125,-0.480468 2.050782,-0.480468 0.65625,0 0.9375,0.146484 0.287109,0.146484 0.216797,0.457031 -0.03516,0.181641 -0.199219,0.298828 -0.158203,0.117188 -0.369141,0.117188 -0.105469,0 -0.492187,-0.07031 -0.386719,-0.07031 -0.673828,-0.07031 -0.66211,0 -1.007813,0.28125 -0.345703,0.27539 -0.480469,0.919922 l -0.07031,0.333984 h 2.074219 q 0.240234,0 0.339843,0.105469 0.105469,0.105469 0.05859,0.316406 -0.04102,0.199219 -0.193359,0.316406 -0.152344,0.111328 -0.375,0.111328 h -2.027344 l -0.761719,3.580079 z"
         style="font-style:italic"
         id="path4644-8-6" />
    </g>
    <g
       aria-label="c"
       id="text542-5-8-2-8"
       style="font-size:3.175px;font-family:Courier;-inkscape-font-specification:'Courier, Normal';fill:#ffffff;stroke-width:0.2;stroke-linecap:round;stroke-linejoin:bevel"
       transform="translate(-29.000568,-89.571944)">
      <path
         d="m 46.835686,185.96093 0.0016,-0.006 q 0.01085,-0.0512 0.04496,-0.0744 0.03566,-0.0248 0.09767,-0.0248 0.06356,0 0.07906,0.0372 0.0155,0.0372 -0.0093,0.15348 l -0.06046,0.28835 q -0.0124,0.0574 -0.04806,0.0868 -0.03566,0.0279 -0.09457,0.0279 -0.04186,0 -0.06666,-0.0233 -0.02481,-0.0248 -0.05271,-0.10077 -0.04806,-0.12557 -0.141077,-0.18914 -0.09147,-0.0651 -0.229443,-0.0651 -0.241846,0 -0.42323,0.14263 -0.181384,0.14263 -0.229443,0.36897 -0.04961,0.23099 0.06356,0.37827 0.114721,0.14573 0.342614,0.14573 0.10387,0 0.203089,-0.0279 0.100769,-0.0294 0.196887,-0.0868 0.03256,-0.0186 0.09147,-0.0574 0.117822,-0.0822 0.175183,-0.0822 0.04806,0 0.07131,0.031 0.0248,0.0294 0.01395,0.0775 -0.02635,0.12247 -0.285253,0.25115 -0.258899,0.12712 -0.519349,0.12712 -0.336413,0 -0.514697,-0.21549 -0.178284,-0.21549 -0.110071,-0.53795 0.06976,-0.32246 0.337964,-0.53795 0.269751,-0.21704 0.604614,-0.21704 0.117823,0 0.229444,0.0325 0.111621,0.031 0.230993,0.0977 z"
         style="font-style:italic"
         id="path4036-2" />
    </g>
    <g
       aria-label="a"
       id="text542-5-8-4-9"
       style="font-size:3.175px;font-family:Courier;-inkscape-font-specification:'Courier, Normal';fill:#ffffff;stroke-width:0.2;stroke-linecap:round;stroke-linejoin:bevel"
       transform="translate(-0.30436699,-89.476454)">
      <path
         d="m 17.928378,176.01379 q -0.07906,-0.0279 -0.15658,-0.0403 -0.07596,-0.0139 -0.155029,-0.0139 -0.238745,0 -0.393775,0.0806 -0.155029,0.0806 -0.184485,0.21704 -0.0217,0.10542 0.04961,0.17363 0.07131,0.0682 0.204638,0.0682 0.196888,0 0.386023,-0.10232 0.190686,-0.10387 0.213941,-0.21549 z m -0.09147,0.48834 q -0.150378,0.11472 -0.313159,0.17519 -0.162781,0.0605 -0.320911,0.0605 -0.230993,0 -0.345715,-0.12868 -0.114722,-0.12867 -0.06976,-0.33486 0.05116,-0.24495 0.268201,-0.37982 0.217041,-0.13488 0.558105,-0.13488 0.08992,0 0.178284,0.0124 0.08992,0.0109 0.181384,0.0357 l 0.0016,-0.0109 q 0.03876,-0.17828 -0.02946,-0.26355 -0.06666,-0.0853 -0.246497,-0.0853 -0.120923,0 -0.283703,0.0651 -0.162781,0.0651 -0.21084,0.0651 -0.04496,0 -0.06666,-0.0357 -0.0217,-0.0372 -0.0093,-0.0946 0.02015,-0.0915 0.204639,-0.15503 0.184485,-0.0636 0.451135,-0.0636 0.272852,0 0.382923,0.13953 0.11007,0.13798 0.05271,0.40928 l -0.150379,0.70228 h 0.07597 q 0.11007,0 0.142626,0.0232 0.03256,0.0233 0.02015,0.0837 -0.0124,0.0558 -0.04961,0.0837 -0.03566,0.0279 -0.09767,0.0279 h -0.243396 q -0.04341,0 -0.06666,-0.0263 -0.0217,-0.0264 -0.02015,-0.076 z"
         style="font-style:italic"
         id="path4046-9" />
    </g>
    <circle
       style="display:inline;vector-effect:none;fill:#0000ff;fill-opacity:1;fill-rule:evenodd;stroke:none;stroke-width:1;stroke-linecap:butt;stroke-linejoin:miter;stroke-miterlimit:4;stroke-dasharray:none;stroke-dashoffset:0;stroke-opacity:1;paint-order:normal"
       id="path4954-8"
       cx="35.246422"
       cy="97.012978"
       r="4"
       inkscape:label="out3L" />
    <circle
       r="4"
       cy="86.411606"
       cx="23.075579"
       id="circle4956-3"
       style="display:inline;vector-effect:none;fill:#ff0000;fill-opacity:1;fill-rule:evenodd;stroke:none;stroke-width:1;stroke-linecap:butt;stroke-linejoin:miter;stroke-miterlimit:4;stroke-dasharray:none;stroke-dashoffset:0;stroke-opacity:1;paint-order:normal"
       inkscape:label="a3" />
    <circle
       style="display:inline;vector-effect:none;fill:#00ff00;fill-opacity:1;fill-rule:evenodd;stroke:none;stroke-width:1;stroke-linecap:butt;stroke-linejoin:miter;stroke-miterlimit:4;stroke-dasharray:none;stroke-dashoffset:0;stroke-opacity:1;paint-order:normal"
       id="circle4958-7"
       cx="35.035496"
       cy="86.537933"
       r="4"
       inkscape:label="in3L" />
    <circle
       style="display:inline;vector-effect:none;fill:#0000ff;fill-opacity:1;fill-rule:evenodd;stroke:none;stroke-width:1;stroke-linecap:butt;stroke-linejoin:miter;stroke-miterlimit:4;stroke-dasharray:none;stroke-dashoffset:0;stroke-opacity:1;paint-order:normal"
       id="path4954-7-12"
       cx="54.322857"
       cy="97.012978"
       r="4"
       inkscape:label="out3R" />
    <circle
       style="display:inline;vector-effect:none;fill:#00ff00;fill-opacity:1;fill-rule:evenodd;stroke:none;stroke-width:1;stroke-linecap:butt;stroke-linejoin:miter;stroke-miterlimit:4;stroke-dasharray:none;stroke-dashoffset:0;stroke-opacity:1;paint-order:normal"
       id="circle4958-98-6"
       cx="54.111931"
       cy="86.537933"
       r="4"
       inkscape:label="in3R" />
    <circle
       inkscape:label="c3"
       r="4"
       cy="97.012978"
       cx="23.393818"
       id="circle66-1"
       style="display:inline;vector-effect:none;fill:#ff0000;fill-opacity:1;fill-rule:evenodd;stroke:none;stroke-width:1;stroke-linecap:butt;stroke-linejoin:miter;stroke-miterlimit:4;stroke-dasharray:none;stroke-dashoffset:0;stroke-opacity:1;paint-order:normal" />
    <g
       aria-label="out"
       id="text542-5-8-9-4-6-1-76"
       style="font-size:3.175px;font-family:Courier;-inkscape-font-specification:'Courier, Normal';fill:#ffffff;stroke-width:0.2;stroke-linecap:round;stroke-linejoin:bevel"
       transform="translate(-1.3422632,37.271281)">
      <path
         d="m 43.693681,60.278946 q 0.238745,0 0.42323,-0.150378 0.184484,-0.151929 0.234094,-0.386023 0.05116,-0.234095 -0.07131,-0.386023 -0.120923,-0.153479 -0.358117,-0.153479 -0.237195,0 -0.42168,0.153479 -0.184485,0.151928 -0.235645,0.386023 -0.04961,0.235644 0.06976,0.386023 0.120922,0.150378 0.359668,0.150378 z m 0.927075,-0.536401 q -0.06976,0.331762 -0.341065,0.542602 -0.271301,0.21084 -0.632519,0.21084 -0.359668,0 -0.541052,-0.21084 -0.181385,-0.21084 -0.111622,-0.542602 0.07131,-0.331763 0.342615,-0.541053 0.271301,-0.21084 0.630969,-0.21084 0.359668,0 0.541053,0.21084 0.182934,0.21084 0.111621,0.541053 z"
         style="font-style:italic"
         id="path4019-4-5" />
      <path
         d="m 45.296683,59.885172 q -0.04186,0.195336 0.02015,0.285253 0.06356,0.08992 0.241846,0.08992 0.168982,0 0.311609,-0.10697 0.144177,-0.10697 0.178284,-0.2682 l 0.136425,-0.640271 h -0.21239 q -0.06046,0 -0.08217,-0.02481 -0.0217,-0.02635 -0.01085,-0.08061 0.0124,-0.05891 0.04806,-0.08682 0.03566,-0.0279 0.100769,-0.0279 h 0.330212 q 0.05891,0 0.07751,0.02635 0.0186,0.02481 -0.0031,0.124023 l -0.226343,1.063501 h 0.07131 q 0.07596,0 0.10387,0.02481 0.02945,0.02481 0.01705,0.08217 -0.0124,0.05581 -0.04961,0.08371 -0.03721,0.02791 -0.09767,0.02791 H 46.016 q -0.04186,0 -0.06201,-0.01705 -0.02015,-0.01705 -0.01395,-0.04651 l 0.02325,-0.10542 q -0.173632,0.114721 -0.289904,0.15813 -0.114722,0.04186 -0.232544,0.04186 -0.255799,0 -0.355017,-0.134875 -0.09922,-0.136426 -0.04031,-0.410828 l 0.148828,-0.697631 h -0.03256 q -0.10542,0 -0.139526,-0.02481 -0.03256,-0.02481 -0.02015,-0.08682 0.01085,-0.05426 0.04651,-0.08062 0.03721,-0.0279 0.100769,-0.0279 H 45.3835 q 0.05426,0 0.06976,0.0217 0.01705,0.0217 0.0016,0.09612 z"
         style="font-style:italic"
         id="path4021-8-0" />
      <path
         d="m 48.175577,59.111575 q 0.07597,0 0.10542,0.02635 0.02946,0.02636 0.01705,0.08372 -0.0124,0.05426 -0.05116,0.08217 -0.03721,0.02636 -0.102319,0.02636 h -0.627869 l -0.110071,0.517797 q -0.05426,0.254249 -0.0062,0.334864 0.04961,0.08062 0.20929,0.08062 0.141076,0 0.355017,-0.08217 0.21549,-0.08217 0.261999,-0.08217 0.04341,0 0.06666,0.03101 0.02325,0.03101 0.01395,0.07596 -0.01085,0.05116 -0.05736,0.08992 -0.04496,0.03721 -0.144178,0.07286 -0.165881,0.06046 -0.293005,0.08837 -0.127124,0.0279 -0.234094,0.0279 -0.181385,0 -0.293006,-0.05736 -0.11007,-0.05891 -0.147278,-0.173633 -0.0186,-0.05426 -0.01705,-0.128674 0.0031,-0.07441 0.03566,-0.229443 l 0.01085,-0.04806 0.110071,-0.517797 h -0.26355 q -0.06511,0 -0.08992,-0.02481 -0.02325,-0.02636 -0.01085,-0.08372 0.01395,-0.06356 0.05891,-0.08682 0.04496,-0.02325 0.176734,-0.02325 h 0.175183 l 0.06821,-0.31781 0.01705,-0.08217 q 0.01395,-0.06666 0.04961,-0.09767 0.03566,-0.03256 0.09612,-0.03256 0.06821,0 0.08527,0.03876 0.0186,0.03876 -0.01085,0.176734 l -0.06666,0.314709 z"
         style="font-style:italic"
         id="path4023-8-4" />
    </g>
    <g
       aria-label="ref"
       transform="matrix(0.26458333,0,0,0.26458333,25.152229,78.250534)"
       id="text4372-0-4-5"
       style="font-size:12px;font-family:Courier;-inkscape-font-specification:'Courier, Normal';text-align:center;white-space:pre;shape-inside:url(#rect4374-3);fill:#ffffff;stroke-width:1.13386;stroke-linecap:round;stroke-linejoin:bevel;stroke-dasharray:0.283465, 2.26772">
      <path
         d="m 63.383789,33.083984 h 1.945313 q 0.228515,0 0.316406,0.09961 0.08789,0.09375 0.04687,0.304687 -0.05274,0.240235 -0.175781,0.333985 -0.117188,0.08789 -0.392579,0.08789 h -3.832031 q -0.228515,0 -0.328125,-0.105469 -0.09375,-0.105468 -0.04687,-0.316406 0.04102,-0.205078 0.181641,-0.304687 0.140625,-0.09961 0.392578,-0.09961 h 1.019531 l 0.802735,-3.755859 h -0.398438 q -0.568359,0 -0.691406,-0.08789 -0.123047,-0.09375 -0.07031,-0.333984 0.04102,-0.205078 0.175782,-0.304688 0.140625,-0.105468 0.375,-0.105468 h 1.335937 q 0.158203,0 0.222656,0.06445 0.07031,0.05859 0.04687,0.175781 l -0.210937,0.996094 q 0.703125,-0.697266 1.376953,-1.03711 0.679687,-0.339843 1.376953,-0.339843 0.521484,0 0.796875,0.210937 0.28125,0.210938 0.210938,0.544922 -0.04687,0.216797 -0.246094,0.386719 -0.19336,0.164062 -0.386719,0.164062 -0.134766,0 -0.416016,-0.175781 -0.28125,-0.181641 -0.533203,-0.181641 -0.457031,0 -1.037109,0.328125 -0.574219,0.322266 -1.341797,1.025391 z"
         style="font-style:italic"
         id="path4640-1-1" />
      <path
         d="m 69.524414,31.460937 q -0.128906,0.84375 0.292969,1.306641 0.427734,0.457031 1.335937,0.457031 0.685547,0 1.570313,-0.363281 0.890625,-0.369141 1.060547,-0.369141 0.175781,0 0.269531,0.111329 0.09375,0.111328 0.05859,0.27539 -0.03516,0.169922 -0.1875,0.310547 -0.152344,0.140625 -0.451172,0.275391 -0.650391,0.287109 -1.306641,0.439453 -0.65625,0.152344 -1.271484,0.152344 -1.335938,0 -1.97461,-0.767579 -0.638671,-0.773437 -0.36914,-2.044921 0.27539,-1.294922 1.294922,-2.097657 1.019531,-0.802734 2.384765,-0.802734 1.236328,0 1.892578,0.75 0.65625,0.75 0.427735,1.816406 -0.07031,0.328125 -0.234375,0.439453 -0.158203,0.111328 -0.767578,0.111328 h -0.08789 z m 0.193359,-0.767578 h 3.814454 q 0.05859,-0.697265 -0.345704,-1.11914 -0.404296,-0.427735 -1.125,-0.427735 -0.779296,0 -1.40039,0.410157 -0.615235,0.410156 -0.94336,1.136718 z"
         style="font-style:italic"
         id="path4642-0-2" />
      <path
         d="m 80.170898,33.072266 q 0.240235,0 0.339844,0.105468 0.105469,0.105469 0.06445,0.310547 -0.04687,0.210938 -0.1875,0.316406 -0.140625,0.105469 -0.36914,0.105469 H 76.18652 q -0.240234,0 -0.345703,-0.105469 -0.105468,-0.105468 -0.05859,-0.316406 0.04101,-0.205078 0.18164,-0.310547 0.146485,-0.105468 0.375,-0.105468 h 0.996094 l 0.761719,-3.580079 h -0.960938 q -0.240234,0 -0.351562,-0.111328 -0.105469,-0.111328 -0.06445,-0.316406 0.04687,-0.210937 0.193359,-0.316406 0.146484,-0.105469 0.380859,-0.105469 h 0.925782 l 0.08203,-0.398437 q 0.228515,-1.060547 0.93164,-1.535157 0.703125,-0.480468 2.050782,-0.480468 0.65625,0 0.9375,0.146484 0.287109,0.146484 0.216797,0.457031 -0.03516,0.181641 -0.199219,0.298828 -0.158203,0.117188 -0.369141,0.117188 -0.105469,0 -0.492187,-0.07031 -0.386719,-0.07031 -0.673828,-0.07031 -0.66211,0 -1.007813,0.28125 -0.345703,0.27539 -0.480469,0.919922 l -0.07031,0.333984 h 2.074219 q 0.240234,0 0.339843,0.105469 0.105469,0.105469 0.05859,0.316406 -0.04102,0.199219 -0.193359,0.316406 -0.152344,0.111328 -0.375,0.111328 h -2.027344 l -0.761719,3.580079 z"
         style="font-style:italic"
         id="path4644-8-3" />
    </g>
    <g
       aria-label="c"
       id="text542-5-8-2-7"
       style="font-size:3.175px;font-family:Courier;-inkscape-font-specification:'Courier, Normal';fill:#ffffff;stroke-width:0.2;stroke-linecap:round;stroke-linejoin:bevel"
       transform="translate(-28.715136,-65.189327)">
      <path
         d="m 46.835686,185.96093 0.0016,-0.006 q 0.01085,-0.0512 0.04496,-0.0744 0.03566,-0.0248 0.09767,-0.0248 0.06356,0 0.07906,0.0372 0.0155,0.0372 -0.0093,0.15348 l -0.06046,0.28835 q -0.0124,0.0574 -0.04806,0.0868 -0.03566,0.0279 -0.09457,0.0279 -0.04186,0 -0.06666,-0.0233 -0.02481,-0.0248 -0.05271,-0.10077 -0.04806,-0.12557 -0.141077,-0.18914 -0.09147,-0.0651 -0.229443,-0.0651 -0.241846,0 -0.42323,0.14263 -0.181384,0.14263 -0.229443,0.36897 -0.04961,0.23099 0.06356,0.37827 0.114721,0.14573 0.342614,0.14573 0.10387,0 0.203089,-0.0279 0.100769,-0.0294 0.196887,-0.0868 0.03256,-0.0186 0.09147,-0.0574 0.117822,-0.0822 0.175183,-0.0822 0.04806,0 0.07131,0.031 0.0248,0.0294 0.01395,0.0775 -0.02635,0.12247 -0.285253,0.25115 -0.258899,0.12712 -0.519349,0.12712 -0.336413,0 -0.514697,-0.21549 -0.178284,-0.21549 -0.110071,-0.53795 0.06976,-0.32246 0.337964,-0.53795 0.269751,-0.21704 0.604614,-0.21704 0.117823,0 0.229444,0.0325 0.111621,0.031 0.230993,0.0977 z"
         style="font-style:italic"
         id="path4036-24" />
    </g>
    <g
       aria-label="a"
       id="text542-5-8-4-18"
       style="font-size:3.175px;font-family:Courier;-inkscape-font-specification:'Courier, Normal';fill:#ffffff;stroke-width:0.2;stroke-linecap:round;stroke-linejoin:bevel"
       transform="translate(-0.01893534,-65.093841)">
      <path
         d="m 17.928378,176.01379 q -0.07906,-0.0279 -0.15658,-0.0403 -0.07596,-0.0139 -0.155029,-0.0139 -0.238745,0 -0.393775,0.0806 -0.155029,0.0806 -0.184485,0.21704 -0.0217,0.10542 0.04961,0.17363 0.07131,0.0682 0.204638,0.0682 0.196888,0 0.386023,-0.10232 0.190686,-0.10387 0.213941,-0.21549 z m -0.09147,0.48834 q -0.150378,0.11472 -0.313159,0.17519 -0.162781,0.0605 -0.320911,0.0605 -0.230993,0 -0.345715,-0.12868 -0.114722,-0.12867 -0.06976,-0.33486 0.05116,-0.24495 0.268201,-0.37982 0.217041,-0.13488 0.558105,-0.13488 0.08992,0 0.178284,0.0124 0.08992,0.0109 0.181384,0.0357 l 0.0016,-0.0109 q 0.03876,-0.17828 -0.02946,-0.26355 -0.06666,-0.0853 -0.246497,-0.0853 -0.120923,0 -0.283703,0.0651 -0.162781,0.0651 -0.21084,0.0651 -0.04496,0 -0.06666,-0.0357 -0.0217,-0.0372 -0.0093,-0.0946 0.02015,-0.0915 0.204639,-0.15503 0.184485,-0.0636 0.451135,-0.0636 0.272852,0 0.382923,0.13953 0.11007,0.13798 0.05271,0.40928 l -0.150379,0.70228 h 0.07597 q 0.11007,0 0.142626,0.0232 0.03256,0.0233 0.02015,0.0837 -0.0124,0.0558 -0.04961,0.0837 -0.03566,0.0279 -0.09767,0.0279 h -0.243396 q -0.04341,0 -0.06666,-0.0263 -0.0217,-0.0264 -0.02015,-0.076 z"
         style="font-style:italic"
         id="path4046-2" />
    </g>
    <circle
       style="display:inline;vector-effect:none;fill:#0000ff;fill-opacity:1;fill-rule:evenodd;stroke:none;stroke-width:1;stroke-linecap:butt;stroke-linejoin:miter;stroke-miterlimit:4;stroke-dasharray:none;stroke-dashoffset:0;stroke-opacity:1;paint-order:normal"
       id="path4954-6"
       cx="35.531853"
       cy="121.39558"
       r="4"
       inkscape:label="out4L" />
    <circle
       r="4"
       cy="110.7942"
       cx="23.361012"
       id="circle4956-0"
       style="display:inline;vector-effect:none;fill:#ff0000;fill-opacity:1;fill-rule:evenodd;stroke:none;stroke-width:1;stroke-linecap:butt;stroke-linejoin:miter;stroke-miterlimit:4;stroke-dasharray:none;stroke-dashoffset:0;stroke-opacity:1;paint-order:normal"
       inkscape:label="a4" />
    <circle
       style="display:inline;vector-effect:none;fill:#00ff00;fill-opacity:1;fill-rule:evenodd;stroke:none;stroke-width:1;stroke-linecap:butt;stroke-linejoin:miter;stroke-miterlimit:4;stroke-dasharray:none;stroke-dashoffset:0;stroke-opacity:1;paint-order:normal"
       id="circle4958-39"
       cx="35.320927"
       cy="110.92055"
       r="4"
       inkscape:label="in4L" />
    <circle
       style="display:inline;vector-effect:none;fill:#0000ff;fill-opacity:1;fill-rule:evenodd;stroke:none;stroke-width:1;stroke-linecap:butt;stroke-linejoin:miter;stroke-miterlimit:4;stroke-dasharray:none;stroke-dashoffset:0;stroke-opacity:1;paint-order:normal"
       id="path4954-7-4"
       cx="54.608288"
       cy="121.39558"
       r="4"
       inkscape:label="out4R" />
    <circle
       style="display:inline;vector-effect:none;fill:#00ff00;fill-opacity:1;fill-rule:evenodd;stroke:none;stroke-width:1;stroke-linecap:butt;stroke-linejoin:miter;stroke-miterlimit:4;stroke-dasharray:none;stroke-dashoffset:0;stroke-opacity:1;paint-order:normal"
       id="circle4958-98-9"
       cx="54.397362"
       cy="110.92055"
       r="4"
       inkscape:label="in4R" />
    <circle
       inkscape:label="c4"
       r="4"
       cy="121.39558"
       cx="23.679251"
       id="circle66-6"
       style="display:inline;vector-effect:none;fill:#ff0000;fill-opacity:1;fill-rule:evenodd;stroke:none;stroke-width:1;stroke-linecap:butt;stroke-linejoin:miter;stroke-miterlimit:4;stroke-dasharray:none;stroke-dashoffset:0;stroke-opacity:1;paint-order:normal" />
    <g
       aria-label="out"
       id="text542-5-8-9-4-6-1-5"
       style="font-size:3.175px;font-family:Courier;-inkscape-font-specification:'Courier, Normal';fill:#ffffff;stroke-width:0.2;stroke-linecap:round;stroke-linejoin:bevel"
       transform="translate(-1.0568315,61.653902)">
      <path
         d="m 43.693681,60.278946 q 0.238745,0 0.42323,-0.150378 0.184484,-0.151929 0.234094,-0.386023 0.05116,-0.234095 -0.07131,-0.386023 -0.120923,-0.153479 -0.358117,-0.153479 -0.237195,0 -0.42168,0.153479 -0.184485,0.151928 -0.235645,0.386023 -0.04961,0.235644 0.06976,0.386023 0.120922,0.150378 0.359668,0.150378 z m 0.927075,-0.536401 q -0.06976,0.331762 -0.341065,0.542602 -0.271301,0.21084 -0.632519,0.21084 -0.359668,0 -0.541052,-0.21084 -0.181385,-0.21084 -0.111622,-0.542602 0.07131,-0.331763 0.342615,-0.541053 0.271301,-0.21084 0.630969,-0.21084 0.359668,0 0.541053,0.21084 0.182934,0.21084 0.111621,0.541053 z"
         style="font-style:italic"
         id="path4019-4-1" />
      <path
         d="m 45.296683,59.885172 q -0.04186,0.195336 0.02015,0.285253 0.06356,0.08992 0.241846,0.08992 0.168982,0 0.311609,-0.10697 0.144177,-0.10697 0.178284,-0.2682 l 0.136425,-0.640271 h -0.21239 q -0.06046,0 -0.08217,-0.02481 -0.0217,-0.02635 -0.01085,-0.08061 0.0124,-0.05891 0.04806,-0.08682 0.03566,-0.0279 0.100769,-0.0279 h 0.330212 q 0.05891,0 0.07751,0.02635 0.0186,0.02481 -0.0031,0.124023 l -0.226343,1.063501 h 0.07131 q 0.07596,0 0.10387,0.02481 0.02945,0.02481 0.01705,0.08217 -0.0124,0.05581 -0.04961,0.08371 -0.03721,0.02791 -0.09767,0.02791 H 46.016 q -0.04186,0 -0.06201,-0.01705 -0.02015,-0.01705 -0.01395,-0.04651 l 0.02325,-0.10542 q -0.173632,0.114721 -0.289904,0.15813 -0.114722,0.04186 -0.232544,0.04186 -0.255799,0 -0.355017,-0.134875 -0.09922,-0.136426 -0.04031,-0.410828 l 0.148828,-0.697631 h -0.03256 q -0.10542,0 -0.139526,-0.02481 -0.03256,-0.02481 -0.02015,-0.08682 0.01085,-0.05426 0.04651,-0.08062 0.03721,-0.0279 0.100769,-0.0279 H 45.3835 q 0.05426,0 0.06976,0.0217 0.01705,0.0217 0.0016,0.09612 z"
         style="font-style:italic"
         id="path4021-8-3" />
      <path
         d="m 48.175577,59.111575 q 0.07597,0 0.10542,0.02635 0.02946,0.02636 0.01705,0.08372 -0.0124,0.05426 -0.05116,0.08217 -0.03721,0.02636 -0.102319,0.02636 h -0.627869 l -0.110071,0.517797 q -0.05426,0.254249 -0.0062,0.334864 0.04961,0.08062 0.20929,0.08062 0.141076,0 0.355017,-0.08217 0.21549,-0.08217 0.261999,-0.08217 0.04341,0 0.06666,0.03101 0.02325,0.03101 0.01395,0.07596 -0.01085,0.05116 -0.05736,0.08992 -0.04496,0.03721 -0.144178,0.07286 -0.165881,0.06046 -0.293005,0.08837 -0.127124,0.0279 -0.234094,0.0279 -0.181385,0 -0.293006,-0.05736 -0.11007,-0.05891 -0.147278,-0.173633 -0.0186,-0.05426 -0.01705,-0.128674 0.0031,-0.07441 0.03566,-0.229443 l 0.01085,-0.04806 0.110071,-0.517797 h -0.26355 q -0.06511,0 -0.08992,-0.02481 -0.02325,-0.02636 -0.01085,-0.08372 0.01395,-0.06356 0.05891,-0.08682 0.04496,-0.02325 0.176734,-0.02325 h 0.175183 l 0.06821,-0.31781 0.01705,-0.08217 q 0.01395,-0.06666 0.04961,-0.09767 0.03566,-0.03256 0.09612,-0.03256 0.06821,0 0.08527,0.03876 0.0186,0.03876 -0.01085,0.176734 l -0.06666,0.314709 z"
         style="font-style:italic"
         id="path4023-8-2" />
    </g>
    <g
       aria-label="ref"
       transform="matrix(0.26458333,0,0,0.26458333,25.437661,102.63315)"
       id="text4372-0-4-6"
       style="font-size:12px;font-family:Courier;-inkscape-font-specification:'Courier, Normal';text-align:center;white-space:pre;shape-inside:url(#rect4374-3);fill:#ffffff;stroke-width:1.13386;stroke-linecap:round;stroke-linejoin:bevel;stroke-dasharray:0.283465, 2.26772">
      <path
         d="m 63.383789,33.083984 h 1.945313 q 0.228515,0 0.316406,0.09961 0.08789,0.09375 0.04687,0.304687 -0.05274,0.240235 -0.175781,0.333985 -0.117188,0.08789 -0.392579,0.08789 h -3.832031 q -0.228515,0 -0.328125,-0.105469 -0.09375,-0.105468 -0.04687,-0.316406 0.04102,-0.205078 0.181641,-0.304687 0.140625,-0.09961 0.392578,-0.09961 h 1.019531 l 0.802735,-3.755859 h -0.398438 q -0.568359,0 -0.691406,-0.08789 -0.123047,-0.09375 -0.07031,-0.333984 0.04102,-0.205078 0.175782,-0.304688 0.140625,-0.105468 0.375,-0.105468 h 1.335937 q 0.158203,0 0.222656,0.06445 0.07031,0.05859 0.04687,0.175781 l -0.210937,0.996094 q 0.703125,-0.697266 1.376953,-1.03711 0.679687,-0.339843 1.376953,-0.339843 0.521484,0 0.796875,0.210937 0.28125,0.210938 0.210938,0.544922 -0.04687,0.216797 -0.246094,0.386719 -0.19336,0.164062 -0.386719,0.164062 -0.134766,0 -0.416016,-0.175781 -0.28125,-0.181641 -0.533203,-0.181641 -0.457031,0 -1.037109,0.328125 -0.574219,0.322266 -1.341797,1.025391 z"
         style="font-style:italic"
         id="path4640-1-90" />
      <path
         d="m 69.524414,31.460937 q -0.128906,0.84375 0.292969,1.306641 0.427734,0.457031 1.335937,0.457031 0.685547,0 1.570313,-0.363281 0.890625,-0.369141 1.060547,-0.369141 0.175781,0 0.269531,0.111329 0.09375,0.111328 0.05859,0.27539 -0.03516,0.169922 -0.1875,0.310547 -0.152344,0.140625 -0.451172,0.275391 -0.650391,0.287109 -1.306641,0.439453 -0.65625,0.152344 -1.271484,0.152344 -1.335938,0 -1.97461,-0.767579 -0.638671,-0.773437 -0.36914,-2.044921 0.27539,-1.294922 1.294922,-2.097657 1.019531,-0.802734 2.384765,-0.802734 1.236328,0 1.892578,0.75 0.65625,0.75 0.427735,1.816406 -0.07031,0.328125 -0.234375,0.439453 -0.158203,0.111328 -0.767578,0.111328 h -0.08789 z m 0.193359,-0.767578 h 3.814454 q 0.05859,-0.697265 -0.345704,-1.11914 -0.404296,-0.427735 -1.125,-0.427735 -0.779296,0 -1.40039,0.410157 -0.615235,0.410156 -0.94336,1.136718 z"
         style="font-style:italic"
         id="path4642-0-0" />
      <path
         d="m 80.170898,33.072266 q 0.240235,0 0.339844,0.105468 0.105469,0.105469 0.06445,0.310547 -0.04687,0.210938 -0.1875,0.316406 -0.140625,0.105469 -0.36914,0.105469 H 76.18652 q -0.240234,0 -0.345703,-0.105469 -0.105468,-0.105468 -0.05859,-0.316406 0.04101,-0.205078 0.18164,-0.310547 0.146485,-0.105468 0.375,-0.105468 h 0.996094 l 0.761719,-3.580079 h -0.960938 q -0.240234,0 -0.351562,-0.111328 -0.105469,-0.111328 -0.06445,-0.316406 0.04687,-0.210937 0.193359,-0.316406 0.146484,-0.105469 0.380859,-0.105469 h 0.925782 l 0.08203,-0.398437 q 0.228515,-1.060547 0.93164,-1.535157 0.703125,-0.480468 2.050782,-0.480468 0.65625,0 0.9375,0.146484 0.287109,0.146484 0.216797,0.457031 -0.03516,0.181641 -0.199219,0.298828 -0.158203,0.117188 -0.369141,0.117188 -0.105469,0 -0.492187,-0.07031 -0.386719,-0.07031 -0.673828,-0.07031 -0.66211,0 -1.007813,0.28125 -0.345703,0.27539 -0.480469,0.919922 l -0.07031,0.333984 h 2.074219 q 0.240234,0 0.339843,0.105469 0.105469,0.105469 0.05859,0.316406 -0.04102,0.199219 -0.193359,0.316406 -0.152344,0.111328 -0.375,0.111328 h -2.027344 l -0.761719,3.580079 z"
         style="font-style:italic"
         id="path4644-8-39" />
    </g>
  </g>
</svg>
