<?xml version="1.0" encoding="UTF-8" standalone="no"?>
<!-- Created with Inkscape (http://www.inkscape.org/) -->

<svg
   width="40.639999mm"
   height="128.5mm"
   viewBox="0 0 40.640002 128.50002"
   version="1.1"
   id="svg8"
   inkscape:version="1.2.2 (b0a8486, 2022-12-01)"
   sodipodi:docname="Magnitude.svg"
   xmlns:inkscape="http://www.inkscape.org/namespaces/inkscape"
   xmlns:sodipodi="http://sodipodi.sourceforge.net/DTD/sodipodi-0.dtd"
   xmlns="http://www.w3.org/2000/svg"
   xmlns:svg="http://www.w3.org/2000/svg"
   xmlns:rdf="http://www.w3.org/1999/02/22-rdf-syntax-ns#"
   xmlns:cc="http://creativecommons.org/ns#"
   xmlns:dc="http://purl.org/dc/elements/1.1/">
  <defs
     id="defs2">
    <rect
       x="89.518997"
       y="40.177734"
       width="27.992008"
       height="14.143391"
       id="rect3866" />
    <rect
       x="-13.025984"
       y="68.732852"
       width="29.932048"
       height="17.460362"
       id="rect3860" />
    <rect
       x="-9.7002009"
       y="35.197872"
       width="29.377751"
       height="16.074619"
       id="rect3854" />
    <rect
       x="-26.883414"
       y="34.643575"
       width="56.261165"
       height="29.377751"
       id="rect3798" />
    <rect
       x="241.42645"
       y="129.29953"
       width="129.29953"
       height="44.797848"
       id="rect2594" />
    <rect
       x="39.223248"
       y="127.27922"
       width="52.950508"
       height="12.121831"
       id="rect2108" />
    <rect
       x="241.42645"
       y="129.29953"
       width="129.29953"
       height="44.797848"
       id="rect2594-2" />
    <rect
       x="-9.700201"
       y="35.197872"
       width="29.37775"
       height="16.074619"
       id="rect3854-8" />
    <rect
       x="-13.025984"
       y="68.732849"
       width="29.932049"
       height="17.460361"
       id="rect3860-9" />
    <rect
       x="89.518997"
       y="40.177734"
       width="27.992008"
       height="14.143391"
       id="rect3866-9" />
    <rect
       x="-9.700201"
       y="35.197872"
       width="29.37775"
       height="16.074619"
       id="rect3854-0" />
    <rect
       x="-13.025984"
       y="68.732849"
       width="29.932049"
       height="17.460361"
       id="rect3860-6" />
    <rect
       x="89.518997"
       y="40.177734"
       width="27.992008"
       height="14.143391"
       id="rect3866-0" />
    <rect
       x="-9.700201"
       y="35.197872"
       width="29.37775"
       height="16.074619"
       id="rect3854-8-4" />
    <rect
       x="-13.025984"
       y="68.732849"
       width="29.932049"
       height="17.460361"
       id="rect3860-9-0" />
    <rect
       x="89.518997"
       y="40.177734"
       width="27.992008"
       height="14.143391"
       id="rect3866-9-5" />
    <rect
       x="-9.700201"
       y="35.197872"
       width="29.37775"
       height="16.074619"
       id="rect3854-8-4-7" />
    <rect
       x="-13.025984"
       y="68.732849"
       width="29.932049"
       height="17.460361"
       id="rect3860-9-0-0" />
    <rect
       x="89.518997"
       y="40.177734"
       width="27.992008"
       height="14.143391"
       id="rect3866-9-5-0" />
  </defs>
  <sodipodi:namedview
     id="base"
     pagecolor="#ffffff"
     bordercolor="#666666"
     borderopacity="1.0"
     inkscape:pageopacity="0.0"
     inkscape:pageshadow="2"
     inkscape:zoom="1.5211977"
     inkscape:cx="-195.56958"
     inkscape:cy="289.24577"
     inkscape:document-units="mm"
     inkscape:current-layer="layer2"
     showgrid="false"
     units="mm"
     inkscape:snap-bbox="true"
     inkscape:snap-page="true"
     inkscape:bbox-nodes="false"
     inkscape:snap-bbox-edge-midpoints="false"
     inkscape:window-width="1920"
     inkscape:window-height="1080"
     inkscape:window-x="121"
     inkscape:window-y="42"
     inkscape:window-maximized="0"
     inkscape:snap-bbox-midpoints="true"
     inkscape:snap-nodes="false"
     inkscape:showpageshadow="2"
     inkscape:pagecheckerboard="0"
     inkscape:deskcolor="#d1d1d1" />
  <metadata
     id="metadata5">
    <rdf:RDF>
      <cc:Work
         rdf:about="">
        <dc:format>image/svg+xml</dc:format>
        <dc:type
           rdf:resource="http://purl.org/dc/dcmitype/StillImage" />
      </cc:Work>
    </rdf:RDF>
  </metadata>
  <g
     inkscape:label="Layer 1"
     inkscape:groupmode="layer"
     id="layer1"
     transform="translate(0,-168.49998)">
    <rect
       style="display:inline;opacity:1;vector-effect:none;fill:#d100d1;fill-opacity:1;fill-rule:evenodd;stroke:none;stroke-width:0.749814;stroke-linecap:butt;stroke-linejoin:miter;stroke-miterlimit:4;stroke-dasharray:none;stroke-dashoffset:0;stroke-opacity:1;paint-order:normal"
       id="rect420"
       width="40.639999"
       height="128.5"
       x="0"
       y="168.49998" />
    <path
       style="fill:#ffffff;fill-opacity:1;stroke:#ffffff;stroke-width:0.244949;stroke-linecap:round;stroke-linejoin:bevel;stroke-dasharray:none;stroke-opacity:1"
       d="M 40.639999,195.04088 H 3.8964843e-7 Z"
       id="path1321-5" />
    <text
       xml:space="preserve"
       transform="matrix(0.26458333,0,0,0.26458333,0,168.49998)"
       id="text3796"
       style="font-size:12px;font-family:Courier;-inkscape-font-specification:'Courier, Normal';text-align:center;white-space:pre;shape-inside:url(#rect3798);display:inline;fill:#ffffff;stroke-width:1.13386;stroke-linecap:round;stroke-linejoin:bevel;stroke-dasharray:none" />
    <g
       aria-label="re"
       transform="matrix(0.26458333,0,0,0.26458333,3.7041668,165.01145)"
       id="text3852"
       style="font-size:12px;font-family:Courier;-inkscape-font-specification:'Courier, Normal';text-align:center;text-anchor:middle;white-space:pre;shape-inside:url(#rect3854);display:inline;fill:#ffffff;stroke-width:1.13386;stroke-linecap:round;stroke-linejoin:bevel">
      <path
         d="M 0.98046875,44.917969 H 2.9257813 q 0.2285156,0 0.3164062,0.09961 0.087891,0.09375 0.046875,0.304688 -0.052734,0.240234 -0.1757812,0.333984 -0.1171875,0.08789 -0.3925782,0.08789 h -3.8320312 q -0.2285156,0 -0.328125,-0.105469 -0.09375,-0.105469 -0.046875,-0.316406 0.041016,-0.205079 0.1816406,-0.304688 0.140625,-0.09961 0.39257812,-0.09961 h 1.01953125 l 0.80273438,-3.75586 h -0.3984375 q -0.56835937,0 -0.69140625,-0.08789 -0.12304688,-0.09375 -0.0703125,-0.333985 0.0410156,-0.205078 0.17578125,-0.304687 0.140625,-0.105469 0.375,-0.105469 H 1.6367187 q 0.1582032,0 0.2226563,0.06445 0.070312,0.05859 0.046875,0.175781 l -0.2109375,0.996094 q 0.703125,-0.697265 1.3769531,-1.037109 0.6796875,-0.339844 1.3769531,-0.339844 0.5214844,0 0.796875,0.210938 0.28125,0.210937 0.2109375,0.544921 -0.046875,0.216797 -0.2460937,0.386719 -0.1933594,0.164063 -0.3867188,0.164063 -0.1347656,0 -0.4160156,-0.175782 -0.28125,-0.18164 -0.5332031,-0.18164 -0.4570312,0 -1.0371094,0.328125 -0.5742187,0.322265 -1.3417969,1.02539 z"
         style="font-style:italic"
         id="path5686" />
      <path
         d="m 7.1210937,43.294922 q -0.1289062,0.84375 0.2929688,1.30664 0.4277344,0.457032 1.3359375,0.457032 0.6855469,0 1.570313,-0.363282 0.890625,-0.36914 1.060546,-0.36914 0.175782,0 0.269532,0.111328 0.09375,0.111328 0.05859,0.275391 -0.03516,0.169921 -0.1875,0.310546 -0.152343,0.140625 -0.451171,0.275391 -0.650391,0.287109 -1.3066411,0.439453 -0.65625,0.152344 -1.2714844,0.152344 -1.3359375,0 -1.9746094,-0.767578 -0.6386719,-0.773438 -0.3691406,-2.044922 0.2753906,-1.294922 1.2949219,-2.097656 1.0195312,-0.802735 2.3847656,-0.802735 1.236328,0 1.892578,0.75 0.65625,0.75 0.427735,1.816407 -0.07031,0.328125 -0.234375,0.439453 -0.158204,0.111328 -0.767579,0.111328 h -0.08789 z m 0.1933594,-0.767578 h 3.8144529 q 0.05859,-0.697266 -0.345703,-1.119141 -0.404297,-0.427734 -1.1249999,-0.427734 -0.7792968,0 -1.4003906,0.410156 -0.6152344,0.410156 -0.9433594,1.136719 z"
         style="font-style:italic"
         id="path5688" />
    </g>
    <g
       aria-label="im"
       transform="matrix(0.26458333,0,0,0.26458333,4.7625002,166.59896)"
       id="text3858"
       style="font-size:12px;font-family:Courier;-inkscape-font-specification:'Courier, Normal';text-align:center;text-anchor:middle;white-space:pre;shape-inside:url(#rect3860);display:inline;fill:#ffffff;stroke-width:1.13386;stroke-linecap:round;stroke-linejoin:bevel">
      <path
         d="m -0.69628906,72.177734 q 0.13476562,-0.632812 0.28125,-0.796875 0.15234375,-0.164062 0.52734375,-0.164062 0.36328125,0 0.45117187,0.140625 0.0878906,0.134765 -0.0234375,0.65039 -0.10546875,0.503907 -0.24023437,0.626954 -0.13476563,0.117187 -0.515625,0.117187 -0.375,0 -0.46875,-0.111328 -0.0878906,-0.111328 -0.0117188,-0.462891 z m -0.25195313,6.275391 h 1.88085938 q 0.22851561,0 0.31640621,0.09961 0.087891,0.09375 0.046875,0.304688 -0.052734,0.240234 -0.1757812,0.333984 -0.1171875,0.08789 -0.39257814,0.08789 H -3.8193359 q -0.234375,0 -0.3339844,-0.105469 -0.09375,-0.105469 -0.046875,-0.316406 0.041016,-0.205078 0.1816406,-0.304688 0.1464844,-0.09961 0.3925781,-0.09961 h 1.7871094 l 0.8027344,-3.755859 h -1.1425781 q -0.2402344,0 -0.3457032,-0.105469 -0.099609,-0.111328 -0.058594,-0.316406 0.041016,-0.205079 0.1816406,-0.304688 0.140625,-0.105469 0.375,-0.105469 h 1.71679689 q 0.15820312,0 0.234375,0.06445 0.0761718725,0.06445 0.05273437,0.175782 z"
         style="font-style:italic"
         id="path5691" />
      <path
         d="m 8.4033203,76.015625 q 0.1757813,-0.826172 0.087891,-1.113281 -0.087891,-0.292969 -0.4511718,-0.292969 -0.4335938,0 -0.7675782,0.375 -0.3339843,0.375 -0.4746093,1.03125 l -0.5214844,2.4375 h 0.1054687 q 0.3574219,0 0.4570313,0.08789 0.1054687,0.08203 0.058594,0.316406 -0.046875,0.210937 -0.1699218,0.316406 -0.1171875,0.105469 -0.3222657,0.105469 H 5.6611328 q -0.2519531,0 -0.3222656,-0.117188 -0.064453,-0.117187 0.017578,-0.503906 l 0.035156,-0.169922 0.5273437,-2.472656 0.09375,-0.457031 q 0.09375,-0.439453 -0.052734,-0.691407 -0.140625,-0.257812 -0.4863281,-0.257812 -0.2636719,0 -0.515625,0.158203 -0.2519531,0.152344 -0.4746094,0.457031 l -0.6914062,3.228516 h 0.2167969 q 0.3515625,0 0.4570312,0.08789 0.1054688,0.08789 0.058594,0.316406 -0.052734,0.240234 -0.1699219,0.333984 -0.1171875,0.08789 -0.3984375,0.08789 H 2.3974609 q -0.2285156,0 -0.3164062,-0.09961 -0.087891,-0.105468 -0.041016,-0.322265 0.046875,-0.234375 0.1992187,-0.316406 0.1582031,-0.08789 0.5566406,-0.08789 H 2.9130859 L 3.7158203,74.697266 H 3.6103516 q -0.4101563,0 -0.5390625,-0.09375 -0.1289063,-0.09375 -0.082031,-0.328125 0.041016,-0.205079 0.1816406,-0.304688 0.140625,-0.105469 0.375,-0.105469 h 0.8964844 q 0.1933594,0 0.2402344,0.07031 0.046875,0.06445 0.011719,0.28125 0.2988282,-0.257813 0.5976563,-0.38086 0.2988281,-0.123046 0.6445312,-0.123046 0.4101563,0 0.6386719,0.18164 0.2285156,0.175781 0.28125,0.539063 0.328125,-0.369141 0.6855469,-0.544922 0.3574219,-0.175781 0.7734375,-0.175781 0.7558594,0 1.0019531,0.492187 0.2460938,0.492188 0.011719,1.59375 l -0.5683594,2.654297 h 0.09375 q 0.3632812,0 0.46875,0.08789 0.1054687,0.08789 0.058594,0.316406 -0.046875,0.210937 -0.1757812,0.316406 -0.1230469,0.105469 -0.328125,0.105469 H 8.1689453 q -0.234375,0 -0.3164062,-0.140625 -0.082031,-0.140625 -0.017578,-0.445313 z"
         style="font-style:italic"
         id="path5693" />
    </g>
    <g
       aria-label="mag"
       transform="matrix(0.26458333,0,0,0.26458333,6.1557493,163.73972)"
       id="text3864"
       style="font-size:12px;font-family:Courier;-inkscape-font-specification:'Courier, Normal';text-align:center;text-anchor:middle;white-space:pre;shape-inside:url(#rect3866);display:inline;fill:#ffffff;stroke-width:1.13386;stroke-linecap:round;stroke-linejoin:bevel">
      <path
         d="m 99.176758,47.460937 q 0.175781,-0.826171 0.08789,-1.113281 -0.08789,-0.292969 -0.451171,-0.292969 -0.433594,0 -0.767579,0.375 -0.333984,0.375 -0.474609,1.03125 l -0.521484,2.4375 h 0.105468 q 0.357422,0 0.457032,0.08789 0.105468,0.08203 0.05859,0.316406 -0.04687,0.210938 -0.169921,0.316407 -0.117188,0.105468 -0.322266,0.105468 H 96.43457 q -0.251953,0 -0.322265,-0.117187 -0.06445,-0.117188 0.01758,-0.503906 l 0.03516,-0.169922 0.527344,-2.472657 0.09375,-0.457031 q 0.09375,-0.439453 -0.05274,-0.691406 -0.140625,-0.257813 -0.486328,-0.257813 -0.263672,0 -0.515625,0.158204 -0.251953,0.152343 -0.474609,0.457031 l -0.691406,3.228515 h 0.216797 q 0.351562,0 0.457031,0.08789 0.105469,0.08789 0.05859,0.316406 -0.05274,0.240235 -0.169922,0.333985 -0.117188,0.08789 -0.398438,0.08789 h -1.558594 q -0.228515,0 -0.316406,-0.09961 -0.08789,-0.105469 -0.04101,-0.322266 0.04687,-0.234375 0.199218,-0.316406 0.158203,-0.08789 0.556641,-0.08789 h 0.117187 l 0.802735,-3.755859 h -0.105469 q -0.410156,0 -0.539062,-0.09375 -0.128907,-0.09375 -0.08203,-0.328125 0.04102,-0.205078 0.181641,-0.304687 0.140625,-0.105469 0.375,-0.105469 h 0.896484 q 0.19336,0 0.240235,0.07031 0.04687,0.06445 0.01172,0.28125 0.298829,-0.257812 0.597657,-0.380859 0.298828,-0.123047 0.644531,-0.123047 0.410156,0 0.638672,0.181641 0.228515,0.175781 0.28125,0.539062 0.328125,-0.36914 0.685547,-0.544922 0.357422,-0.175781 0.773437,-0.175781 0.75586,0 1.001953,0.492188 0.24609,0.492187 0.0117,1.59375 l -0.56836,2.654296 h 0.09375 q 0.363281,0 0.46875,0.08789 0.10547,0.08789 0.0586,0.316406 -0.0469,0.210938 -0.175778,0.316407 -0.123047,0.105468 -0.328125,0.105468 h -0.708984 q -0.234375,0 -0.316406,-0.140625 -0.08203,-0.140625 -0.01758,-0.445312 z"
         style="font-style:italic"
         id="path5679" />
      <path
         d="m 105.3584,48.134766 q -0.29883,-0.105469 -0.5918,-0.152344 -0.28711,-0.05273 -0.58594,-0.05273 -0.90234,0 -1.48828,0.304688 -0.58593,0.304687 -0.69726,0.820312 -0.082,0.398438 0.1875,0.65625 0.26953,0.257813 0.77343,0.257813 0.74415,0 1.45899,-0.386719 0.7207,-0.392578 0.80859,-0.814453 z m -0.3457,1.845703 q -0.56836,0.433593 -1.1836,0.662109 -0.61523,0.228516 -1.21289,0.228516 -0.87305,0 -1.30664,-0.486328 -0.43359,-0.486329 -0.26367,-1.265625 0.19336,-0.925782 1.01367,-1.435547 0.82031,-0.509766 2.10938,-0.509766 0.33984,0 0.67382,0.04687 0.33985,0.04102 0.68555,0.134766 l 0.006,-0.04102 q 0.14648,-0.673828 -0.11133,-0.996094 -0.25195,-0.322265 -0.93164,-0.322265 -0.45703,0 -1.07226,0.246093 -0.61524,0.246094 -0.79688,0.246094 -0.16992,0 -0.25195,-0.134765 -0.082,-0.140625 -0.0352,-0.357422 0.0762,-0.345703 0.77344,-0.585938 0.69726,-0.240234 1.70508,-0.240234 1.03125,0 1.44726,0.527344 0.41602,0.521484 0.19922,1.546875 l -0.56836,2.654296 h 0.28711 q 0.41602,0 0.53906,0.08789 0.12305,0.08789 0.0762,0.316406 -0.0469,0.210938 -0.1875,0.316407 -0.13477,0.105468 -0.36915,0.105468 h -0.91992 q -0.16406,0 -0.25195,-0.09961 -0.082,-0.09961 -0.0762,-0.287109 z"
         style="font-style:italic"
         id="path5681" />
      <path
         d="m 111.51074,46.177734 q -0.76758,0 -1.35351,0.47461 -0.58594,0.474609 -0.74414,1.230468 -0.15821,0.744141 0.22265,1.22461 0.38672,0.474609 1.1543,0.474609 0.76172,0 1.35351,-0.474609 0.5918,-0.480469 0.75,-1.22461 0.15821,-0.74414 -0.23437,-1.224609 -0.38672,-0.480469 -1.14844,-0.480469 z m 1.64649,4.236328 q -0.17578,0.820313 -0.33399,1.160157 -0.15234,0.345703 -0.40429,0.603515 -0.42188,0.433594 -1.06055,0.65625 -0.63867,0.228516 -1.44141,0.228516 -0.66797,0 -0.94922,-0.128906 -0.28125,-0.128907 -0.22265,-0.410157 0.041,-0.18164 0.21679,-0.322265 0.18164,-0.134766 0.38672,-0.134766 0.15821,0 0.47461,0.04102 0.32227,0.04687 0.49219,0.04687 0.86719,0 1.3125,-0.398438 0.45117,-0.398437 0.65625,-1.365234 l 0.14648,-0.708984 q -0.44531,0.416015 -0.91992,0.609375 -0.47461,0.193359 -1.03711,0.193359 -1.0957,0 -1.6582,-0.726563 -0.5625,-0.732421 -0.32227,-1.851562 0.24024,-1.125 1.13086,-1.863281 0.89649,-0.744141 1.98633,-0.744141 0.45117,0 0.84375,0.169922 0.39844,0.164062 0.76758,0.503906 l 0.0879,-0.421875 q 0.0293,-0.123047 0.11719,-0.18164 0.0937,-0.05859 0.26367,-0.05859 h 0.88477 q 0.23437,0 0.32812,0.105469 0.0937,0.09961 0.0527,0.304687 -0.0469,0.234375 -0.21679,0.328125 -0.16406,0.09375 -0.56836,0.09375 h -0.10547 z"
         style="font-style:italic"
         id="path5683" />
    </g>
    <path
       style="fill:none;fill-opacity:1;stroke:#ffffff;stroke-width:0.3;stroke-linecap:round;stroke-linejoin:bevel;stroke-dasharray:0.075, 0.6;stroke-dashoffset:0;stroke-opacity:1"
       d="m 18.958472,168.64998 v 128.5 z"
       id="path1321" />
  </g>
  <g
     inkscape:groupmode="layer"
     id="layer2"
     inkscape:label="components">
    <circle
       style="display:inline;vector-effect:none;fill:#0000ff;fill-opacity:1;fill-rule:evenodd;stroke:none;stroke-width:1;stroke-linecap:butt;stroke-linejoin:miter;stroke-miterlimit:4;stroke-dasharray:none;stroke-dashoffset:0;stroke-opacity:1;paint-order:normal"
       id="circle4958-09"
       cx="24.699303"
       cy="8.0861683"
       r="4"
       inkscape:label="mag0" />
    <circle
       style="display:inline;vector-effect:none;fill:#00ff00;fill-opacity:1;fill-rule:evenodd;stroke:none;stroke-width:1;stroke-linecap:butt;stroke-linejoin:miter;stroke-miterlimit:4;stroke-dasharray:none;stroke-dashoffset:0;stroke-opacity:1;paint-order:normal"
       id="path4954-1"
       cx="12.997351"
       cy="8.2335157"
       r="4"
       inkscape:label="re0" />
    <circle
       style="display:inline;vector-effect:none;fill:#00ff00;fill-opacity:1;fill-rule:evenodd;stroke:none;stroke-width:1;stroke-linecap:butt;stroke-linejoin:miter;stroke-miterlimit:4;stroke-dasharray:none;stroke-dashoffset:0;stroke-opacity:1;paint-order:normal"
       id="path4954-03-0"
       cx="12.997351"
       cy="17.834759"
       r="4"
       inkscape:label="im0" />
    <path
       style="fill:#ffffff;fill-opacity:1;stroke:#ffffff;stroke-width:0.244949;stroke-linecap:round;stroke-linejoin:bevel;stroke-dasharray:none;stroke-opacity:1"
       d="M 40.639999,51.074524 H 8.2214351e-8 Z"
       id="path1321-5-9" />
    <g
       aria-label="re"
       transform="matrix(0.26458333,0,0,0.26458333,3.7041666,22.313493)"
       id="text3852-3"
       style="font-size:12px;font-family:Courier;-inkscape-font-specification:'Courier, Normal';text-align:center;white-space:pre;shape-inside:url(#rect3854-8);display:inline;fill:#ffffff;stroke-width:1.13386;stroke-linecap:round;stroke-linejoin:bevel">
      <path
         d="M 0.98046875,44.917969 H 2.9257813 q 0.2285156,0 0.3164062,0.09961 0.087891,0.09375 0.046875,0.304688 -0.052734,0.240234 -0.1757812,0.333984 -0.1171875,0.08789 -0.3925782,0.08789 h -3.8320312 q -0.2285156,0 -0.328125,-0.105469 -0.09375,-0.105469 -0.046875,-0.316406 0.041016,-0.205079 0.1816406,-0.304688 0.140625,-0.09961 0.39257812,-0.09961 h 1.01953125 l 0.80273438,-3.75586 h -0.3984375 q -0.56835937,0 -0.69140625,-0.08789 -0.12304688,-0.09375 -0.0703125,-0.333985 0.0410156,-0.205078 0.17578125,-0.304687 0.140625,-0.105469 0.375,-0.105469 H 1.6367187 q 0.1582032,0 0.2226563,0.06445 0.070312,0.05859 0.046875,0.175781 l -0.2109375,0.996094 q 0.703125,-0.697265 1.3769531,-1.037109 0.6796875,-0.339844 1.3769531,-0.339844 0.5214844,0 0.796875,0.210938 0.28125,0.210937 0.2109375,0.544921 -0.046875,0.216797 -0.2460937,0.386719 -0.1933594,0.164063 -0.3867188,0.164063 -0.1347656,0 -0.4160156,-0.175782 -0.28125,-0.18164 -0.5332031,-0.18164 -0.4570312,0 -1.0371094,0.328125 -0.5742187,0.322265 -1.3417969,1.02539 z"
         style="font-style:italic"
         id="path5696" />
      <path
         d="m 7.1210937,43.294922 q -0.1289062,0.84375 0.2929688,1.30664 0.4277344,0.457032 1.3359375,0.457032 0.6855469,0 1.570313,-0.363282 0.890625,-0.36914 1.060546,-0.36914 0.175782,0 0.269532,0.111328 0.09375,0.111328 0.05859,0.275391 -0.03516,0.169921 -0.1875,0.310546 -0.152343,0.140625 -0.451171,0.275391 -0.650391,0.287109 -1.3066411,0.439453 -0.65625,0.152344 -1.2714844,0.152344 -1.3359375,0 -1.9746094,-0.767578 -0.6386719,-0.773438 -0.3691406,-2.044922 0.2753906,-1.294922 1.2949219,-2.097656 1.0195312,-0.802735 2.3847656,-0.802735 1.236328,0 1.892578,0.75 0.65625,0.75 0.427735,1.816407 -0.07031,0.328125 -0.234375,0.439453 -0.158204,0.111328 -0.767579,0.111328 h -0.08789 z m 0.1933594,-0.767578 h 3.8144529 q 0.05859,-0.697266 -0.345703,-1.119141 -0.404297,-0.427734 -1.1249999,-0.427734 -0.7792968,0 -1.4003906,0.410156 -0.6152344,0.410156 -0.9433594,1.136719 z"
         style="font-style:italic"
         id="path5698" />
    </g>
    <g
       aria-label="im"
       transform="matrix(0.26458333,0,0,0.26458333,4.7625,23.901004)"
       id="text3858-3"
       style="font-size:12px;font-family:Courier;-inkscape-font-specification:'Courier, Normal';text-align:center;white-space:pre;shape-inside:url(#rect3860-9);display:inline;fill:#ffffff;stroke-width:1.13386;stroke-linecap:round;stroke-linejoin:bevel">
      <path
         d="m -0.69628906,72.177734 q 0.13476562,-0.632812 0.28125,-0.796875 0.15234375,-0.164062 0.52734375,-0.164062 0.36328125,0 0.45117187,0.140625 0.0878906,0.134765 -0.0234375,0.65039 -0.10546875,0.503907 -0.24023437,0.626954 -0.13476563,0.117187 -0.515625,0.117187 -0.375,0 -0.46875,-0.111328 -0.0878906,-0.111328 -0.0117188,-0.462891 z m -0.25195313,6.275391 h 1.88085938 q 0.22851561,0 0.31640621,0.09961 0.087891,0.09375 0.046875,0.304688 -0.052734,0.240234 -0.1757812,0.333984 -0.1171875,0.08789 -0.39257814,0.08789 H -3.8193359 q -0.234375,0 -0.3339844,-0.105469 -0.09375,-0.105469 -0.046875,-0.316406 0.041016,-0.205078 0.1816406,-0.304688 0.1464844,-0.09961 0.3925781,-0.09961 h 1.7871094 l 0.8027344,-3.755859 h -1.1425781 q -0.2402344,0 -0.3457032,-0.105469 -0.099609,-0.111328 -0.058594,-0.316406 0.041016,-0.205079 0.1816406,-0.304688 0.140625,-0.105469 0.375,-0.105469 h 1.71679689 q 0.15820312,0 0.234375,0.06445 0.0761718725,0.06445 0.05273437,0.175782 z"
         style="font-style:italic"
         id="path5701" />
      <path
         d="m 8.4033203,76.015625 q 0.1757813,-0.826172 0.087891,-1.113281 -0.087891,-0.292969 -0.4511718,-0.292969 -0.4335938,0 -0.7675782,0.375 -0.3339843,0.375 -0.4746093,1.03125 l -0.5214844,2.4375 h 0.1054687 q 0.3574219,0 0.4570313,0.08789 0.1054687,0.08203 0.058594,0.316406 -0.046875,0.210937 -0.1699218,0.316406 -0.1171875,0.105469 -0.3222657,0.105469 H 5.6611328 q -0.2519531,0 -0.3222656,-0.117188 -0.064453,-0.117187 0.017578,-0.503906 l 0.035156,-0.169922 0.5273437,-2.472656 0.09375,-0.457031 q 0.09375,-0.439453 -0.052734,-0.691407 -0.140625,-0.257812 -0.4863281,-0.257812 -0.2636719,0 -0.515625,0.158203 -0.2519531,0.152344 -0.4746094,0.457031 l -0.6914062,3.228516 h 0.2167969 q 0.3515625,0 0.4570312,0.08789 0.1054688,0.08789 0.058594,0.316406 -0.052734,0.240234 -0.1699219,0.333984 -0.1171875,0.08789 -0.3984375,0.08789 H 2.3974609 q -0.2285156,0 -0.3164062,-0.09961 -0.087891,-0.105468 -0.041016,-0.322265 0.046875,-0.234375 0.1992187,-0.316406 0.1582031,-0.08789 0.5566406,-0.08789 H 2.9130859 L 3.7158203,74.697266 H 3.6103516 q -0.4101563,0 -0.5390625,-0.09375 -0.1289063,-0.09375 -0.082031,-0.328125 0.041016,-0.205079 0.1816406,-0.304688 0.140625,-0.105469 0.375,-0.105469 h 0.8964844 q 0.1933594,0 0.2402344,0.07031 0.046875,0.06445 0.011719,0.28125 0.2988282,-0.257813 0.5976563,-0.38086 0.2988281,-0.123046 0.6445312,-0.123046 0.4101563,0 0.6386719,0.18164 0.2285156,0.175781 0.28125,0.539063 0.328125,-0.369141 0.6855469,-0.544922 0.3574219,-0.175781 0.7734375,-0.175781 0.7558594,0 1.0019531,0.492187 0.2460938,0.492188 0.011719,1.59375 l -0.5683594,2.654297 h 0.09375 q 0.3632812,0 0.46875,0.08789 0.1054687,0.08789 0.058594,0.316406 -0.046875,0.210937 -0.1757812,0.316406 -0.1230469,0.105469 -0.328125,0.105469 H 8.1689453 q -0.234375,0 -0.3164062,-0.140625 -0.082031,-0.140625 -0.017578,-0.445313 z"
         style="font-style:italic"
         id="path5703" />
    </g>
    <g
       aria-label="mag"
       transform="matrix(0.26458333,0,0,0.26458333,6.1557491,21.041762)"
       id="text3864-7"
       style="font-size:12px;font-family:Courier;-inkscape-font-specification:'Courier, Normal';text-align:center;white-space:pre;shape-inside:url(#rect3866-9);display:inline;fill:#ffffff;stroke-width:1.13386;stroke-linecap:round;stroke-linejoin:bevel">
      <path
         d="m 99.176758,47.460937 q 0.175781,-0.826171 0.08789,-1.113281 -0.08789,-0.292969 -0.451171,-0.292969 -0.433594,0 -0.767579,0.375 -0.333984,0.375 -0.474609,1.03125 l -0.521484,2.4375 h 0.105468 q 0.357422,0 0.457032,0.08789 0.105468,0.08203 0.05859,0.316406 -0.04687,0.210938 -0.169921,0.316407 -0.117188,0.105468 -0.322266,0.105468 H 96.43457 q -0.251953,0 -0.322265,-0.117187 -0.06445,-0.117188 0.01758,-0.503906 l 0.03516,-0.169922 0.527344,-2.472657 0.09375,-0.457031 q 0.09375,-0.439453 -0.05274,-0.691406 -0.140625,-0.257813 -0.486328,-0.257813 -0.263672,0 -0.515625,0.158204 -0.251953,0.152343 -0.474609,0.457031 l -0.691406,3.228515 h 0.216797 q 0.351562,0 0.457031,0.08789 0.105469,0.08789 0.05859,0.316406 -0.05274,0.240235 -0.169922,0.333985 -0.117188,0.08789 -0.398438,0.08789 h -1.558594 q -0.228515,0 -0.316406,-0.09961 -0.08789,-0.105469 -0.04101,-0.322266 0.04687,-0.234375 0.199218,-0.316406 0.158203,-0.08789 0.556641,-0.08789 h 0.117187 l 0.802735,-3.755859 h -0.105469 q -0.410156,0 -0.539062,-0.09375 -0.128907,-0.09375 -0.08203,-0.328125 0.04102,-0.205078 0.181641,-0.304687 0.140625,-0.105469 0.375,-0.105469 h 0.896484 q 0.19336,0 0.240235,0.07031 0.04687,0.06445 0.01172,0.28125 0.298829,-0.257812 0.597657,-0.380859 0.298828,-0.123047 0.644531,-0.123047 0.410156,0 0.638672,0.181641 0.228515,0.175781 0.28125,0.539062 0.328125,-0.36914 0.685547,-0.544922 0.357422,-0.175781 0.773437,-0.175781 0.75586,0 1.001953,0.492188 0.24609,0.492187 0.0117,1.59375 l -0.56836,2.654296 h 0.09375 q 0.363281,0 0.46875,0.08789 0.10547,0.08789 0.0586,0.316406 -0.0469,0.210938 -0.175778,0.316407 -0.123047,0.105468 -0.328125,0.105468 h -0.708984 q -0.234375,0 -0.316406,-0.140625 -0.08203,-0.140625 -0.01758,-0.445312 z"
         style="font-style:italic"
         id="path5706" />
      <path
         d="m 105.3584,48.134766 q -0.29883,-0.105469 -0.5918,-0.152344 -0.28711,-0.05273 -0.58594,-0.05273 -0.90234,0 -1.48828,0.304688 -0.58593,0.304687 -0.69726,0.820312 -0.082,0.398438 0.1875,0.65625 0.26953,0.257813 0.77343,0.257813 0.74415,0 1.45899,-0.386719 0.7207,-0.392578 0.80859,-0.814453 z m -0.3457,1.845703 q -0.56836,0.433593 -1.1836,0.662109 -0.61523,0.228516 -1.21289,0.228516 -0.87305,0 -1.30664,-0.486328 -0.43359,-0.486329 -0.26367,-1.265625 0.19336,-0.925782 1.01367,-1.435547 0.82031,-0.509766 2.10938,-0.509766 0.33984,0 0.67382,0.04687 0.33985,0.04102 0.68555,0.134766 l 0.006,-0.04102 q 0.14648,-0.673828 -0.11133,-0.996094 -0.25195,-0.322265 -0.93164,-0.322265 -0.45703,0 -1.07226,0.246093 -0.61524,0.246094 -0.79688,0.246094 -0.16992,0 -0.25195,-0.134765 -0.082,-0.140625 -0.0352,-0.357422 0.0762,-0.345703 0.77344,-0.585938 0.69726,-0.240234 1.70508,-0.240234 1.03125,0 1.44726,0.527344 0.41602,0.521484 0.19922,1.546875 l -0.56836,2.654296 h 0.28711 q 0.41602,0 0.53906,0.08789 0.12305,0.08789 0.0762,0.316406 -0.0469,0.210938 -0.1875,0.316407 -0.13477,0.105468 -0.36915,0.105468 h -0.91992 q -0.16406,0 -0.25195,-0.09961 -0.082,-0.09961 -0.0762,-0.287109 z"
         style="font-style:italic"
         id="path5708" />
      <path
         d="m 111.51074,46.177734 q -0.76758,0 -1.35351,0.47461 -0.58594,0.474609 -0.74414,1.230468 -0.15821,0.744141 0.22265,1.22461 0.38672,0.474609 1.1543,0.474609 0.76172,0 1.35351,-0.474609 0.5918,-0.480469 0.75,-1.22461 0.15821,-0.74414 -0.23437,-1.224609 -0.38672,-0.480469 -1.14844,-0.480469 z m 1.64649,4.236328 q -0.17578,0.820313 -0.33399,1.160157 -0.15234,0.345703 -0.40429,0.603515 -0.42188,0.433594 -1.06055,0.65625 -0.63867,0.228516 -1.44141,0.228516 -0.66797,0 -0.94922,-0.128906 -0.28125,-0.128907 -0.22265,-0.410157 0.041,-0.18164 0.21679,-0.322265 0.18164,-0.134766 0.38672,-0.134766 0.15821,0 0.47461,0.04102 0.32227,0.04687 0.49219,0.04687 0.86719,0 1.3125,-0.398438 0.45117,-0.398437 0.65625,-1.365234 l 0.14648,-0.708984 q -0.44531,0.416015 -0.91992,0.609375 -0.47461,0.193359 -1.03711,0.193359 -1.0957,0 -1.6582,-0.726563 -0.5625,-0.732421 -0.32227,-1.851562 0.24024,-1.125 1.13086,-1.863281 0.89649,-0.744141 1.98633,-0.744141 0.45117,0 0.84375,0.169922 0.39844,0.164062 0.76758,0.503906 l 0.0879,-0.421875 q 0.0293,-0.123047 0.11719,-0.18164 0.0937,-0.05859 0.26367,-0.05859 h 0.88477 q 0.23437,0 0.32812,0.105469 0.0937,0.09961 0.0527,0.304687 -0.0469,0.234375 -0.21679,0.328125 -0.16406,0.09375 -0.56836,0.09375 h -0.10547 z"
         style="font-style:italic"
         id="path5710" />
    </g>
    <circle
       style="display:inline;vector-effect:none;fill:#0000ff;fill-opacity:1;fill-rule:evenodd;stroke:none;stroke-width:1;stroke-linecap:butt;stroke-linejoin:miter;stroke-miterlimit:4;stroke-dasharray:none;stroke-dashoffset:0;stroke-opacity:1;paint-order:normal"
       id="circle4958-09-7"
       cx="24.699303"
       cy="33.888206"
       r="4"
       inkscape:label="mag1" />
    <circle
       style="display:inline;vector-effect:none;fill:#00ff00;fill-opacity:1;fill-rule:evenodd;stroke:none;stroke-width:1;stroke-linecap:butt;stroke-linejoin:miter;stroke-miterlimit:4;stroke-dasharray:none;stroke-dashoffset:0;stroke-opacity:1;paint-order:normal"
       id="path4954-1-3"
       cx="12.997351"
       cy="34.035553"
       r="4"
       inkscape:label="re1" />
    <circle
       style="display:inline;vector-effect:none;fill:#00ff00;fill-opacity:1;fill-rule:evenodd;stroke:none;stroke-width:1;stroke-linecap:butt;stroke-linejoin:miter;stroke-miterlimit:4;stroke-dasharray:none;stroke-dashoffset:0;stroke-opacity:1;paint-order:normal"
       id="path4954-03-0-2"
       cx="12.997351"
       cy="43.636806"
       r="4"
       inkscape:label="im1" />
    <path
       style="fill:#ffffff;fill-opacity:1;stroke:#ffffff;stroke-width:0.244949;stroke-linecap:round;stroke-linejoin:bevel;stroke-dasharray:none;stroke-opacity:1"
       d="M 40.639999,77.023916 H -1.4526367e-7 Z"
       id="path1321-5-6" />
    <g
       aria-label="re"
       transform="matrix(0.26458333,0,0,0.26458333,3.7041664,46.675387)"
       id="text3852-8"
       style="font-size:12px;font-family:Courier;-inkscape-font-specification:'Courier, Normal';text-align:center;white-space:pre;shape-inside:url(#rect3854-0);display:inline;fill:#ffffff;stroke-width:1.13386;stroke-linecap:round;stroke-linejoin:bevel">
      <path
         d="M 0.98046875,44.917969 H 2.9257813 q 0.2285156,0 0.3164062,0.09961 0.087891,0.09375 0.046875,0.304688 -0.052734,0.240234 -0.1757812,0.333984 -0.1171875,0.08789 -0.3925782,0.08789 h -3.8320312 q -0.2285156,0 -0.328125,-0.105469 -0.09375,-0.105469 -0.046875,-0.316406 0.041016,-0.205079 0.1816406,-0.304688 0.140625,-0.09961 0.39257812,-0.09961 h 1.01953125 l 0.80273438,-3.75586 h -0.3984375 q -0.56835937,0 -0.69140625,-0.08789 -0.12304688,-0.09375 -0.0703125,-0.333985 0.0410156,-0.205078 0.17578125,-0.304687 0.140625,-0.105469 0.375,-0.105469 H 1.6367187 q 0.1582032,0 0.2226563,0.06445 0.070312,0.05859 0.046875,0.175781 l -0.2109375,0.996094 q 0.703125,-0.697265 1.3769531,-1.037109 0.6796875,-0.339844 1.3769531,-0.339844 0.5214844,0 0.796875,0.210938 0.28125,0.210937 0.2109375,0.544921 -0.046875,0.216797 -0.2460937,0.386719 -0.1933594,0.164063 -0.3867188,0.164063 -0.1347656,0 -0.4160156,-0.175782 -0.28125,-0.18164 -0.5332031,-0.18164 -0.4570312,0 -1.0371094,0.328125 -0.5742187,0.322265 -1.3417969,1.02539 z"
         style="font-style:italic"
         id="path5720" />
      <path
         d="m 7.1210937,43.294922 q -0.1289062,0.84375 0.2929688,1.30664 0.4277344,0.457032 1.3359375,0.457032 0.6855469,0 1.570313,-0.363282 0.890625,-0.36914 1.060546,-0.36914 0.175782,0 0.269532,0.111328 0.09375,0.111328 0.05859,0.275391 -0.03516,0.169921 -0.1875,0.310546 -0.152343,0.140625 -0.451171,0.275391 -0.650391,0.287109 -1.3066411,0.439453 -0.65625,0.152344 -1.2714844,0.152344 -1.3359375,0 -1.9746094,-0.767578 -0.6386719,-0.773438 -0.3691406,-2.044922 0.2753906,-1.294922 1.2949219,-2.097656 1.0195312,-0.802735 2.3847656,-0.802735 1.236328,0 1.892578,0.75 0.65625,0.75 0.427735,1.816407 -0.07031,0.328125 -0.234375,0.439453 -0.158204,0.111328 -0.767579,0.111328 h -0.08789 z m 0.1933594,-0.767578 h 3.8144529 q 0.05859,-0.697266 -0.345703,-1.119141 -0.404297,-0.427734 -1.1249999,-0.427734 -0.7792968,0 -1.4003906,0.410156 -0.6152344,0.410156 -0.9433594,1.136719 z"
         style="font-style:italic"
         id="path5722" />
    </g>
    <g
       aria-label="im"
       transform="matrix(0.26458333,0,0,0.26458333,4.7625004,48.262897)"
       id="text3858-5"
       style="font-size:12px;font-family:Courier;-inkscape-font-specification:'Courier, Normal';text-align:center;white-space:pre;shape-inside:url(#rect3860-6);display:inline;fill:#ffffff;stroke-width:1.13386;stroke-linecap:round;stroke-linejoin:bevel">
      <path
         d="m -0.69628906,72.177734 q 0.13476562,-0.632812 0.28125,-0.796875 0.15234375,-0.164062 0.52734375,-0.164062 0.36328125,0 0.45117187,0.140625 0.0878906,0.134765 -0.0234375,0.65039 -0.10546875,0.503907 -0.24023437,0.626954 -0.13476563,0.117187 -0.515625,0.117187 -0.375,0 -0.46875,-0.111328 -0.0878906,-0.111328 -0.0117188,-0.462891 z m -0.25195313,6.275391 h 1.88085938 q 0.22851561,0 0.31640621,0.09961 0.087891,0.09375 0.046875,0.304688 -0.052734,0.240234 -0.1757812,0.333984 -0.1171875,0.08789 -0.39257814,0.08789 H -3.8193359 q -0.234375,0 -0.3339844,-0.105469 -0.09375,-0.105469 -0.046875,-0.316406 0.041016,-0.205078 0.1816406,-0.304688 0.1464844,-0.09961 0.3925781,-0.09961 h 1.7871094 l 0.8027344,-3.755859 h -1.1425781 q -0.2402344,0 -0.3457032,-0.105469 -0.099609,-0.111328 -0.058594,-0.316406 0.041016,-0.205079 0.1816406,-0.304688 0.140625,-0.105469 0.375,-0.105469 h 1.71679689 q 0.15820312,0 0.234375,0.06445 0.0761718725,0.06445 0.05273437,0.175782 z"
         style="font-style:italic"
         id="path5725" />
      <path
         d="m 8.4033203,76.015625 q 0.1757813,-0.826172 0.087891,-1.113281 -0.087891,-0.292969 -0.4511718,-0.292969 -0.4335938,0 -0.7675782,0.375 -0.3339843,0.375 -0.4746093,1.03125 l -0.5214844,2.4375 h 0.1054687 q 0.3574219,0 0.4570313,0.08789 0.1054687,0.08203 0.058594,0.316406 -0.046875,0.210937 -0.1699218,0.316406 -0.1171875,0.105469 -0.3222657,0.105469 H 5.6611328 q -0.2519531,0 -0.3222656,-0.117188 -0.064453,-0.117187 0.017578,-0.503906 l 0.035156,-0.169922 0.5273437,-2.472656 0.09375,-0.457031 q 0.09375,-0.439453 -0.052734,-0.691407 -0.140625,-0.257812 -0.4863281,-0.257812 -0.2636719,0 -0.515625,0.158203 -0.2519531,0.152344 -0.4746094,0.457031 l -0.6914062,3.228516 h 0.2167969 q 0.3515625,0 0.4570312,0.08789 0.1054688,0.08789 0.058594,0.316406 -0.052734,0.240234 -0.1699219,0.333984 -0.1171875,0.08789 -0.3984375,0.08789 H 2.3974609 q -0.2285156,0 -0.3164062,-0.09961 -0.087891,-0.105468 -0.041016,-0.322265 0.046875,-0.234375 0.1992187,-0.316406 0.1582031,-0.08789 0.5566406,-0.08789 H 2.9130859 L 3.7158203,74.697266 H 3.6103516 q -0.4101563,0 -0.5390625,-0.09375 -0.1289063,-0.09375 -0.082031,-0.328125 0.041016,-0.205079 0.1816406,-0.304688 0.140625,-0.105469 0.375,-0.105469 h 0.8964844 q 0.1933594,0 0.2402344,0.07031 0.046875,0.06445 0.011719,0.28125 0.2988282,-0.257813 0.5976563,-0.38086 0.2988281,-0.123046 0.6445312,-0.123046 0.4101563,0 0.6386719,0.18164 0.2285156,0.175781 0.28125,0.539063 0.328125,-0.369141 0.6855469,-0.544922 0.3574219,-0.175781 0.7734375,-0.175781 0.7558594,0 1.0019531,0.492187 0.2460938,0.492188 0.011719,1.59375 l -0.5683594,2.654297 h 0.09375 q 0.3632812,0 0.46875,0.08789 0.1054687,0.08789 0.058594,0.316406 -0.046875,0.210937 -0.1757812,0.316406 -0.1230469,0.105469 -0.328125,0.105469 H 8.1689453 q -0.234375,0 -0.3164062,-0.140625 -0.082031,-0.140625 -0.017578,-0.445313 z"
         style="font-style:italic"
         id="path5727" />
    </g>
    <g
       aria-label="mag"
       transform="matrix(0.26458333,0,0,0.26458333,6.1557494,45.403657)"
       id="text3864-3"
       style="font-size:12px;font-family:Courier;-inkscape-font-specification:'Courier, Normal';text-align:center;white-space:pre;shape-inside:url(#rect3866-0);display:inline;fill:#ffffff;stroke-width:1.13386;stroke-linecap:round;stroke-linejoin:bevel">
      <path
         d="m 99.176758,47.460937 q 0.175781,-0.826171 0.08789,-1.113281 -0.08789,-0.292969 -0.451171,-0.292969 -0.433594,0 -0.767579,0.375 -0.333984,0.375 -0.474609,1.03125 l -0.521484,2.4375 h 0.105468 q 0.357422,0 0.457032,0.08789 0.105468,0.08203 0.05859,0.316406 -0.04687,0.210938 -0.169921,0.316407 -0.117188,0.105468 -0.322266,0.105468 H 96.43457 q -0.251953,0 -0.322265,-0.117187 -0.06445,-0.117188 0.01758,-0.503906 l 0.03516,-0.169922 0.527344,-2.472657 0.09375,-0.457031 q 0.09375,-0.439453 -0.05274,-0.691406 -0.140625,-0.257813 -0.486328,-0.257813 -0.263672,0 -0.515625,0.158204 -0.251953,0.152343 -0.474609,0.457031 l -0.691406,3.228515 h 0.216797 q 0.351562,0 0.457031,0.08789 0.105469,0.08789 0.05859,0.316406 -0.05274,0.240235 -0.169922,0.333985 -0.117188,0.08789 -0.398438,0.08789 h -1.558594 q -0.228515,0 -0.316406,-0.09961 -0.08789,-0.105469 -0.04101,-0.322266 0.04687,-0.234375 0.199218,-0.316406 0.158203,-0.08789 0.556641,-0.08789 h 0.117187 l 0.802735,-3.755859 h -0.105469 q -0.410156,0 -0.539062,-0.09375 -0.128907,-0.09375 -0.08203,-0.328125 0.04102,-0.205078 0.181641,-0.304687 0.140625,-0.105469 0.375,-0.105469 h 0.896484 q 0.19336,0 0.240235,0.07031 0.04687,0.06445 0.01172,0.28125 0.298829,-0.257812 0.597657,-0.380859 0.298828,-0.123047 0.644531,-0.123047 0.410156,0 0.638672,0.181641 0.228515,0.175781 0.28125,0.539062 0.328125,-0.36914 0.685547,-0.544922 0.357422,-0.175781 0.773437,-0.175781 0.75586,0 1.001953,0.492188 0.24609,0.492187 0.0117,1.59375 l -0.56836,2.654296 h 0.09375 q 0.363281,0 0.46875,0.08789 0.10547,0.08789 0.0586,0.316406 -0.0469,0.210938 -0.175778,0.316407 -0.123047,0.105468 -0.328125,0.105468 h -0.708984 q -0.234375,0 -0.316406,-0.140625 -0.08203,-0.140625 -0.01758,-0.445312 z"
         style="font-style:italic"
         id="path5713" />
      <path
         d="m 105.3584,48.134766 q -0.29883,-0.105469 -0.5918,-0.152344 -0.28711,-0.05273 -0.58594,-0.05273 -0.90234,0 -1.48828,0.304688 -0.58593,0.304687 -0.69726,0.820312 -0.082,0.398438 0.1875,0.65625 0.26953,0.257813 0.77343,0.257813 0.74415,0 1.45899,-0.386719 0.7207,-0.392578 0.80859,-0.814453 z m -0.3457,1.845703 q -0.56836,0.433593 -1.1836,0.662109 -0.61523,0.228516 -1.21289,0.228516 -0.87305,0 -1.30664,-0.486328 -0.43359,-0.486329 -0.26367,-1.265625 0.19336,-0.925782 1.01367,-1.435547 0.82031,-0.509766 2.10938,-0.509766 0.33984,0 0.67382,0.04687 0.33985,0.04102 0.68555,0.134766 l 0.006,-0.04102 q 0.14648,-0.673828 -0.11133,-0.996094 -0.25195,-0.322265 -0.93164,-0.322265 -0.45703,0 -1.07226,0.246093 -0.61524,0.246094 -0.79688,0.246094 -0.16992,0 -0.25195,-0.134765 -0.082,-0.140625 -0.0352,-0.357422 0.0762,-0.345703 0.77344,-0.585938 0.69726,-0.240234 1.70508,-0.240234 1.03125,0 1.44726,0.527344 0.41602,0.521484 0.19922,1.546875 l -0.56836,2.654296 h 0.28711 q 0.41602,0 0.53906,0.08789 0.12305,0.08789 0.0762,0.316406 -0.0469,0.210938 -0.1875,0.316407 -0.13477,0.105468 -0.36915,0.105468 h -0.91992 q -0.16406,0 -0.25195,-0.09961 -0.082,-0.09961 -0.0762,-0.287109 z"
         style="font-style:italic"
         id="path5715" />
      <path
         d="m 111.51074,46.177734 q -0.76758,0 -1.35351,0.47461 -0.58594,0.474609 -0.74414,1.230468 -0.15821,0.744141 0.22265,1.22461 0.38672,0.474609 1.1543,0.474609 0.76172,0 1.35351,-0.474609 0.5918,-0.480469 0.75,-1.22461 0.15821,-0.74414 -0.23437,-1.224609 -0.38672,-0.480469 -1.14844,-0.480469 z m 1.64649,4.236328 q -0.17578,0.820313 -0.33399,1.160157 -0.15234,0.345703 -0.40429,0.603515 -0.42188,0.433594 -1.06055,0.65625 -0.63867,0.228516 -1.44141,0.228516 -0.66797,0 -0.94922,-0.128906 -0.28125,-0.128907 -0.22265,-0.410157 0.041,-0.18164 0.21679,-0.322265 0.18164,-0.134766 0.38672,-0.134766 0.15821,0 0.47461,0.04102 0.32227,0.04687 0.49219,0.04687 0.86719,0 1.3125,-0.398438 0.45117,-0.398437 0.65625,-1.365234 l 0.14648,-0.708984 q -0.44531,0.416015 -0.91992,0.609375 -0.47461,0.193359 -1.03711,0.193359 -1.0957,0 -1.6582,-0.726563 -0.5625,-0.732421 -0.32227,-1.851562 0.24024,-1.125 1.13086,-1.863281 0.89649,-0.744141 1.98633,-0.744141 0.45117,0 0.84375,0.169922 0.39844,0.164062 0.76758,0.503906 l 0.0879,-0.421875 q 0.0293,-0.123047 0.11719,-0.18164 0.0937,-0.05859 0.26367,-0.05859 h 0.88477 q 0.23437,0 0.32812,0.105469 0.0937,0.09961 0.0527,0.304687 -0.0469,0.234375 -0.21679,0.328125 -0.16406,0.09375 -0.56836,0.09375 h -0.10547 z"
         style="font-style:italic"
         id="path5717" />
    </g>
    <circle
       style="display:inline;vector-effect:none;fill:#0000ff;fill-opacity:1;fill-rule:evenodd;stroke:none;stroke-width:1;stroke-linecap:butt;stroke-linejoin:miter;stroke-miterlimit:4;stroke-dasharray:none;stroke-dashoffset:0;stroke-opacity:1;paint-order:normal"
       id="circle4958-09-76"
       cx="24.699303"
       cy="58.250088"
       r="4"
       inkscape:label="mag2" />
    <circle
       style="display:inline;vector-effect:none;fill:#00ff00;fill-opacity:1;fill-rule:evenodd;stroke:none;stroke-width:1;stroke-linecap:butt;stroke-linejoin:miter;stroke-miterlimit:4;stroke-dasharray:none;stroke-dashoffset:0;stroke-opacity:1;paint-order:normal"
       id="path4954-1-8"
       cx="12.997351"
       cy="58.397434"
       r="4"
       inkscape:label="re2" />
    <circle
       style="display:inline;vector-effect:none;fill:#00ff00;fill-opacity:1;fill-rule:evenodd;stroke:none;stroke-width:1;stroke-linecap:butt;stroke-linejoin:miter;stroke-miterlimit:4;stroke-dasharray:none;stroke-dashoffset:0;stroke-opacity:1;paint-order:normal"
       id="path4954-03-0-6"
       cx="12.997351"
       cy="67.99868"
       r="4"
       inkscape:label="im2" />
    <g
       aria-label="re"
       transform="matrix(0.26458333,0,0,0.26458333,3.7041664,73.999286)"
       id="text3852-3-1"
       style="font-size:12px;font-family:Courier;-inkscape-font-specification:'Courier, Normal';text-align:center;white-space:pre;shape-inside:url(#rect3854-8-4);display:inline;fill:#ffffff;stroke-width:1.13386;stroke-linecap:round;stroke-linejoin:bevel">
      <path
         d="M 0.98046875,44.917969 H 2.9257813 q 0.2285156,0 0.3164062,0.09961 0.087891,0.09375 0.046875,0.304688 -0.052734,0.240234 -0.1757812,0.333984 -0.1171875,0.08789 -0.3925782,0.08789 h -3.8320312 q -0.2285156,0 -0.328125,-0.105469 -0.09375,-0.105469 -0.046875,-0.316406 0.041016,-0.205079 0.1816406,-0.304688 0.140625,-0.09961 0.39257812,-0.09961 h 1.01953125 l 0.80273438,-3.75586 h -0.3984375 q -0.56835937,0 -0.69140625,-0.08789 -0.12304688,-0.09375 -0.0703125,-0.333985 0.0410156,-0.205078 0.17578125,-0.304687 0.140625,-0.105469 0.375,-0.105469 H 1.6367187 q 0.1582032,0 0.2226563,0.06445 0.070312,0.05859 0.046875,0.175781 l -0.2109375,0.996094 q 0.703125,-0.697265 1.3769531,-1.037109 0.6796875,-0.339844 1.3769531,-0.339844 0.5214844,0 0.796875,0.210938 0.28125,0.210937 0.2109375,0.544921 -0.046875,0.216797 -0.2460937,0.386719 -0.1933594,0.164063 -0.3867188,0.164063 -0.1347656,0 -0.4160156,-0.175782 -0.28125,-0.18164 -0.5332031,-0.18164 -0.4570312,0 -1.0371094,0.328125 -0.5742187,0.322265 -1.3417969,1.02539 z"
         style="font-style:italic"
         id="path5737" />
      <path
         d="m 7.1210937,43.294922 q -0.1289062,0.84375 0.2929688,1.30664 0.4277344,0.457032 1.3359375,0.457032 0.6855469,0 1.570313,-0.363282 0.890625,-0.36914 1.060546,-0.36914 0.175782,0 0.269532,0.111328 0.09375,0.111328 0.05859,0.275391 -0.03516,0.169921 -0.1875,0.310546 -0.152343,0.140625 -0.451171,0.275391 -0.650391,0.287109 -1.3066411,0.439453 -0.65625,0.152344 -1.2714844,0.152344 -1.3359375,0 -1.9746094,-0.767578 -0.6386719,-0.773438 -0.3691406,-2.044922 0.2753906,-1.294922 1.2949219,-2.097656 1.0195312,-0.802735 2.3847656,-0.802735 1.236328,0 1.892578,0.75 0.65625,0.75 0.427735,1.816407 -0.07031,0.328125 -0.234375,0.439453 -0.158204,0.111328 -0.767579,0.111328 h -0.08789 z m 0.1933594,-0.767578 h 3.8144529 q 0.05859,-0.697266 -0.345703,-1.119141 -0.404297,-0.427734 -1.1249999,-0.427734 -0.7792968,0 -1.4003906,0.410156 -0.6152344,0.410156 -0.9433594,1.136719 z"
         style="font-style:italic"
         id="path5739" />
    </g>
    <g
       aria-label="im"
       transform="matrix(0.26458333,0,0,0.26458333,4.7625004,75.586797)"
       id="text3858-3-8"
       style="font-size:12px;font-family:Courier;-inkscape-font-specification:'Courier, Normal';text-align:center;white-space:pre;shape-inside:url(#rect3860-9-0);display:inline;fill:#ffffff;stroke-width:1.13386;stroke-linecap:round;stroke-linejoin:bevel">
      <path
         d="m -0.69628906,72.177734 q 0.13476562,-0.632812 0.28125,-0.796875 0.15234375,-0.164062 0.52734375,-0.164062 0.36328125,0 0.45117187,0.140625 0.0878906,0.134765 -0.0234375,0.65039 -0.10546875,0.503907 -0.24023437,0.626954 -0.13476563,0.117187 -0.515625,0.117187 -0.375,0 -0.46875,-0.111328 -0.0878906,-0.111328 -0.0117188,-0.462891 z m -0.25195313,6.275391 h 1.88085938 q 0.22851561,0 0.31640621,0.09961 0.087891,0.09375 0.046875,0.304688 -0.052734,0.240234 -0.1757812,0.333984 -0.1171875,0.08789 -0.39257814,0.08789 H -3.8193359 q -0.234375,0 -0.3339844,-0.105469 -0.09375,-0.105469 -0.046875,-0.316406 0.041016,-0.205078 0.1816406,-0.304688 0.1464844,-0.09961 0.3925781,-0.09961 h 1.7871094 l 0.8027344,-3.755859 h -1.1425781 q -0.2402344,0 -0.3457032,-0.105469 -0.099609,-0.111328 -0.058594,-0.316406 0.041016,-0.205079 0.1816406,-0.304688 0.140625,-0.105469 0.375,-0.105469 h 1.71679689 q 0.15820312,0 0.234375,0.06445 0.0761718725,0.06445 0.05273437,0.175782 z"
         style="font-style:italic"
         id="path5742" />
      <path
         d="m 8.4033203,76.015625 q 0.1757813,-0.826172 0.087891,-1.113281 -0.087891,-0.292969 -0.4511718,-0.292969 -0.4335938,0 -0.7675782,0.375 -0.3339843,0.375 -0.4746093,1.03125 l -0.5214844,2.4375 h 0.1054687 q 0.3574219,0 0.4570313,0.08789 0.1054687,0.08203 0.058594,0.316406 -0.046875,0.210937 -0.1699218,0.316406 -0.1171875,0.105469 -0.3222657,0.105469 H 5.6611328 q -0.2519531,0 -0.3222656,-0.117188 -0.064453,-0.117187 0.017578,-0.503906 l 0.035156,-0.169922 0.5273437,-2.472656 0.09375,-0.457031 q 0.09375,-0.439453 -0.052734,-0.691407 -0.140625,-0.257812 -0.4863281,-0.257812 -0.2636719,0 -0.515625,0.158203 -0.2519531,0.152344 -0.4746094,0.457031 l -0.6914062,3.228516 h 0.2167969 q 0.3515625,0 0.4570312,0.08789 0.1054688,0.08789 0.058594,0.316406 -0.052734,0.240234 -0.1699219,0.333984 -0.1171875,0.08789 -0.3984375,0.08789 H 2.3974609 q -0.2285156,0 -0.3164062,-0.09961 -0.087891,-0.105468 -0.041016,-0.322265 0.046875,-0.234375 0.1992187,-0.316406 0.1582031,-0.08789 0.5566406,-0.08789 H 2.9130859 L 3.7158203,74.697266 H 3.6103516 q -0.4101563,0 -0.5390625,-0.09375 -0.1289063,-0.09375 -0.082031,-0.328125 0.041016,-0.205079 0.1816406,-0.304688 0.140625,-0.105469 0.375,-0.105469 h 0.8964844 q 0.1933594,0 0.2402344,0.07031 0.046875,0.06445 0.011719,0.28125 0.2988282,-0.257813 0.5976563,-0.38086 0.2988281,-0.123046 0.6445312,-0.123046 0.4101563,0 0.6386719,0.18164 0.2285156,0.175781 0.28125,0.539063 0.328125,-0.369141 0.6855469,-0.544922 0.3574219,-0.175781 0.7734375,-0.175781 0.7558594,0 1.0019531,0.492187 0.2460938,0.492188 0.011719,1.59375 l -0.5683594,2.654297 h 0.09375 q 0.3632812,0 0.46875,0.08789 0.1054687,0.08789 0.058594,0.316406 -0.046875,0.210937 -0.1757812,0.316406 -0.1230469,0.105469 -0.328125,0.105469 H 8.1689453 q -0.234375,0 -0.3164062,-0.140625 -0.082031,-0.140625 -0.017578,-0.445313 z"
         style="font-style:italic"
         id="path5744" />
    </g>
    <g
       aria-label="mag"
       transform="matrix(0.26458333,0,0,0.26458333,6.1557494,72.727555)"
       id="text3864-7-4"
       style="font-size:12px;font-family:Courier;-inkscape-font-specification:'Courier, Normal';text-align:center;white-space:pre;shape-inside:url(#rect3866-9-5);display:inline;fill:#ffffff;stroke-width:1.13386;stroke-linecap:round;stroke-linejoin:bevel">
      <path
         d="m 99.176758,47.460937 q 0.175781,-0.826171 0.08789,-1.113281 -0.08789,-0.292969 -0.451171,-0.292969 -0.433594,0 -0.767579,0.375 -0.333984,0.375 -0.474609,1.03125 l -0.521484,2.4375 h 0.105468 q 0.357422,0 0.457032,0.08789 0.105468,0.08203 0.05859,0.316406 -0.04687,0.210938 -0.169921,0.316407 -0.117188,0.105468 -0.322266,0.105468 H 96.43457 q -0.251953,0 -0.322265,-0.117187 -0.06445,-0.117188 0.01758,-0.503906 l 0.03516,-0.169922 0.527344,-2.472657 0.09375,-0.457031 q 0.09375,-0.439453 -0.05274,-0.691406 -0.140625,-0.257813 -0.486328,-0.257813 -0.263672,0 -0.515625,0.158204 -0.251953,0.152343 -0.474609,0.457031 l -0.691406,3.228515 h 0.216797 q 0.351562,0 0.457031,0.08789 0.105469,0.08789 0.05859,0.316406 -0.05274,0.240235 -0.169922,0.333985 -0.117188,0.08789 -0.398438,0.08789 h -1.558594 q -0.228515,0 -0.316406,-0.09961 -0.08789,-0.105469 -0.04101,-0.322266 0.04687,-0.234375 0.199218,-0.316406 0.158203,-0.08789 0.556641,-0.08789 h 0.117187 l 0.802735,-3.755859 h -0.105469 q -0.410156,0 -0.539062,-0.09375 -0.128907,-0.09375 -0.08203,-0.328125 0.04102,-0.205078 0.181641,-0.304687 0.140625,-0.105469 0.375,-0.105469 h 0.896484 q 0.19336,0 0.240235,0.07031 0.04687,0.06445 0.01172,0.28125 0.298829,-0.257812 0.597657,-0.380859 0.298828,-0.123047 0.644531,-0.123047 0.410156,0 0.638672,0.181641 0.228515,0.175781 0.28125,0.539062 0.328125,-0.36914 0.685547,-0.544922 0.357422,-0.175781 0.773437,-0.175781 0.75586,0 1.001953,0.492188 0.24609,0.492187 0.0117,1.59375 l -0.56836,2.654296 h 0.09375 q 0.363281,0 0.46875,0.08789 0.10547,0.08789 0.0586,0.316406 -0.0469,0.210938 -0.175778,0.316407 -0.123047,0.105468 -0.328125,0.105468 h -0.708984 q -0.234375,0 -0.316406,-0.140625 -0.08203,-0.140625 -0.01758,-0.445312 z"
         style="font-style:italic"
         id="path5730" />
      <path
         d="m 105.3584,48.134766 q -0.29883,-0.105469 -0.5918,-0.152344 -0.28711,-0.05273 -0.58594,-0.05273 -0.90234,0 -1.48828,0.304688 -0.58593,0.304687 -0.69726,0.820312 -0.082,0.398438 0.1875,0.65625 0.26953,0.257813 0.77343,0.257813 0.74415,0 1.45899,-0.386719 0.7207,-0.392578 0.80859,-0.814453 z m -0.3457,1.845703 q -0.56836,0.433593 -1.1836,0.662109 -0.61523,0.228516 -1.21289,0.228516 -0.87305,0 -1.30664,-0.486328 -0.43359,-0.486329 -0.26367,-1.265625 0.19336,-0.925782 1.01367,-1.435547 0.82031,-0.509766 2.10938,-0.509766 0.33984,0 0.67382,0.04687 0.33985,0.04102 0.68555,0.134766 l 0.006,-0.04102 q 0.14648,-0.673828 -0.11133,-0.996094 -0.25195,-0.322265 -0.93164,-0.322265 -0.45703,0 -1.07226,0.246093 -0.61524,0.246094 -0.79688,0.246094 -0.16992,0 -0.25195,-0.134765 -0.082,-0.140625 -0.0352,-0.357422 0.0762,-0.345703 0.77344,-0.585938 0.69726,-0.240234 1.70508,-0.240234 1.03125,0 1.44726,0.527344 0.41602,0.521484 0.19922,1.546875 l -0.56836,2.654296 h 0.28711 q 0.41602,0 0.53906,0.08789 0.12305,0.08789 0.0762,0.316406 -0.0469,0.210938 -0.1875,0.316407 -0.13477,0.105468 -0.36915,0.105468 h -0.91992 q -0.16406,0 -0.25195,-0.09961 -0.082,-0.09961 -0.0762,-0.287109 z"
         style="font-style:italic"
         id="path5732" />
      <path
         d="m 111.51074,46.177734 q -0.76758,0 -1.35351,0.47461 -0.58594,0.474609 -0.74414,1.230468 -0.15821,0.744141 0.22265,1.22461 0.38672,0.474609 1.1543,0.474609 0.76172,0 1.35351,-0.474609 0.5918,-0.480469 0.75,-1.22461 0.15821,-0.74414 -0.23437,-1.224609 -0.38672,-0.480469 -1.14844,-0.480469 z m 1.64649,4.236328 q -0.17578,0.820313 -0.33399,1.160157 -0.15234,0.345703 -0.40429,0.603515 -0.42188,0.433594 -1.06055,0.65625 -0.63867,0.228516 -1.44141,0.228516 -0.66797,0 -0.94922,-0.128906 -0.28125,-0.128907 -0.22265,-0.410157 0.041,-0.18164 0.21679,-0.322265 0.18164,-0.134766 0.38672,-0.134766 0.15821,0 0.47461,0.04102 0.32227,0.04687 0.49219,0.04687 0.86719,0 1.3125,-0.398438 0.45117,-0.398437 0.65625,-1.365234 l 0.14648,-0.708984 q -0.44531,0.416015 -0.91992,0.609375 -0.47461,0.193359 -1.03711,0.193359 -1.0957,0 -1.6582,-0.726563 -0.5625,-0.732421 -0.32227,-1.851562 0.24024,-1.125 1.13086,-1.863281 0.89649,-0.744141 1.98633,-0.744141 0.45117,0 0.84375,0.169922 0.39844,0.164062 0.76758,0.503906 l 0.0879,-0.421875 q 0.0293,-0.123047 0.11719,-0.18164 0.0937,-0.05859 0.26367,-0.05859 h 0.88477 q 0.23437,0 0.32812,0.105469 0.0937,0.09961 0.0527,0.304687 -0.0469,0.234375 -0.21679,0.328125 -0.16406,0.09375 -0.56836,0.09375 h -0.10547 z"
         style="font-style:italic"
         id="path5734" />
    </g>
    <circle
       style="display:inline;vector-effect:none;fill:#0000ff;fill-opacity:1;fill-rule:evenodd;stroke:none;stroke-width:1;stroke-linecap:butt;stroke-linejoin:miter;stroke-miterlimit:4;stroke-dasharray:none;stroke-dashoffset:0;stroke-opacity:1;paint-order:normal"
       id="circle4958-09-7-9"
       cx="24.699303"
       cy="85.57399"
       r="4"
       inkscape:label="mag3" />
    <circle
       style="display:inline;vector-effect:none;fill:#00ff00;fill-opacity:1;fill-rule:evenodd;stroke:none;stroke-width:1;stroke-linecap:butt;stroke-linejoin:miter;stroke-miterlimit:4;stroke-dasharray:none;stroke-dashoffset:0;stroke-opacity:1;paint-order:normal"
       id="path4954-1-3-7"
       cx="12.997351"
       cy="85.721336"
       r="4"
       inkscape:label="re3" />
    <circle
       style="display:inline;vector-effect:none;fill:#00ff00;fill-opacity:1;fill-rule:evenodd;stroke:none;stroke-width:1;stroke-linecap:butt;stroke-linejoin:miter;stroke-miterlimit:4;stroke-dasharray:none;stroke-dashoffset:0;stroke-opacity:1;paint-order:normal"
       id="path4954-03-0-2-3"
       cx="12.997351"
       cy="95.322594"
       r="4"
       inkscape:label="im3" />
    <path
       style="fill:#ffffff;fill-opacity:1;stroke:#ffffff;stroke-width:0.244949;stroke-linecap:round;stroke-linejoin:bevel;stroke-dasharray:none;stroke-opacity:1"
       d="M 40.639999,102.98099 H -1.8432862e-7 Z"
       id="path1321-5-6-5" />
    <g
       aria-label="re"
       transform="matrix(0.26458333,0,0,0.26458333,3.7041663,99.427186)"
       id="text3852-3-1-6"
       style="font-size:12px;font-family:Courier;-inkscape-font-specification:'Courier, Normal';text-align:center;white-space:pre;shape-inside:url(#rect3854-8-4-7);display:inline;fill:#ffffff;stroke-width:1.13386;stroke-linecap:round;stroke-linejoin:bevel">
      <path
         d="M 0.98046875,44.917969 H 2.9257813 q 0.2285156,0 0.3164062,0.09961 0.087891,0.09375 0.046875,0.304688 -0.052734,0.240234 -0.1757812,0.333984 -0.1171875,0.08789 -0.3925782,0.08789 h -3.8320312 q -0.2285156,0 -0.328125,-0.105469 -0.09375,-0.105469 -0.046875,-0.316406 0.041016,-0.205079 0.1816406,-0.304688 0.140625,-0.09961 0.39257812,-0.09961 h 1.01953125 l 0.80273438,-3.75586 h -0.3984375 q -0.56835937,0 -0.69140625,-0.08789 -0.12304688,-0.09375 -0.0703125,-0.333985 0.0410156,-0.205078 0.17578125,-0.304687 0.140625,-0.105469 0.375,-0.105469 H 1.6367187 q 0.1582032,0 0.2226563,0.06445 0.070312,0.05859 0.046875,0.175781 l -0.2109375,0.996094 q 0.703125,-0.697265 1.3769531,-1.037109 0.6796875,-0.339844 1.3769531,-0.339844 0.5214844,0 0.796875,0.210938 0.28125,0.210937 0.2109375,0.544921 -0.046875,0.216797 -0.2460937,0.386719 -0.1933594,0.164063 -0.3867188,0.164063 -0.1347656,0 -0.4160156,-0.175782 -0.28125,-0.18164 -0.5332031,-0.18164 -0.4570312,0 -1.0371094,0.328125 -0.5742187,0.322265 -1.3417969,1.02539 z"
         style="font-style:italic"
         id="path5747" />
      <path
         d="m 7.1210937,43.294922 q -0.1289062,0.84375 0.2929688,1.30664 0.4277344,0.457032 1.3359375,0.457032 0.6855469,0 1.570313,-0.363282 0.890625,-0.36914 1.060546,-0.36914 0.175782,0 0.269532,0.111328 0.09375,0.111328 0.05859,0.275391 -0.03516,0.169921 -0.1875,0.310546 -0.152343,0.140625 -0.451171,0.275391 -0.650391,0.287109 -1.3066411,0.439453 -0.65625,0.152344 -1.2714844,0.152344 -1.3359375,0 -1.9746094,-0.767578 -0.6386719,-0.773438 -0.3691406,-2.044922 0.2753906,-1.294922 1.2949219,-2.097656 1.0195312,-0.802735 2.3847656,-0.802735 1.236328,0 1.892578,0.75 0.65625,0.75 0.427735,1.816407 -0.07031,0.328125 -0.234375,0.439453 -0.158204,0.111328 -0.767579,0.111328 h -0.08789 z m 0.1933594,-0.767578 h 3.8144529 q 0.05859,-0.697266 -0.345703,-1.119141 -0.404297,-0.427734 -1.1249999,-0.427734 -0.7792968,0 -1.4003906,0.410156 -0.6152344,0.410156 -0.9433594,1.136719 z"
         style="font-style:italic"
         id="path5749" />
    </g>
    <g
       aria-label="im"
       transform="matrix(0.26458333,0,0,0.26458333,4.7625003,101.01469)"
       id="text3858-3-8-7"
       style="font-size:12px;font-family:Courier;-inkscape-font-specification:'Courier, Normal';text-align:center;white-space:pre;shape-inside:url(#rect3860-9-0-0);display:inline;fill:#ffffff;stroke-width:1.13386;stroke-linecap:round;stroke-linejoin:bevel">
      <path
         d="m -0.69628906,72.177734 q 0.13476562,-0.632812 0.28125,-0.796875 0.15234375,-0.164062 0.52734375,-0.164062 0.36328125,0 0.45117187,0.140625 0.0878906,0.134765 -0.0234375,0.65039 -0.10546875,0.503907 -0.24023437,0.626954 -0.13476563,0.117187 -0.515625,0.117187 -0.375,0 -0.46875,-0.111328 -0.0878906,-0.111328 -0.0117188,-0.462891 z m -0.25195313,6.275391 h 1.88085938 q 0.22851561,0 0.31640621,0.09961 0.087891,0.09375 0.046875,0.304688 -0.052734,0.240234 -0.1757812,0.333984 -0.1171875,0.08789 -0.39257814,0.08789 H -3.8193359 q -0.234375,0 -0.3339844,-0.105469 -0.09375,-0.105469 -0.046875,-0.316406 0.041016,-0.205078 0.1816406,-0.304688 0.1464844,-0.09961 0.3925781,-0.09961 h 1.7871094 l 0.8027344,-3.755859 h -1.1425781 q -0.2402344,0 -0.3457032,-0.105469 -0.099609,-0.111328 -0.058594,-0.316406 0.041016,-0.205079 0.1816406,-0.304688 0.140625,-0.105469 0.375,-0.105469 h 1.71679689 q 0.15820312,0 0.234375,0.06445 0.0761718725,0.06445 0.05273437,0.175782 z"
         style="font-style:italic"
         id="path5759" />
      <path
         d="m 8.4033203,76.015625 q 0.1757813,-0.826172 0.087891,-1.113281 -0.087891,-0.292969 -0.4511718,-0.292969 -0.4335938,0 -0.7675782,0.375 -0.3339843,0.375 -0.4746093,1.03125 l -0.5214844,2.4375 h 0.1054687 q 0.3574219,0 0.4570313,0.08789 0.1054687,0.08203 0.058594,0.316406 -0.046875,0.210937 -0.1699218,0.316406 -0.1171875,0.105469 -0.3222657,0.105469 H 5.6611328 q -0.2519531,0 -0.3222656,-0.117188 -0.064453,-0.117187 0.017578,-0.503906 l 0.035156,-0.169922 0.5273437,-2.472656 0.09375,-0.457031 q 0.09375,-0.439453 -0.052734,-0.691407 -0.140625,-0.257812 -0.4863281,-0.257812 -0.2636719,0 -0.515625,0.158203 -0.2519531,0.152344 -0.4746094,0.457031 l -0.6914062,3.228516 h 0.2167969 q 0.3515625,0 0.4570312,0.08789 0.1054688,0.08789 0.058594,0.316406 -0.052734,0.240234 -0.1699219,0.333984 -0.1171875,0.08789 -0.3984375,0.08789 H 2.3974609 q -0.2285156,0 -0.3164062,-0.09961 -0.087891,-0.105468 -0.041016,-0.322265 0.046875,-0.234375 0.1992187,-0.316406 0.1582031,-0.08789 0.5566406,-0.08789 H 2.9130859 L 3.7158203,74.697266 H 3.6103516 q -0.4101563,0 -0.5390625,-0.09375 -0.1289063,-0.09375 -0.082031,-0.328125 0.041016,-0.205079 0.1816406,-0.304688 0.140625,-0.105469 0.375,-0.105469 h 0.8964844 q 0.1933594,0 0.2402344,0.07031 0.046875,0.06445 0.011719,0.28125 0.2988282,-0.257813 0.5976563,-0.38086 0.2988281,-0.123046 0.6445312,-0.123046 0.4101563,0 0.6386719,0.18164 0.2285156,0.175781 0.28125,0.539063 0.328125,-0.369141 0.6855469,-0.544922 0.3574219,-0.175781 0.7734375,-0.175781 0.7558594,0 1.0019531,0.492187 0.2460938,0.492188 0.011719,1.59375 l -0.5683594,2.654297 h 0.09375 q 0.3632812,0 0.46875,0.08789 0.1054687,0.08789 0.058594,0.316406 -0.046875,0.210937 -0.1757812,0.316406 -0.1230469,0.105469 -0.328125,0.105469 H 8.1689453 q -0.234375,0 -0.3164062,-0.140625 -0.082031,-0.140625 -0.017578,-0.445313 z"
         style="font-style:italic"
         id="path5761" />
    </g>
    <g
       aria-label="mag"
       transform="matrix(0.26458333,0,0,0.26458333,6.1557493,98.155459)"
       id="text3864-7-4-8"
       style="font-size:12px;font-family:Courier;-inkscape-font-specification:'Courier, Normal';text-align:center;white-space:pre;shape-inside:url(#rect3866-9-5-0);display:inline;fill:#ffffff;stroke-width:1.13386;stroke-linecap:round;stroke-linejoin:bevel">
      <path
         d="m 99.176758,47.460937 q 0.175781,-0.826171 0.08789,-1.113281 -0.08789,-0.292969 -0.451171,-0.292969 -0.433594,0 -0.767579,0.375 -0.333984,0.375 -0.474609,1.03125 l -0.521484,2.4375 h 0.105468 q 0.357422,0 0.457032,0.08789 0.105468,0.08203 0.05859,0.316406 -0.04687,0.210938 -0.169921,0.316407 -0.117188,0.105468 -0.322266,0.105468 H 96.43457 q -0.251953,0 -0.322265,-0.117187 -0.06445,-0.117188 0.01758,-0.503906 l 0.03516,-0.169922 0.527344,-2.472657 0.09375,-0.457031 q 0.09375,-0.439453 -0.05274,-0.691406 -0.140625,-0.257813 -0.486328,-0.257813 -0.263672,0 -0.515625,0.158204 -0.251953,0.152343 -0.474609,0.457031 l -0.691406,3.228515 h 0.216797 q 0.351562,0 0.457031,0.08789 0.105469,0.08789 0.05859,0.316406 -0.05274,0.240235 -0.169922,0.333985 -0.117188,0.08789 -0.398438,0.08789 h -1.558594 q -0.228515,0 -0.316406,-0.09961 -0.08789,-0.105469 -0.04101,-0.322266 0.04687,-0.234375 0.199218,-0.316406 0.158203,-0.08789 0.556641,-0.08789 h 0.117187 l 0.802735,-3.755859 h -0.105469 q -0.410156,0 -0.539062,-0.09375 -0.128907,-0.09375 -0.08203,-0.328125 0.04102,-0.205078 0.181641,-0.304687 0.140625,-0.105469 0.375,-0.105469 h 0.896484 q 0.19336,0 0.240235,0.07031 0.04687,0.06445 0.01172,0.28125 0.298829,-0.257812 0.597657,-0.380859 0.298828,-0.123047 0.644531,-0.123047 0.410156,0 0.638672,0.181641 0.228515,0.175781 0.28125,0.539062 0.328125,-0.36914 0.685547,-0.544922 0.357422,-0.175781 0.773437,-0.175781 0.75586,0 1.001953,0.492188 0.24609,0.492187 0.0117,1.59375 l -0.56836,2.654296 h 0.09375 q 0.363281,0 0.46875,0.08789 0.10547,0.08789 0.0586,0.316406 -0.0469,0.210938 -0.175778,0.316407 -0.123047,0.105468 -0.328125,0.105468 h -0.708984 q -0.234375,0 -0.316406,-0.140625 -0.08203,-0.140625 -0.01758,-0.445312 z"
         style="font-style:italic"
         id="path5752" />
      <path
         d="m 105.3584,48.134766 q -0.29883,-0.105469 -0.5918,-0.152344 -0.28711,-0.05273 -0.58594,-0.05273 -0.90234,0 -1.48828,0.304688 -0.58593,0.304687 -0.69726,0.820312 -0.082,0.398438 0.1875,0.65625 0.26953,0.257813 0.77343,0.257813 0.74415,0 1.45899,-0.386719 0.7207,-0.392578 0.80859,-0.814453 z m -0.3457,1.845703 q -0.56836,0.433593 -1.1836,0.662109 -0.61523,0.228516 -1.21289,0.228516 -0.87305,0 -1.30664,-0.486328 -0.43359,-0.486329 -0.26367,-1.265625 0.19336,-0.925782 1.01367,-1.435547 0.82031,-0.509766 2.10938,-0.509766 0.33984,0 0.67382,0.04687 0.33985,0.04102 0.68555,0.134766 l 0.006,-0.04102 q 0.14648,-0.673828 -0.11133,-0.996094 -0.25195,-0.322265 -0.93164,-0.322265 -0.45703,0 -1.07226,0.246093 -0.61524,0.246094 -0.79688,0.246094 -0.16992,0 -0.25195,-0.134765 -0.082,-0.140625 -0.0352,-0.357422 0.0762,-0.345703 0.77344,-0.585938 0.69726,-0.240234 1.70508,-0.240234 1.03125,0 1.44726,0.527344 0.41602,0.521484 0.19922,1.546875 l -0.56836,2.654296 h 0.28711 q 0.41602,0 0.53906,0.08789 0.12305,0.08789 0.0762,0.316406 -0.0469,0.210938 -0.1875,0.316407 -0.13477,0.105468 -0.36915,0.105468 h -0.91992 q -0.16406,0 -0.25195,-0.09961 -0.082,-0.09961 -0.0762,-0.287109 z"
         style="font-style:italic"
         id="path5754" />
      <path
         d="m 111.51074,46.177734 q -0.76758,0 -1.35351,0.47461 -0.58594,0.474609 -0.74414,1.230468 -0.15821,0.744141 0.22265,1.22461 0.38672,0.474609 1.1543,0.474609 0.76172,0 1.35351,-0.474609 0.5918,-0.480469 0.75,-1.22461 0.15821,-0.74414 -0.23437,-1.224609 -0.38672,-0.480469 -1.14844,-0.480469 z m 1.64649,4.236328 q -0.17578,0.820313 -0.33399,1.160157 -0.15234,0.345703 -0.40429,0.603515 -0.42188,0.433594 -1.06055,0.65625 -0.63867,0.228516 -1.44141,0.228516 -0.66797,0 -0.94922,-0.128906 -0.28125,-0.128907 -0.22265,-0.410157 0.041,-0.18164 0.21679,-0.322265 0.18164,-0.134766 0.38672,-0.134766 0.15821,0 0.47461,0.04102 0.32227,0.04687 0.49219,0.04687 0.86719,0 1.3125,-0.398438 0.45117,-0.398437 0.65625,-1.365234 l 0.14648,-0.708984 q -0.44531,0.416015 -0.91992,0.609375 -0.47461,0.193359 -1.03711,0.193359 -1.0957,0 -1.6582,-0.726563 -0.5625,-0.732421 -0.32227,-1.851562 0.24024,-1.125 1.13086,-1.863281 0.89649,-0.744141 1.98633,-0.744141 0.45117,0 0.84375,0.169922 0.39844,0.164062 0.76758,0.503906 l 0.0879,-0.421875 q 0.0293,-0.123047 0.11719,-0.18164 0.0937,-0.05859 0.26367,-0.05859 h 0.88477 q 0.23437,0 0.32812,0.105469 0.0937,0.09961 0.0527,0.304687 -0.0469,0.234375 -0.21679,0.328125 -0.16406,0.09375 -0.56836,0.09375 h -0.10547 z"
         style="font-style:italic"
         id="path5756" />
    </g>
    <circle
       style="display:inline;vector-effect:none;fill:#0000ff;fill-opacity:1;fill-rule:evenodd;stroke:none;stroke-width:1;stroke-linecap:butt;stroke-linejoin:miter;stroke-miterlimit:4;stroke-dasharray:none;stroke-dashoffset:0;stroke-opacity:1;paint-order:normal"
       id="circle4958-09-7-9-0"
       cx="24.699303"
       cy="111.00189"
       r="4"
       inkscape:label="mag4" />
    <circle
       style="display:inline;vector-effect:none;fill:#00ff00;fill-opacity:1;fill-rule:evenodd;stroke:none;stroke-width:1;stroke-linecap:butt;stroke-linejoin:miter;stroke-miterlimit:4;stroke-dasharray:none;stroke-dashoffset:0;stroke-opacity:1;paint-order:normal"
       id="path4954-1-3-7-6"
       cx="12.997351"
       cy="111.14925"
       r="4"
       inkscape:label="re4" />
    <circle
       style="display:inline;vector-effect:none;fill:#00ff00;fill-opacity:1;fill-rule:evenodd;stroke:none;stroke-width:1;stroke-linecap:butt;stroke-linejoin:miter;stroke-miterlimit:4;stroke-dasharray:none;stroke-dashoffset:0;stroke-opacity:1;paint-order:normal"
       id="path4954-03-0-2-3-5"
       cx="12.997351"
       cy="120.7505"
       r="4"
       inkscape:label="im4" />
  </g>
</svg>
