<?xml version="1.0" encoding="UTF-8" standalone="no"?>
<!-- Created with Inkscape (http://www.inkscape.org/) -->

<svg
   width="60.959999mm"
   height="128.5mm"
   viewBox="0 0 60.960004 128.50002"
   version="1.1"
   id="svg8"
   inkscape:version="1.2.2 (b0a8486, 2022-12-01)"
   sodipodi:docname="Oscillator.svg"
   xmlns:inkscape="http://www.inkscape.org/namespaces/inkscape"
   xmlns:sodipodi="http://sodipodi.sourceforge.net/DTD/sodipodi-0.dtd"
   xmlns="http://www.w3.org/2000/svg"
   xmlns:svg="http://www.w3.org/2000/svg"
   xmlns:rdf="http://www.w3.org/1999/02/22-rdf-syntax-ns#"
   xmlns:cc="http://creativecommons.org/ns#"
   xmlns:dc="http://purl.org/dc/elements/1.1/">
  <defs
     id="defs2">
    <rect
       x="241.42645"
       y="129.29953"
       width="129.29953"
       height="44.797848"
       id="rect2594" />
    <rect
       x="39.223248"
       y="127.27922"
       width="52.950508"
       height="12.121831"
       id="rect2108" />
    <rect
       x="241.42645"
       y="129.29953"
       width="129.29953"
       height="44.797848"
       id="rect2594-2" />
  </defs>
  <sodipodi:namedview
     id="base"
     pagecolor="#ffffff"
     bordercolor="#666666"
     borderopacity="1.0"
     inkscape:pageopacity="0.0"
     inkscape:pageshadow="2"
     inkscape:zoom="3.0261108"
     inkscape:cx="108.38995"
     inkscape:cy="413.07145"
     inkscape:document-units="mm"
     inkscape:current-layer="layer2"
     showgrid="false"
     units="mm"
     inkscape:snap-bbox="true"
     inkscape:snap-page="true"
     inkscape:bbox-nodes="false"
     inkscape:snap-bbox-edge-midpoints="false"
     inkscape:window-width="1920"
     inkscape:window-height="1080"
     inkscape:window-x="36"
     inkscape:window-y="23"
     inkscape:window-maximized="0"
     inkscape:snap-bbox-midpoints="true"
     inkscape:snap-nodes="false"
     inkscape:showpageshadow="2"
     inkscape:pagecheckerboard="0"
     inkscape:deskcolor="#d1d1d1" />
  <metadata
     id="metadata5">
    <rdf:RDF>
      <cc:Work
         rdf:about="">
        <dc:format>image/svg+xml</dc:format>
        <dc:type
           rdf:resource="http://purl.org/dc/dcmitype/StillImage" />
      </cc:Work>
    </rdf:RDF>
  </metadata>
  <g
     inkscape:label="Layer 1"
     inkscape:groupmode="layer"
     id="layer1"
     transform="translate(0,-168.49998)">
    <rect
       style="display:inline;opacity:1;vector-effect:none;fill:#d100d1;fill-opacity:1;fill-rule:evenodd;stroke:none;stroke-width:0.918331;stroke-linecap:butt;stroke-linejoin:miter;stroke-miterlimit:4;stroke-dasharray:none;stroke-dashoffset:0;stroke-opacity:1;paint-order:normal"
       id="rect420"
       width="60.959999"
       height="128.5"
       x="0"
       y="168.49998" />
    <g
       aria-label="a"
       id="text542"
       style="font-size:3.175px;font-family:Courier;-inkscape-font-specification:'Courier, Normal';fill:#ffffff;stroke-width:0.2;stroke-linecap:round;stroke-linejoin:bevel">
      <path
         d="m 25.202538,214.93792 q -0.07906,-0.0279 -0.15658,-0.0403 -0.07596,-0.014 -0.155029,-0.014 -0.238745,0 -0.393774,0.0806 -0.15503,0.0806 -0.184485,0.21704 -0.0217,0.10542 0.04961,0.17363 0.07131,0.0682 0.204639,0.0682 0.196887,0 0.386023,-0.10232 0.190686,-0.10387 0.21394,-0.21549 z m -0.09147,0.48835 q -0.150379,0.11472 -0.31316,0.17518 -0.16278,0.0605 -0.32091,0.0605 -0.230994,0 -0.345716,-0.12867 -0.114721,-0.12868 -0.06976,-0.33487 0.05116,-0.24494 0.268201,-0.37982 0.217041,-0.13487 0.558105,-0.13487 0.08992,0 0.178284,0.0124 0.08992,0.0109 0.181384,0.0357 l 0.0016,-0.0109 q 0.03876,-0.17828 -0.02946,-0.26355 -0.06666,-0.0853 -0.246496,-0.0853 -0.120923,0 -0.283704,0.0651 -0.162781,0.0651 -0.21084,0.0651 -0.04496,0 -0.06666,-0.0356 -0.0217,-0.0372 -0.0093,-0.0946 0.02015,-0.0915 0.204638,-0.15503 0.184485,-0.0636 0.451136,-0.0636 0.272851,0 0.382922,0.13952 0.110071,0.13798 0.05271,0.40928 l -0.150378,0.70228 h 0.07596 q 0.110071,0 0.142627,0.0233 0.03256,0.0232 0.02015,0.0837 -0.0124,0.0558 -0.04961,0.0837 -0.03566,0.0279 -0.09767,0.0279 h -0.243396 q -0.04341,0 -0.06666,-0.0264 -0.0217,-0.0264 -0.02015,-0.076 z"
         style="font-style:italic"
         id="path2468" />
    </g>
    <g
       aria-label="f"
       id="text542-5"
       style="font-size:3.175px;font-family:Courier;-inkscape-font-specification:'Courier, Normal';fill:#ffffff;stroke-width:0.2;stroke-linecap:round;stroke-linejoin:bevel">
      <path
         d="m 25.238195,206.1312 q 0.06356,0 0.08992,0.0279 0.02791,0.0279 0.01705,0.0822 -0.0124,0.0558 -0.04961,0.0837 -0.03721,0.0279 -0.09767,0.0279 h -1.013892 q -0.06356,0 -0.09147,-0.0279 -0.02791,-0.0279 -0.0155,-0.0837 0.01085,-0.0543 0.04806,-0.0822 0.03876,-0.0279 0.09922,-0.0279 h 0.26355 l 0.201538,-0.94723 h -0.254248 q -0.06356,0 -0.09302,-0.0295 -0.02791,-0.0294 -0.01705,-0.0837 0.0124,-0.0558 0.05116,-0.0837 0.03876,-0.0279 0.100769,-0.0279 h 0.244946 l 0.0217,-0.10542 q 0.06046,-0.28061 0.246497,-0.40618 0.186035,-0.12712 0.542602,-0.12712 0.173633,0 0.248047,0.0387 0.07597,0.0388 0.05736,0.12093 -0.0093,0.0481 -0.05271,0.0791 -0.04186,0.031 -0.09767,0.031 -0.02791,0 -0.130225,-0.0186 -0.102319,-0.0186 -0.178284,-0.0186 -0.175183,0 -0.26665,0.0744 -0.09147,0.0729 -0.127124,0.2434 l -0.0186,0.0884 h 0.548804 q 0.06356,0 0.08992,0.0279 0.02791,0.0279 0.0155,0.0837 -0.01085,0.0527 -0.05116,0.0837 -0.04031,0.0295 -0.09922,0.0295 h -0.536402 l -0.201538,0.94723 z"
         style="font-style:italic"
         id="path2465" />
    </g>
    <g
       aria-label="cos"
       id="text542-9"
       style="font-size:3.175px;font-family:Courier;-inkscape-font-specification:'Courier, Normal';fill:#ffffff;stroke-width:0.2;stroke-linecap:round;stroke-linejoin:bevel">
      <path
         d="m 54.663216,214.2837 0.0016,-0.006 q 0.01085,-0.0512 0.04496,-0.0744 0.03566,-0.0248 0.09767,-0.0248 0.06356,0 0.07906,0.0372 0.0155,0.0372 -0.0093,0.15348 l -0.06046,0.28835 q -0.0124,0.0574 -0.04806,0.0868 -0.03566,0.0279 -0.09457,0.0279 -0.04186,0 -0.06666,-0.0232 -0.02481,-0.0248 -0.05271,-0.10077 -0.04806,-0.12557 -0.141077,-0.18914 -0.09147,-0.0651 -0.229443,-0.0651 -0.241846,0 -0.42323,0.14263 -0.181384,0.14263 -0.229443,0.36897 -0.04961,0.23099 0.06356,0.37827 0.114721,0.14573 0.342614,0.14573 0.10387,0 0.203089,-0.0279 0.100769,-0.0294 0.196887,-0.0868 0.03256,-0.0186 0.09147,-0.0574 0.117822,-0.0822 0.175183,-0.0822 0.04806,0 0.07131,0.031 0.0248,0.0295 0.01395,0.0775 -0.02636,0.12247 -0.285254,0.25115 -0.258898,0.12712 -0.519348,0.12712 -0.336413,0 -0.514697,-0.21549 -0.178284,-0.21549 -0.110071,-0.53795 0.06976,-0.32246 0.337964,-0.53795 0.269751,-0.21704 0.604614,-0.21704 0.117823,0 0.229444,0.0325 0.111621,0.031 0.230993,0.0977 z"
         style="font-style:italic"
         id="path2431" />
      <path
         d="m 55.855392,215.44487 q 0.238745,0 0.42323,-0.15038 0.184484,-0.15193 0.234094,-0.38602 0.05116,-0.2341 -0.07131,-0.38602 -0.120922,-0.15348 -0.358117,-0.15348 -0.237195,0 -0.42168,0.15348 -0.184485,0.15192 -0.235644,0.38602 -0.04961,0.23564 0.06976,0.38602 0.120923,0.15038 0.359668,0.15038 z m 0.927075,-0.5364 q -0.06976,0.33176 -0.341065,0.5426 -0.271301,0.21084 -0.632519,0.21084 -0.359668,0 -0.541052,-0.21084 -0.181385,-0.21084 -0.111621,-0.5426 0.07131,-0.33176 0.342614,-0.54105 0.271302,-0.21084 0.63097,-0.21084 0.359667,0 0.541052,0.21084 0.182934,0.21084 0.111621,0.54105 z"
         style="font-style:italic"
         id="path2433" />
      <path
         d="m 57.070821,215.51153 0.05891,-0.27595 q 0.01395,-0.0682 0.04496,-0.0977 0.03256,-0.0294 0.08992,-0.0294 0.06356,0 0.08216,0.0868 0.01395,0.0527 0.02791,0.0791 0.04806,0.0837 0.164331,0.13487 0.116272,0.0496 0.269751,0.0496 0.164331,0 0.277502,-0.0667 0.113172,-0.0667 0.136426,-0.17518 0.02325,-0.11007 -0.04651,-0.15658 -0.06976,-0.0465 -0.26355,-0.0465 h -0.08527 q -0.316259,0 -0.458886,-0.11007 -0.142627,-0.11007 -0.09767,-0.31936 0.04341,-0.20464 0.229443,-0.31781 0.186036,-0.11317 0.479041,-0.11317 0.119373,0 0.235645,0.0341 0.117822,0.0326 0.124023,0.0326 0.01705,0 0.07131,-0.0295 0.05426,-0.031 0.100769,-0.031 0.05271,0 0.06976,0.0387 0.0186,0.0388 0.0016,0.11628 l -0.03876,0.18138 q -0.01705,0.0822 -0.04961,0.11937 -0.03256,0.0357 -0.08682,0.0357 -0.04651,0 -0.09767,-0.0791 -0.03721,-0.0543 -0.06201,-0.0822 -0.06666,-0.076 -0.153479,-0.10852 -0.08527,-0.0341 -0.21084,-0.0341 -0.145728,0 -0.248047,0.0651 -0.102319,0.0636 -0.124023,0.16279 -0.02015,0.0977 0.06201,0.13952 0.08217,0.0419 0.382923,0.0481 0.32091,0.008 0.448034,0.11317 0.127124,0.10387 0.08062,0.32246 -0.04496,0.20929 -0.235644,0.33487 -0.190686,0.12557 -0.469739,0.12557 -0.08837,0 -0.193786,-0.017 -0.10542,-0.0155 -0.262,-0.0543 -0.06046,0.0357 -0.10387,0.0527 -0.04186,0.0186 -0.06821,0.0186 -0.05426,0 -0.07597,-0.0372 -0.02015,-0.0387 -0.0047,-0.11007 z"
         style="font-style:italic"
         id="path2435" />
    </g>
    <g
       aria-label="sin"
       id="text542-5-6"
       style="font-size:3.175px;font-family:Courier;-inkscape-font-specification:'Courier, Normal';fill:#ffffff;stroke-width:0.2;stroke-linecap:round;stroke-linejoin:bevel">
      <path
         d="m 53.260201,206.24127 0.05891,-0.27595 q 0.01395,-0.0682 0.04496,-0.0977 0.03256,-0.0295 0.08992,-0.0295 0.06356,0 0.08216,0.0868 0.01395,0.0527 0.02791,0.0791 0.04806,0.0837 0.164331,0.13488 0.116272,0.0496 0.269751,0.0496 0.164331,0 0.277502,-0.0667 0.113172,-0.0667 0.136426,-0.17519 0.02325,-0.11007 -0.04651,-0.15658 -0.06976,-0.0465 -0.26355,-0.0465 h -0.08527 q -0.31626,0 -0.458886,-0.11007 -0.142627,-0.11007 -0.09767,-0.31936 0.04341,-0.20463 0.229443,-0.31781 0.186036,-0.11317 0.479041,-0.11317 0.119372,0 0.235644,0.0341 0.117823,0.0326 0.124024,0.0326 0.01705,0 0.07131,-0.0294 0.05426,-0.031 0.100769,-0.031 0.05271,0 0.06976,0.0388 0.0186,0.0388 0.0016,0.11627 l -0.03876,0.18139 q -0.01705,0.0822 -0.04961,0.11937 -0.03256,0.0357 -0.08682,0.0357 -0.04651,0 -0.09767,-0.0791 -0.03721,-0.0543 -0.06201,-0.0822 -0.06666,-0.076 -0.153479,-0.10852 -0.08527,-0.0341 -0.21084,-0.0341 -0.145728,0 -0.248047,0.0651 -0.102319,0.0636 -0.124024,0.16278 -0.02015,0.0977 0.06201,0.13953 0.08217,0.0419 0.382923,0.0481 0.32091,0.008 0.448034,0.11317 0.127124,0.10387 0.08062,0.32246 -0.04496,0.20929 -0.235644,0.33486 -0.190686,0.12558 -0.469739,0.12558 -0.08837,0 -0.193786,-0.0171 -0.10542,-0.0155 -0.262,-0.0543 -0.06046,0.0357 -0.10387,0.0527 -0.04186,0.0186 -0.06821,0.0186 -0.05426,0 -0.07596,-0.0372 -0.02015,-0.0388 -0.0047,-0.11007 z"
         style="font-style:italic"
         id="path2438" />
      <path
         d="m 56.073983,204.47393 q 0.03566,-0.16743 0.07441,-0.21083 0.04031,-0.0434 0.139526,-0.0434 0.09612,0 0.119373,0.0372 0.02325,0.0357 -0.0062,0.17209 -0.02791,0.13332 -0.06356,0.16588 -0.03566,0.031 -0.136426,0.031 -0.09922,0 -0.124023,-0.0294 -0.02325,-0.0295 -0.0031,-0.12248 z m -0.06666,1.66037 h 0.497644 q 0.06046,0 0.08372,0.0264 0.02326,0.0248 0.0124,0.0806 -0.01395,0.0636 -0.04651,0.0884 -0.03101,0.0232 -0.10387,0.0232 h -1.203027 q -0.06201,0 -0.08837,-0.0279 -0.02481,-0.0279 -0.0124,-0.0837 0.01085,-0.0543 0.04806,-0.0806 0.03876,-0.0264 0.103869,-0.0264 h 0.47284 l 0.21239,-0.99374 h -0.302307 q -0.06356,0 -0.09147,-0.0279 -0.02635,-0.0295 -0.0155,-0.0837 0.01085,-0.0543 0.04806,-0.0806 0.03721,-0.0279 0.09922,-0.0279 h 0.454236 q 0.04186,0 0.06201,0.017 0.02015,0.0171 0.01395,0.0465 z"
         style="font-style:italic"
         id="path2440" />
      <path
         d="m 57.191744,206.1343 0.21239,-0.99374 h -0.02945 q -0.10542,0 -0.139527,-0.0248 -0.03411,-0.0248 -0.0217,-0.0868 0.0124,-0.0574 0.04961,-0.0822 0.03876,-0.0263 0.111621,-0.0263 h 0.07286 0.148828 q 0.04186,0 0.06046,0.017 0.02015,0.0171 0.01395,0.0465 l -0.0217,0.10542 q 0.134875,-0.10542 0.255798,-0.15503 0.122473,-0.0512 0.241846,-0.0512 0.234094,0 0.336413,0.14573 0.10387,0.14573 0.04961,0.40308 l -0.150379,0.70228 h 0.07286 q 0.07751,0 0.10542,0.0264 0.02945,0.0248 0.0186,0.0806 -0.0124,0.0605 -0.05426,0.0868 -0.04186,0.0248 -0.134875,0.0248 h -0.342615 q -0.09922,0 -0.122473,-0.0232 -0.02325,-0.0233 -0.0093,-0.0884 0.0124,-0.0605 0.04961,-0.0837 0.03721,-0.0232 0.127124,-0.0232 h 0.05426 l 0.137976,-0.64492 q 0.03876,-0.18139 -0.02325,-0.27596 -0.06201,-0.0961 -0.218591,-0.0961 -0.15813,0 -0.302307,0.10697 -0.142627,0.10697 -0.176734,0.2651 l -0.137976,0.64492 h 0.05426 q 0.09302,0 0.120923,0.0232 0.0279,0.0233 0.0155,0.0837 -0.01395,0.0651 -0.04651,0.0884 -0.03256,0.0232 -0.141077,0.0232 h -0.282153 -0.08372 q -0.06356,0 -0.08992,-0.0264 -0.02636,-0.0279 -0.01395,-0.0853 0.0124,-0.062 0.05271,-0.0837 0.04186,-0.0232 0.147278,-0.0232 z"
         style="font-style:italic"
         id="path2442" />
    </g>
    <path
       style="fill:#ffffff;fill-opacity:1;stroke:#ffffff;stroke-width:0.3;stroke-linecap:round;stroke-linejoin:bevel;stroke-dasharray:none;stroke-opacity:1"
       d="m 39.948829,167.97081 v 128.5 z"
       id="path1321" />
    <path
       style="fill:#ffffff;fill-opacity:1;stroke:#ffffff;stroke-width:0.3;stroke-linecap:round;stroke-linejoin:bevel;stroke-dasharray:none;stroke-opacity:1"
       d="M 60.959999,197.45378 H 0 Z"
       id="path1321-5" />
    <path
       style="fill:#ffffff;fill-opacity:1;stroke:#ffffff;stroke-width:0.3;stroke-linecap:round;stroke-linejoin:bevel;stroke-dasharray:none;stroke-opacity:1"
       d="M 60.959999,221.43426 H 0 Z"
       id="path1321-5-5" />
    <path
       style="fill:#ffffff;fill-opacity:1;stroke:#ffffff;stroke-width:0.3;stroke-linecap:round;stroke-linejoin:bevel;stroke-dasharray:none;stroke-opacity:1"
       d="M 60.959999,244.92303 H 0 Z"
       id="path1321-5-4" />
    <path
       style="fill:#ffffff;fill-opacity:1;stroke:#ffffff;stroke-width:0.3;stroke-linecap:round;stroke-linejoin:bevel;stroke-dasharray:none;stroke-opacity:1"
       d="M 60.959999,269.20892 H 0 Z"
       id="path1321-5-45" />
  </g>
  <g
     inkscape:groupmode="layer"
     id="layer2"
     inkscape:label="components">
    <circle
       style="display:inline;vector-effect:none;fill:#0000ff;fill-opacity:1;fill-rule:evenodd;stroke:none;stroke-width:1;stroke-linecap:butt;stroke-linejoin:miter;stroke-miterlimit:4;stroke-dasharray:none;stroke-dashoffset:0;stroke-opacity:1;paint-order:normal"
       id="circle4958"
       cx="46.924324"
       cy="36.584309"
       r="4"
       inkscape:label="sin1" />
    <circle
       style="display:inline;vector-effect:none;fill:#0000ff;fill-opacity:1;fill-rule:evenodd;stroke:none;stroke-width:1;stroke-linecap:butt;stroke-linejoin:miter;stroke-miterlimit:4;stroke-dasharray:none;stroke-dashoffset:0;stroke-opacity:1;paint-order:normal"
       id="circle4958-4"
       cx="46.924324"
       cy="46.260811"
       r="4"
       inkscape:label="cos1" />
    <g
       aria-label="a"
       id="text542-8"
       style="font-size:3.175px;font-family:Courier;-inkscape-font-specification:'Courier, Normal';fill:#ffffff;stroke-width:0.2;stroke-linecap:round;stroke-linejoin:bevel">
      <path
         d="m 25.202538,69.42719 q -0.07906,-0.02791 -0.15658,-0.04031 -0.07596,-0.01395 -0.155029,-0.01395 -0.238745,0 -0.393774,0.08062 -0.15503,0.08061 -0.184485,0.217041 -0.0217,0.10542 0.04961,0.173632 0.07131,0.06821 0.204639,0.06821 0.196887,0 0.386023,-0.102319 0.190686,-0.10387 0.21394,-0.215491 z m -0.09147,0.488342 q -0.150379,0.114722 -0.31316,0.175183 -0.16278,0.06046 -0.32091,0.06046 -0.230994,0 -0.345716,-0.128674 -0.114721,-0.128674 -0.06976,-0.334863 0.05116,-0.244946 0.268201,-0.379822 0.217041,-0.134875 0.558105,-0.134875 0.08992,0 0.178284,0.0124 0.08992,0.01085 0.181384,0.03566 l 0.0016,-0.01085 q 0.03876,-0.178284 -0.02946,-0.26355 -0.06666,-0.08527 -0.246496,-0.08527 -0.120923,0 -0.283704,0.06511 -0.162781,0.06511 -0.21084,0.06511 -0.04496,0 -0.06666,-0.03566 -0.0217,-0.03721 -0.0093,-0.09457 0.02015,-0.09147 0.204638,-0.15503 0.184485,-0.06356 0.451136,-0.06356 0.272851,0 0.382922,0.139527 0.110071,0.137976 0.05271,0.409277 l -0.150378,0.702283 h 0.07596 q 0.110071,0 0.142627,0.02325 0.03256,0.02326 0.02015,0.08372 -0.0124,0.05581 -0.04961,0.08372 -0.03566,0.02791 -0.09767,0.02791 h -0.243396 q -0.04341,0 -0.06666,-0.02636 -0.0217,-0.02635 -0.02015,-0.07596 z"
         style="font-style:italic"
         id="path2474" />
    </g>
    <g
       aria-label="f"
       id="text542-5-5"
       style="font-size:3.175px;font-family:Courier;-inkscape-font-specification:'Courier, Normal';fill:#ffffff;stroke-width:0.2;stroke-linecap:round;stroke-linejoin:bevel">
      <path
         d="m 25.238195,60.620464 q 0.06356,0 0.08992,0.02791 0.02791,0.0279 0.01705,0.08216 -0.0124,0.05581 -0.04961,0.08372 -0.03721,0.0279 -0.09767,0.0279 h -1.013892 q -0.06356,0 -0.09147,-0.0279 -0.02791,-0.02791 -0.0155,-0.08372 0.01085,-0.05426 0.04806,-0.08216 0.03876,-0.02791 0.09922,-0.02791 h 0.26355 l 0.201538,-0.947229 h -0.254248 q -0.06356,0 -0.09302,-0.02946 -0.02791,-0.02946 -0.01705,-0.08372 0.0124,-0.05581 0.05116,-0.08372 0.03876,-0.0279 0.100769,-0.0279 h 0.244946 l 0.0217,-0.10542 q 0.06046,-0.280603 0.246497,-0.406177 0.186035,-0.127124 0.542602,-0.127124 0.173633,0 0.248047,0.03876 0.07597,0.03876 0.05736,0.120923 -0.0093,0.04806 -0.05271,0.07906 -0.04186,0.03101 -0.09767,0.03101 -0.02791,0 -0.130225,-0.0186 -0.102319,-0.0186 -0.178284,-0.0186 -0.175183,0 -0.26665,0.07441 -0.09147,0.07286 -0.127124,0.243396 l -0.0186,0.08837 h 0.548804 q 0.06356,0 0.08992,0.0279 0.02791,0.02791 0.0155,0.08372 -0.01085,0.05271 -0.05116,0.08372 -0.04031,0.02946 -0.09922,0.02946 h -0.536402 l -0.201538,0.947229 z"
         style="font-style:italic"
         id="path2471" />
    </g>
    <g
       aria-label="cos"
       id="text542-9-2"
       style="font-size:3.175px;font-family:Courier;-inkscape-font-specification:'Courier, Normal';fill:#ffffff;stroke-width:0.2;stroke-linecap:round;stroke-linejoin:bevel">
      <path
         d="m 54.663216,68.772966 0.0016,-0.0062 q 0.01085,-0.05116 0.04496,-0.07441 0.03566,-0.02481 0.09767,-0.02481 0.06356,0 0.07906,0.03721 0.0155,0.03721 -0.0093,0.153479 l -0.06046,0.288355 q -0.0124,0.05736 -0.04806,0.08682 -0.03566,0.02791 -0.09457,0.02791 -0.04186,0 -0.06666,-0.02325 -0.02481,-0.02481 -0.05271,-0.100769 -0.04806,-0.125574 -0.141077,-0.189136 -0.09147,-0.06511 -0.229443,-0.06511 -0.241846,0 -0.42323,0.142627 -0.181384,0.142627 -0.229443,0.368969 -0.04961,0.230994 0.06356,0.378272 0.114721,0.145728 0.342614,0.145728 0.10387,0 0.203089,-0.02791 0.100769,-0.02945 0.196887,-0.08682 0.03256,-0.0186 0.09147,-0.05736 0.117822,-0.08217 0.175183,-0.08217 0.04806,0 0.07131,0.03101 0.0248,0.02946 0.01395,0.07751 -0.02636,0.122473 -0.285254,0.251147 -0.258898,0.127124 -0.519348,0.127124 -0.336413,0 -0.514697,-0.21549 -0.178284,-0.215491 -0.110071,-0.537952 0.06976,-0.322461 0.337964,-0.537952 0.269751,-0.217041 0.604614,-0.217041 0.117823,0 0.229444,0.03256 0.111621,0.03101 0.230993,0.09767 z"
         style="font-style:italic"
         id="path2417" />
      <path
         d="m 55.855392,69.934135 q 0.238745,0 0.42323,-0.150378 0.184484,-0.151929 0.234094,-0.386023 0.05116,-0.234094 -0.07131,-0.386023 -0.120922,-0.153479 -0.358117,-0.153479 -0.237195,0 -0.42168,0.153479 -0.184485,0.151929 -0.235644,0.386023 -0.04961,0.235645 0.06976,0.386023 0.120923,0.150378 0.359668,0.150378 z m 0.927075,-0.536401 q -0.06976,0.331763 -0.341065,0.542603 -0.271301,0.210839 -0.632519,0.210839 -0.359668,0 -0.541052,-0.210839 -0.181385,-0.21084 -0.111621,-0.542603 0.07131,-0.331763 0.342614,-0.541052 0.271302,-0.21084 0.63097,-0.21084 0.359667,0 0.541052,0.21084 0.182934,0.21084 0.111621,0.541052 z"
         style="font-style:italic"
         id="path2419" />
      <path
         d="m 57.070821,70.000798 0.05891,-0.275952 q 0.01395,-0.06821 0.04496,-0.09767 0.03256,-0.02945 0.08992,-0.02945 0.06356,0 0.08216,0.08682 0.01395,0.05271 0.02791,0.07906 0.04806,0.08372 0.164331,0.134876 0.116272,0.04961 0.269751,0.04961 0.164331,0 0.277502,-0.06666 0.113172,-0.06666 0.136426,-0.175183 0.02325,-0.11007 -0.04651,-0.156579 -0.06976,-0.04651 -0.26355,-0.04651 h -0.08527 q -0.316259,0 -0.458886,-0.110071 -0.142627,-0.110071 -0.09767,-0.31936 0.04341,-0.204639 0.229443,-0.31781 0.186036,-0.113172 0.479041,-0.113172 0.119373,0 0.235645,0.03411 0.117822,0.03256 0.124023,0.03256 0.01705,0 0.07131,-0.02946 0.05426,-0.031 0.100769,-0.031 0.05271,0 0.06976,0.03876 0.0186,0.03876 0.0016,0.116272 l -0.03876,0.181384 q -0.01705,0.08217 -0.04961,0.119373 -0.03256,0.03566 -0.08682,0.03566 -0.04651,0 -0.09767,-0.07906 -0.03721,-0.05426 -0.06201,-0.08217 -0.06666,-0.07596 -0.153479,-0.108521 -0.08527,-0.03411 -0.21084,-0.03411 -0.145728,0 -0.248047,0.06511 -0.102319,0.06356 -0.124023,0.162781 -0.02015,0.09767 0.06201,0.139526 0.08217,0.04186 0.382923,0.04806 0.32091,0.0078 0.448034,0.113171 0.127124,0.10387 0.08062,0.322461 -0.04496,0.209289 -0.235644,0.334863 -0.190686,0.125574 -0.469739,0.125574 -0.08837,0 -0.193786,-0.01705 -0.10542,-0.0155 -0.262,-0.05426 -0.06046,0.03566 -0.10387,0.05271 -0.04186,0.0186 -0.06821,0.0186 -0.05426,0 -0.07597,-0.03721 -0.02015,-0.03876 -0.0047,-0.110071 z"
         style="font-style:italic"
         id="path2421" />
    </g>
    <g
       aria-label="sin"
       id="text542-5-6-9"
       style="font-size:3.175px;font-family:Courier;-inkscape-font-specification:'Courier, Normal';fill:#ffffff;stroke-width:0.2;stroke-linecap:round;stroke-linejoin:bevel">
      <path
         d="m 53.260201,60.730534 0.05891,-0.275952 q 0.01395,-0.06821 0.04496,-0.09767 0.03256,-0.02946 0.08992,-0.02946 0.06356,0 0.08216,0.08682 0.01395,0.05271 0.02791,0.07906 0.04806,0.08371 0.164331,0.134875 0.116272,0.04961 0.269751,0.04961 0.164331,0 0.277502,-0.06666 0.113172,-0.06666 0.136426,-0.175183 0.02325,-0.110071 -0.04651,-0.15658 -0.06976,-0.04651 -0.26355,-0.04651 h -0.08527 q -0.31626,0 -0.458886,-0.11007 -0.142627,-0.110071 -0.09767,-0.319361 0.04341,-0.204638 0.229443,-0.31781 0.186036,-0.113171 0.479041,-0.113171 0.119372,0 0.235644,0.03411 0.117823,0.03256 0.124024,0.03256 0.01705,0 0.07131,-0.02945 0.05426,-0.03101 0.100769,-0.03101 0.05271,0 0.06976,0.03876 0.0186,0.03876 0.0016,0.116272 l -0.03876,0.181384 q -0.01705,0.08217 -0.04961,0.119373 -0.03256,0.03566 -0.08682,0.03566 -0.04651,0 -0.09767,-0.07906 -0.03721,-0.05426 -0.06201,-0.08217 -0.06666,-0.07596 -0.153479,-0.10852 -0.08527,-0.03411 -0.21084,-0.03411 -0.145728,0 -0.248047,0.06511 -0.102319,0.06356 -0.124024,0.16278 -0.02015,0.09767 0.06201,0.139527 0.08217,0.04186 0.382923,0.04806 0.32091,0.0078 0.448034,0.113171 0.127124,0.10387 0.08062,0.322461 -0.04496,0.20929 -0.235644,0.334863 -0.190686,0.125574 -0.469739,0.125574 -0.08837,0 -0.193786,-0.01705 -0.10542,-0.0155 -0.262,-0.05426 -0.06046,0.03566 -0.10387,0.05271 -0.04186,0.0186 -0.06821,0.0186 -0.05426,0 -0.07596,-0.03721 -0.02015,-0.03876 -0.0047,-0.110071 z"
         style="font-style:italic"
         id="path2424" />
      <path
         d="m 56.073983,58.9632 q 0.03566,-0.167431 0.07441,-0.210839 0.04031,-0.04341 0.139526,-0.04341 0.09612,0 0.119373,0.03721 0.02325,0.03566 -0.0062,0.172083 -0.02791,0.133325 -0.06356,0.165881 -0.03566,0.03101 -0.136426,0.03101 -0.09922,0 -0.124023,-0.02946 -0.02325,-0.02946 -0.0031,-0.122474 z m -0.06666,1.660364 h 0.497644 q 0.06046,0 0.08372,0.02635 0.02326,0.02481 0.0124,0.08062 -0.01395,0.06356 -0.04651,0.08837 -0.03101,0.02325 -0.10387,0.02325 h -1.203027 q -0.06201,0 -0.08837,-0.0279 -0.02481,-0.02791 -0.0124,-0.08372 0.01085,-0.05426 0.04806,-0.08062 0.03876,-0.02635 0.103869,-0.02635 h 0.47284 l 0.21239,-0.993738 h -0.302307 q -0.06356,0 -0.09147,-0.02791 -0.02635,-0.02945 -0.0155,-0.08372 0.01085,-0.05426 0.04806,-0.08062 0.03721,-0.0279 0.09922,-0.0279 h 0.454236 q 0.04186,0 0.06201,0.01705 0.02015,0.01705 0.01395,0.04651 z"
         style="font-style:italic"
         id="path2426" />
      <path
         d="m 57.191744,60.623564 0.21239,-0.993738 h -0.02945 q -0.10542,0 -0.139527,-0.0248 -0.03411,-0.02481 -0.0217,-0.08682 0.0124,-0.05736 0.04961,-0.08217 0.03876,-0.02635 0.111621,-0.02635 h 0.07286 0.148828 q 0.04186,0 0.06046,0.01705 0.02015,0.01705 0.01395,0.04651 l -0.0217,0.10542 q 0.134875,-0.10542 0.255798,-0.15503 0.122473,-0.05116 0.241846,-0.05116 0.234094,0 0.336413,0.145727 0.10387,0.145728 0.04961,0.403076 l -0.150379,0.702283 h 0.07286 q 0.07751,0 0.10542,0.02635 0.02945,0.02481 0.0186,0.08062 -0.0124,0.06046 -0.05426,0.08682 -0.04186,0.0248 -0.134875,0.0248 h -0.342615 q -0.09922,0 -0.122473,-0.02325 -0.02325,-0.02325 -0.0093,-0.08837 0.0124,-0.06046 0.04961,-0.08371 0.03721,-0.02325 0.127124,-0.02325 h 0.05426 l 0.137976,-0.644922 q 0.03876,-0.181384 -0.02325,-0.275952 -0.06201,-0.09612 -0.218591,-0.09612 -0.15813,0 -0.302307,0.10697 -0.142627,0.10697 -0.176734,0.2651 l -0.137976,0.644922 h 0.05426 q 0.09302,0 0.120923,0.02325 0.0279,0.02325 0.0155,0.08371 -0.01395,0.06511 -0.04651,0.08837 -0.03256,0.02325 -0.141077,0.02325 h -0.282153 -0.08372 q -0.06356,0 -0.08992,-0.02635 -0.02636,-0.02791 -0.01395,-0.08527 0.0124,-0.06201 0.05271,-0.08371 0.04186,-0.02325 0.147278,-0.02325 z"
         style="font-style:italic"
         id="path2428" />
    </g>
    <circle
       style="display:inline;vector-effect:none;fill:#0000ff;fill-opacity:1;fill-rule:evenodd;stroke:none;stroke-width:1;stroke-linecap:butt;stroke-linejoin:miter;stroke-miterlimit:4;stroke-dasharray:none;stroke-dashoffset:0;stroke-opacity:1;paint-order:normal"
       id="circle4958-6"
       cx="46.924324"
       cy="59.573189"
       r="4"
       inkscape:label="sin2" />
    <circle
       style="display:inline;vector-effect:none;fill:#0000ff;fill-opacity:1;fill-rule:evenodd;stroke:none;stroke-width:1;stroke-linecap:butt;stroke-linejoin:miter;stroke-miterlimit:4;stroke-dasharray:none;stroke-dashoffset:0;stroke-opacity:1;paint-order:normal"
       id="circle4958-4-2"
       cx="46.924324"
       cy="69.24968"
       r="4"
       inkscape:label="cos2" />
    <g
       aria-label="a"
       id="text542-97"
       style="font-size:3.175px;font-family:Courier;-inkscape-font-specification:'Courier, Normal';fill:#ffffff;stroke-width:0.2;stroke-linecap:round;stroke-linejoin:bevel">
      <path
         d="m 25.202538,93.098721 q -0.07906,-0.02791 -0.15658,-0.04031 -0.07596,-0.01395 -0.155029,-0.01395 -0.238745,0 -0.393774,0.08062 -0.15503,0.08062 -0.184485,0.217041 -0.0217,0.10542 0.04961,0.173633 0.07131,0.06821 0.204639,0.06821 0.196887,0 0.386023,-0.102319 0.190686,-0.10387 0.21394,-0.215491 z m -0.09147,0.488343 q -0.150379,0.114721 -0.31316,0.175183 -0.16278,0.06046 -0.32091,0.06046 -0.230994,0 -0.345716,-0.128674 -0.114721,-0.128674 -0.06976,-0.334863 0.05116,-0.244947 0.268201,-0.379822 0.217041,-0.134876 0.558105,-0.134876 0.08992,0 0.178284,0.0124 0.08992,0.01085 0.181384,0.03566 l 0.0016,-0.01085 q 0.03876,-0.178283 -0.02946,-0.263549 -0.06666,-0.08527 -0.246496,-0.08527 -0.120923,0 -0.283704,0.06511 -0.162781,0.06511 -0.21084,0.06511 -0.04496,0 -0.06666,-0.03566 -0.0217,-0.03721 -0.0093,-0.09457 0.02015,-0.09147 0.204638,-0.155029 0.184485,-0.06356 0.451136,-0.06356 0.272851,0 0.382922,0.139526 0.110071,0.137977 0.05271,0.409278 l -0.150378,0.702283 h 0.07596 q 0.110071,0 0.142627,0.02325 0.03256,0.02325 0.02015,0.08372 -0.0124,0.05581 -0.04961,0.08372 -0.03566,0.02791 -0.09767,0.02791 h -0.243396 q -0.04341,0 -0.06666,-0.02635 -0.0217,-0.02636 -0.02015,-0.07597 z"
         style="font-style:italic"
         id="path2397" />
    </g>
    <g
       aria-label="f"
       id="text542-5-7"
       style="font-size:3.175px;font-family:Courier;-inkscape-font-specification:'Courier, Normal';fill:#ffffff;stroke-width:0.2;stroke-linecap:round;stroke-linejoin:bevel">
      <path
         d="m 25.238195,84.291988 q 0.06356,0 0.08992,0.0279 0.02791,0.02791 0.01705,0.08217 -0.0124,0.05581 -0.04961,0.08372 -0.03721,0.02791 -0.09767,0.02791 h -1.013892 q -0.06356,0 -0.09147,-0.02791 -0.02791,-0.02791 -0.0155,-0.08372 0.01085,-0.05426 0.04806,-0.08217 0.03876,-0.0279 0.09922,-0.0279 h 0.26355 l 0.201538,-0.947229 h -0.254248 q -0.06356,0 -0.09302,-0.02946 -0.02791,-0.02946 -0.01705,-0.08372 0.0124,-0.05581 0.05116,-0.08372 0.03876,-0.0279 0.100769,-0.0279 h 0.244946 l 0.0217,-0.10542 q 0.06046,-0.280603 0.246497,-0.406177 0.186035,-0.127124 0.542602,-0.127124 0.173633,0 0.248047,0.03876 0.07597,0.03876 0.05736,0.120923 -0.0093,0.04806 -0.05271,0.07906 -0.04186,0.03101 -0.09767,0.03101 -0.02791,0 -0.130225,-0.0186 -0.102319,-0.0186 -0.178284,-0.0186 -0.175183,0 -0.26665,0.07441 -0.09147,0.07286 -0.127124,0.243396 l -0.0186,0.08837 h 0.548804 q 0.06356,0 0.08992,0.0279 0.02791,0.02791 0.0155,0.08372 -0.01085,0.05271 -0.05116,0.08372 -0.04031,0.02946 -0.09922,0.02946 h -0.536402 l -0.201538,0.947229 z"
         style="font-style:italic"
         id="path2400" />
    </g>
    <g
       aria-label="cos"
       id="text542-9-0"
       style="font-size:3.175px;font-family:Courier;-inkscape-font-specification:'Courier, Normal';fill:#ffffff;stroke-width:0.2;stroke-linecap:round;stroke-linejoin:bevel">
      <path
         d="m 54.663216,92.444498 0.0016,-0.0062 q 0.01085,-0.05116 0.04496,-0.07442 0.03566,-0.0248 0.09767,-0.0248 0.06356,0 0.07906,0.03721 0.0155,0.03721 -0.0093,0.153479 l -0.06046,0.288354 q -0.0124,0.05736 -0.04806,0.08682 -0.03566,0.02791 -0.09457,0.02791 -0.04186,0 -0.06666,-0.02325 -0.02481,-0.02481 -0.05271,-0.100769 -0.04806,-0.125574 -0.141077,-0.189136 -0.09147,-0.06511 -0.229443,-0.06511 -0.241846,0 -0.42323,0.142627 -0.181384,0.142627 -0.229443,0.36897 -0.04961,0.230994 0.06356,0.378272 0.114721,0.145727 0.342614,0.145727 0.10387,0 0.203089,-0.02791 0.100769,-0.02946 0.196887,-0.08682 0.03256,-0.0186 0.09147,-0.05736 0.117822,-0.08217 0.175183,-0.08217 0.04806,0 0.07131,0.03101 0.0248,0.02946 0.01395,0.07751 -0.02636,0.122473 -0.285254,0.251147 -0.258898,0.127124 -0.519348,0.127124 -0.336413,0 -0.514697,-0.215491 -0.178284,-0.21549 -0.110071,-0.537951 0.06976,-0.322461 0.337964,-0.537952 0.269751,-0.217041 0.604614,-0.217041 0.117823,0 0.229444,0.03256 0.111621,0.03101 0.230993,0.09767 z"
         style="font-style:italic"
         id="path2403" />
      <path
         d="m 55.855392,93.605667 q 0.238745,0 0.42323,-0.150378 0.184484,-0.151929 0.234094,-0.386023 0.05116,-0.234094 -0.07131,-0.386023 -0.120922,-0.153479 -0.358117,-0.153479 -0.237195,0 -0.42168,0.153479 -0.184485,0.151929 -0.235644,0.386023 -0.04961,0.235644 0.06976,0.386023 0.120923,0.150378 0.359668,0.150378 z m 0.927075,-0.536401 q -0.06976,0.331762 -0.341065,0.542602 -0.271301,0.21084 -0.632519,0.21084 -0.359668,0 -0.541052,-0.21084 -0.181385,-0.21084 -0.111621,-0.542602 0.07131,-0.331763 0.342614,-0.541052 0.271302,-0.21084 0.63097,-0.21084 0.359667,0 0.541052,0.21084 0.182934,0.210839 0.111621,0.541052 z"
         style="font-style:italic"
         id="path2405" />
      <path
         d="m 57.070821,93.67233 0.05891,-0.275952 q 0.01395,-0.06821 0.04496,-0.09767 0.03256,-0.02945 0.08992,-0.02945 0.06356,0 0.08216,0.08682 0.01395,0.05271 0.02791,0.07906 0.04806,0.08372 0.164331,0.134875 0.116272,0.04961 0.269751,0.04961 0.164331,0 0.277502,-0.06666 0.113172,-0.06666 0.136426,-0.175183 0.02325,-0.110071 -0.04651,-0.15658 -0.06976,-0.04651 -0.26355,-0.04651 h -0.08527 q -0.316259,0 -0.458886,-0.110071 -0.142627,-0.110071 -0.09767,-0.31936 0.04341,-0.204639 0.229443,-0.317811 0.186036,-0.113171 0.479041,-0.113171 0.119373,0 0.235645,0.03411 0.117822,0.03256 0.124023,0.03256 0.01705,0 0.07131,-0.02946 0.05426,-0.03101 0.100769,-0.03101 0.05271,0 0.06976,0.03876 0.0186,0.03876 0.0016,0.116272 l -0.03876,0.181384 q -0.01705,0.08217 -0.04961,0.119372 -0.03256,0.03566 -0.08682,0.03566 -0.04651,0 -0.09767,-0.07906 -0.03721,-0.05426 -0.06201,-0.08216 -0.06666,-0.07597 -0.153479,-0.108521 -0.08527,-0.03411 -0.21084,-0.03411 -0.145728,0 -0.248047,0.06511 -0.102319,0.06356 -0.124023,0.162781 -0.02015,0.09767 0.06201,0.139526 0.08217,0.04186 0.382923,0.04806 0.32091,0.0078 0.448034,0.113172 0.127124,0.103869 0.08062,0.322461 -0.04496,0.209289 -0.235644,0.334863 -0.190686,0.125574 -0.469739,0.125574 -0.08837,0 -0.193786,-0.01705 -0.10542,-0.0155 -0.262,-0.05426 -0.06046,0.03566 -0.10387,0.05271 -0.04186,0.0186 -0.06821,0.0186 -0.05426,0 -0.07597,-0.03721 -0.02015,-0.03876 -0.0047,-0.110071 z"
         style="font-style:italic"
         id="path2407" />
    </g>
    <g
       aria-label="sin"
       id="text542-5-6-1"
       style="font-size:3.175px;font-family:Courier;-inkscape-font-specification:'Courier, Normal';fill:#ffffff;stroke-width:0.2;stroke-linecap:round;stroke-linejoin:bevel">
      <path
         d="m 53.260201,84.402058 0.05891,-0.275952 q 0.01395,-0.06821 0.04496,-0.09767 0.03256,-0.02946 0.08992,-0.02946 0.06356,0 0.08216,0.08682 0.01395,0.05271 0.02791,0.07906 0.04806,0.08372 0.164331,0.134875 0.116272,0.04961 0.269751,0.04961 0.164331,0 0.277502,-0.06666 0.113172,-0.06666 0.136426,-0.175183 0.02325,-0.110071 -0.04651,-0.15658 -0.06976,-0.04651 -0.26355,-0.04651 h -0.08527 q -0.31626,0 -0.458886,-0.11007 -0.142627,-0.110071 -0.09767,-0.319361 0.04341,-0.204638 0.229443,-0.31781 0.186036,-0.113171 0.479041,-0.113171 0.119372,0 0.235644,0.03411 0.117823,0.03256 0.124024,0.03256 0.01705,0 0.07131,-0.02945 0.05426,-0.03101 0.100769,-0.03101 0.05271,0 0.06976,0.03876 0.0186,0.03876 0.0016,0.116272 l -0.03876,0.181385 q -0.01705,0.08217 -0.04961,0.119372 -0.03256,0.03566 -0.08682,0.03566 -0.04651,0 -0.09767,-0.07906 -0.03721,-0.05426 -0.06201,-0.08217 -0.06666,-0.07596 -0.153479,-0.10852 -0.08527,-0.03411 -0.21084,-0.03411 -0.145728,0 -0.248047,0.06511 -0.102319,0.06356 -0.124024,0.16278 -0.02015,0.09767 0.06201,0.139527 0.08217,0.04186 0.382923,0.04806 0.32091,0.0078 0.448034,0.113171 0.127124,0.10387 0.08062,0.322461 -0.04496,0.20929 -0.235644,0.334864 -0.190686,0.125573 -0.469739,0.125573 -0.08837,0 -0.193786,-0.01705 -0.10542,-0.0155 -0.262,-0.05426 -0.06046,0.03566 -0.10387,0.05271 -0.04186,0.0186 -0.06821,0.0186 -0.05426,0 -0.07596,-0.03721 -0.02015,-0.03876 -0.0047,-0.110071 z"
         style="font-style:italic"
         id="path2410" />
      <path
         d="m 56.073983,82.634724 q 0.03566,-0.167431 0.07441,-0.210839 0.04031,-0.04341 0.139526,-0.04341 0.09612,0 0.119373,0.03721 0.02325,0.03566 -0.0062,0.172083 -0.02791,0.133325 -0.06356,0.165881 -0.03566,0.03101 -0.136426,0.03101 -0.09922,0 -0.124023,-0.02945 -0.02325,-0.02946 -0.0031,-0.122474 z m -0.06666,1.660364 h 0.497644 q 0.06046,0 0.08372,0.02635 0.02326,0.02481 0.0124,0.08061 -0.01395,0.06356 -0.04651,0.08837 -0.03101,0.02325 -0.10387,0.02325 h -1.203027 q -0.06201,0 -0.08837,-0.02791 -0.02481,-0.02791 -0.0124,-0.08372 0.01085,-0.05426 0.04806,-0.08061 0.03876,-0.02635 0.103869,-0.02635 h 0.47284 l 0.21239,-0.993738 h -0.302307 q -0.06356,0 -0.09147,-0.02791 -0.02635,-0.02945 -0.0155,-0.08372 0.01085,-0.05426 0.04806,-0.08061 0.03721,-0.02791 0.09922,-0.02791 h 0.454236 q 0.04186,0 0.06201,0.01705 0.02015,0.01705 0.01395,0.04651 z"
         style="font-style:italic"
         id="path2412" />
      <path
         d="m 57.191744,84.295088 0.21239,-0.993738 h -0.02945 q -0.10542,0 -0.139527,-0.0248 -0.03411,-0.02481 -0.0217,-0.08682 0.0124,-0.05736 0.04961,-0.08217 0.03876,-0.02635 0.111621,-0.02635 h 0.07286 0.148828 q 0.04186,0 0.06046,0.01705 0.02015,0.01705 0.01395,0.04651 l -0.0217,0.10542 q 0.134875,-0.10542 0.255798,-0.15503 0.122473,-0.05116 0.241846,-0.05116 0.234094,0 0.336413,0.145727 0.10387,0.145728 0.04961,0.403076 l -0.150379,0.702283 h 0.07286 q 0.07751,0 0.10542,0.02635 0.02945,0.02481 0.0186,0.08061 -0.0124,0.06046 -0.05426,0.08682 -0.04186,0.02481 -0.134875,0.02481 h -0.342615 q -0.09922,0 -0.122473,-0.02325 -0.02325,-0.02325 -0.0093,-0.08837 0.0124,-0.06046 0.04961,-0.08371 0.03721,-0.02325 0.127124,-0.02325 h 0.05426 l 0.137976,-0.644922 q 0.03876,-0.181384 -0.02325,-0.275952 -0.06201,-0.09612 -0.218591,-0.09612 -0.15813,0 -0.302307,0.10697 -0.142627,0.10697 -0.176734,0.2651 l -0.137976,0.644922 h 0.05426 q 0.09302,0 0.120923,0.02325 0.0279,0.02325 0.0155,0.08371 -0.01395,0.06511 -0.04651,0.08837 -0.03256,0.02325 -0.141077,0.02325 h -0.282153 -0.08372 q -0.06356,0 -0.08992,-0.02635 -0.02636,-0.02791 -0.01395,-0.08527 0.0124,-0.06201 0.05271,-0.08371 0.04186,-0.02325 0.147278,-0.02325 z"
         style="font-style:italic"
         id="path2414" />
    </g>
    <circle
       style="display:inline;vector-effect:none;fill:#0000ff;fill-opacity:1;fill-rule:evenodd;stroke:none;stroke-width:1;stroke-linecap:butt;stroke-linejoin:miter;stroke-miterlimit:4;stroke-dasharray:none;stroke-dashoffset:0;stroke-opacity:1;paint-order:normal"
       id="circle4958-5"
       cx="46.924324"
       cy="83.244705"
       r="4"
       inkscape:label="sin3" />
    <circle
       style="display:inline;vector-effect:none;fill:#0000ff;fill-opacity:1;fill-rule:evenodd;stroke:none;stroke-width:1;stroke-linecap:butt;stroke-linejoin:miter;stroke-miterlimit:4;stroke-dasharray:none;stroke-dashoffset:0;stroke-opacity:1;paint-order:normal"
       id="circle4958-4-8"
       cx="46.924324"
       cy="92.921204"
       r="4"
       inkscape:label="cos3" />
    <g
       aria-label="a"
       id="text542-4"
       style="font-size:3.175px;font-family:Courier;-inkscape-font-specification:'Courier, Normal';fill:#ffffff;stroke-width:0.2;stroke-linecap:round;stroke-linejoin:bevel">
      <path
         d="m 25.202538,117.59393 q -0.07906,-0.0279 -0.15658,-0.0403 -0.07596,-0.0139 -0.155029,-0.0139 -0.238745,0 -0.393774,0.0806 -0.15503,0.0806 -0.184485,0.21704 -0.0217,0.10542 0.04961,0.17363 0.07131,0.0682 0.204639,0.0682 0.196887,0 0.386023,-0.10232 0.190686,-0.10387 0.21394,-0.21549 z m -0.09147,0.48834 q -0.150379,0.11472 -0.31316,0.17519 -0.16278,0.0605 -0.32091,0.0605 -0.230994,0 -0.345716,-0.12868 -0.114721,-0.12867 -0.06976,-0.33486 0.05116,-0.24495 0.268201,-0.37982 0.217041,-0.13488 0.558105,-0.13488 0.08992,0 0.178284,0.0124 0.08992,0.0109 0.181384,0.0357 l 0.0016,-0.0108 q 0.03876,-0.17828 -0.02946,-0.26355 -0.06666,-0.0853 -0.246496,-0.0853 -0.120923,0 -0.283704,0.0651 -0.162781,0.0651 -0.21084,0.0651 -0.04496,0 -0.06666,-0.0357 -0.0217,-0.0372 -0.0093,-0.0946 0.02015,-0.0915 0.204638,-0.15503 0.184485,-0.0636 0.451136,-0.0636 0.272851,0 0.382922,0.13953 0.110071,0.13797 0.05271,0.40928 l -0.150378,0.70228 h 0.07596 q 0.110071,0 0.142627,0.0233 0.03256,0.0233 0.02015,0.0837 -0.0124,0.0558 -0.04961,0.0837 -0.03566,0.0279 -0.09767,0.0279 h -0.243396 q -0.04341,0 -0.06666,-0.0264 -0.0217,-0.0263 -0.02015,-0.076 z"
         style="font-style:italic"
         id="path2391" />
    </g>
    <g
       aria-label="f"
       id="text542-5-61"
       style="font-size:3.175px;font-family:Courier;-inkscape-font-specification:'Courier, Normal';fill:#ffffff;stroke-width:0.2;stroke-linecap:round;stroke-linejoin:bevel">
      <path
         d="m 25.238195,108.78726 q 0.06356,0 0.08992,0.0279 0.02791,0.0279 0.01705,0.0822 -0.0124,0.0558 -0.04961,0.0837 -0.03721,0.0279 -0.09767,0.0279 h -1.013892 q -0.06356,0 -0.09147,-0.0279 -0.02791,-0.0279 -0.0155,-0.0837 0.01085,-0.0543 0.04806,-0.0822 0.03876,-0.0279 0.09922,-0.0279 h 0.26355 l 0.201538,-0.94723 h -0.254248 q -0.06356,0 -0.09302,-0.0295 -0.02791,-0.0294 -0.01705,-0.0837 0.0124,-0.0558 0.05116,-0.0837 0.03876,-0.0279 0.100769,-0.0279 h 0.244946 l 0.0217,-0.10542 q 0.06046,-0.28061 0.246497,-0.40618 0.186035,-0.12712 0.542602,-0.12712 0.173633,0 0.248047,0.0388 0.07597,0.0388 0.05736,0.12093 -0.0093,0.0481 -0.05271,0.0791 -0.04186,0.031 -0.09767,0.031 -0.02791,0 -0.130225,-0.0186 -0.102319,-0.0186 -0.178284,-0.0186 -0.175183,0 -0.26665,0.0744 -0.09147,0.0729 -0.127124,0.2434 l -0.0186,0.0884 h 0.548804 q 0.06356,0 0.08992,0.0279 0.02791,0.0279 0.0155,0.0837 -0.01085,0.0527 -0.05116,0.0837 -0.04031,0.0295 -0.09922,0.0295 h -0.536402 l -0.201538,0.94723 z"
         style="font-style:italic"
         id="path2394" />
    </g>
    <g
       aria-label="cos"
       id="text542-9-4"
       style="font-size:3.175px;font-family:Courier;-inkscape-font-specification:'Courier, Normal';fill:#ffffff;stroke-width:0.2;stroke-linecap:round;stroke-linejoin:bevel">
      <path
         d="m 54.663216,116.93971 0.0016,-0.006 q 0.01085,-0.0512 0.04496,-0.0744 0.03566,-0.0248 0.09767,-0.0248 0.06356,0 0.07906,0.0372 0.0155,0.0372 -0.0093,0.15348 l -0.06046,0.28836 q -0.0124,0.0574 -0.04806,0.0868 -0.03566,0.0279 -0.09457,0.0279 -0.04186,0 -0.06666,-0.0233 -0.02481,-0.0248 -0.05271,-0.10076 -0.04806,-0.12558 -0.141077,-0.18914 -0.09147,-0.0651 -0.229443,-0.0651 -0.241846,0 -0.42323,0.14262 -0.181384,0.14263 -0.229443,0.36897 -0.04961,0.231 0.06356,0.37828 0.114721,0.14572 0.342614,0.14572 0.10387,0 0.203089,-0.0279 0.100769,-0.0295 0.196887,-0.0868 0.03256,-0.0186 0.09147,-0.0574 0.117822,-0.0822 0.175183,-0.0822 0.04806,0 0.07131,0.031 0.0248,0.0295 0.01395,0.0775 -0.02636,0.12247 -0.285254,0.25114 -0.258898,0.12713 -0.519348,0.12713 -0.336413,0 -0.514697,-0.21549 -0.178284,-0.21549 -0.110071,-0.53796 0.06976,-0.32246 0.337964,-0.53795 0.269751,-0.21704 0.604614,-0.21704 0.117823,0 0.229444,0.0326 0.111621,0.031 0.230993,0.0977 z"
         style="font-style:italic"
         id="path2384" />
      <path
         d="m 55.855392,118.10088 q 0.238745,0 0.42323,-0.15038 0.184484,-0.15193 0.234094,-0.38603 0.05116,-0.23409 -0.07131,-0.38602 -0.120922,-0.15348 -0.358117,-0.15348 -0.237195,0 -0.42168,0.15348 -0.184485,0.15193 -0.235644,0.38602 -0.04961,0.23565 0.06976,0.38603 0.120923,0.15038 0.359668,0.15038 z m 0.927075,-0.53641 q -0.06976,0.33177 -0.341065,0.54261 -0.271301,0.21084 -0.632519,0.21084 -0.359668,0 -0.541052,-0.21084 -0.181385,-0.21084 -0.111621,-0.54261 0.07131,-0.33176 0.342614,-0.54105 0.271302,-0.21084 0.63097,-0.21084 0.359667,0 0.541052,0.21084 0.182934,0.21084 0.111621,0.54105 z"
         style="font-style:italic"
         id="path2386" />
      <path
         d="m 57.070821,118.16754 0.05891,-0.27595 q 0.01395,-0.0682 0.04496,-0.0977 0.03256,-0.0295 0.08992,-0.0295 0.06356,0 0.08216,0.0868 0.01395,0.0527 0.02791,0.0791 0.04806,0.0837 0.164331,0.13488 0.116272,0.0496 0.269751,0.0496 0.164331,0 0.277502,-0.0667 0.113172,-0.0667 0.136426,-0.17519 0.02325,-0.11007 -0.04651,-0.15658 -0.06976,-0.0465 -0.26355,-0.0465 h -0.08527 q -0.316259,0 -0.458886,-0.11007 -0.142627,-0.11007 -0.09767,-0.31936 0.04341,-0.20464 0.229443,-0.31781 0.186036,-0.11317 0.479041,-0.11317 0.119373,0 0.235645,0.0341 0.117822,0.0326 0.124023,0.0326 0.01705,0 0.07131,-0.0295 0.05426,-0.031 0.100769,-0.031 0.05271,0 0.06976,0.0388 0.0186,0.0388 0.0016,0.11627 l -0.03876,0.18139 q -0.01705,0.0822 -0.04961,0.11937 -0.03256,0.0357 -0.08682,0.0357 -0.04651,0 -0.09767,-0.0791 -0.03721,-0.0543 -0.06201,-0.0822 -0.06666,-0.076 -0.153479,-0.10853 -0.08527,-0.0341 -0.21084,-0.0341 -0.145728,0 -0.248047,0.0651 -0.102319,0.0636 -0.124023,0.16278 -0.02015,0.0977 0.06201,0.13953 0.08217,0.0419 0.382923,0.0481 0.32091,0.008 0.448034,0.11317 0.127124,0.10387 0.08062,0.32246 -0.04496,0.20929 -0.235644,0.33486 -0.190686,0.12558 -0.469739,0.12558 -0.08837,0 -0.193786,-0.0171 -0.10542,-0.0155 -0.262,-0.0543 -0.06046,0.0357 -0.10387,0.0527 -0.04186,0.0186 -0.06821,0.0186 -0.05426,0 -0.07597,-0.0372 -0.02015,-0.0388 -0.0047,-0.11007 z"
         style="font-style:italic"
         id="path2388" />
    </g>
    <g
       aria-label="sin"
       id="text542-5-6-5"
       style="font-size:3.175px;font-family:Courier;-inkscape-font-specification:'Courier, Normal';fill:#ffffff;stroke-width:0.2;stroke-linecap:round;stroke-linejoin:bevel">
      <path
         d="m 53.260201,108.89733 0.05891,-0.27595 q 0.01395,-0.0682 0.04496,-0.0977 0.03256,-0.0295 0.08992,-0.0295 0.06356,0 0.08216,0.0868 0.01395,0.0527 0.02791,0.0791 0.04806,0.0837 0.164331,0.13488 0.116272,0.0496 0.269751,0.0496 0.164331,0 0.277502,-0.0667 0.113172,-0.0667 0.136426,-0.17519 0.02325,-0.11007 -0.04651,-0.15658 -0.06976,-0.0465 -0.26355,-0.0465 h -0.08527 q -0.31626,0 -0.458886,-0.11007 -0.142627,-0.11007 -0.09767,-0.31936 0.04341,-0.20464 0.229443,-0.31781 0.186036,-0.11317 0.479041,-0.11317 0.119372,0 0.235644,0.0341 0.117823,0.0326 0.124024,0.0326 0.01705,0 0.07131,-0.0294 0.05426,-0.031 0.100769,-0.031 0.05271,0 0.06976,0.0388 0.0186,0.0388 0.0016,0.11627 l -0.03876,0.18139 q -0.01705,0.0822 -0.04961,0.11937 -0.03256,0.0357 -0.08682,0.0357 -0.04651,0 -0.09767,-0.0791 -0.03721,-0.0543 -0.06201,-0.0822 -0.06666,-0.076 -0.153479,-0.10853 -0.08527,-0.0341 -0.21084,-0.0341 -0.145728,0 -0.248047,0.0651 -0.102319,0.0636 -0.124024,0.16278 -0.02015,0.0977 0.06201,0.13953 0.08217,0.0419 0.382923,0.0481 0.32091,0.008 0.448034,0.11317 0.127124,0.10387 0.08062,0.32246 -0.04496,0.20929 -0.235644,0.33486 -0.190686,0.12558 -0.469739,0.12558 -0.08837,0 -0.193786,-0.0171 -0.10542,-0.0155 -0.262,-0.0543 -0.06046,0.0357 -0.10387,0.0527 -0.04186,0.0186 -0.06821,0.0186 -0.05426,0 -0.07596,-0.0372 -0.02015,-0.0388 -0.0047,-0.11007 z"
         style="font-style:italic"
         id="path2377" />
      <path
         d="m 56.073983,107.12999 q 0.03566,-0.16743 0.07441,-0.21084 0.04031,-0.0434 0.139526,-0.0434 0.09612,0 0.119373,0.0372 0.02325,0.0357 -0.0062,0.17209 -0.02791,0.13332 -0.06356,0.16588 -0.03566,0.031 -0.136426,0.031 -0.09922,0 -0.124023,-0.0294 -0.02325,-0.0295 -0.0031,-0.12248 z m -0.06666,1.66037 h 0.497644 q 0.06046,0 0.08372,0.0263 0.02326,0.0248 0.0124,0.0806 -0.01395,0.0636 -0.04651,0.0884 -0.03101,0.0233 -0.10387,0.0233 h -1.203027 q -0.06201,0 -0.08837,-0.0279 -0.02481,-0.0279 -0.0124,-0.0837 0.01085,-0.0543 0.04806,-0.0806 0.03876,-0.0263 0.103869,-0.0263 h 0.47284 l 0.21239,-0.99374 h -0.302307 q -0.06356,0 -0.09147,-0.0279 -0.02635,-0.0294 -0.0155,-0.0837 0.01085,-0.0543 0.04806,-0.0806 0.03721,-0.0279 0.09922,-0.0279 h 0.454236 q 0.04186,0 0.06201,0.017 0.02015,0.0171 0.01395,0.0465 z"
         style="font-style:italic"
         id="path2379" />
      <path
         d="m 57.191744,108.79036 0.21239,-0.99374 h -0.02945 q -0.10542,0 -0.139527,-0.0248 -0.03411,-0.0248 -0.0217,-0.0868 0.0124,-0.0574 0.04961,-0.0822 0.03876,-0.0263 0.111621,-0.0263 h 0.07286 0.148828 q 0.04186,0 0.06046,0.017 0.02015,0.0171 0.01395,0.0465 l -0.0217,0.10542 q 0.134875,-0.10542 0.255798,-0.15503 0.122473,-0.0512 0.241846,-0.0512 0.234094,0 0.336413,0.14573 0.10387,0.14573 0.04961,0.40308 l -0.150379,0.70228 h 0.07286 q 0.07751,0 0.10542,0.0263 0.02945,0.0248 0.0186,0.0806 -0.0124,0.0605 -0.05426,0.0868 -0.04186,0.0248 -0.134875,0.0248 h -0.342615 q -0.09922,0 -0.122473,-0.0233 -0.02325,-0.0233 -0.0093,-0.0884 0.0124,-0.0605 0.04961,-0.0837 0.03721,-0.0232 0.127124,-0.0232 h 0.05426 l 0.137976,-0.64492 q 0.03876,-0.18139 -0.02325,-0.27596 -0.06201,-0.0961 -0.218591,-0.0961 -0.15813,0 -0.302307,0.10697 -0.142627,0.10697 -0.176734,0.2651 l -0.137976,0.64492 h 0.05426 q 0.09302,0 0.120923,0.0232 0.0279,0.0233 0.0155,0.0837 -0.01395,0.0651 -0.04651,0.0884 -0.03256,0.0233 -0.141077,0.0233 h -0.282153 -0.08372 q -0.06356,0 -0.08992,-0.0264 -0.02636,-0.0279 -0.01395,-0.0853 0.0124,-0.062 0.05271,-0.0837 0.04186,-0.0232 0.147278,-0.0232 z"
         style="font-style:italic"
         id="path2381" />
    </g>
    <circle
       style="display:inline;vector-effect:none;fill:#0000ff;fill-opacity:1;fill-rule:evenodd;stroke:none;stroke-width:1;stroke-linecap:butt;stroke-linejoin:miter;stroke-miterlimit:4;stroke-dasharray:none;stroke-dashoffset:0;stroke-opacity:1;paint-order:normal"
       id="circle4958-0"
       cx="46.924324"
       cy="107.73995"
       r="4"
       inkscape:label="sin4" />
    <circle
       style="display:inline;vector-effect:none;fill:#0000ff;fill-opacity:1;fill-rule:evenodd;stroke:none;stroke-width:1;stroke-linecap:butt;stroke-linejoin:miter;stroke-miterlimit:4;stroke-dasharray:none;stroke-dashoffset:0;stroke-opacity:1;paint-order:normal"
       id="circle4958-4-5"
       cx="46.924324"
       cy="117.41642"
       r="4"
       inkscape:label="cos4" />
    <g
       aria-label="a"
       id="text542-89"
       style="font-size:3.175px;font-family:Courier;-inkscape-font-specification:'Courier, Normal';fill:#ffffff;stroke-width:0.2;stroke-linecap:round;stroke-linejoin:bevel">
      <path
         d="m 25.202528,21.428716 q -0.07906,-0.02791 -0.156579,-0.04031 -0.07597,-0.01395 -0.15503,-0.01395 -0.238745,0 -0.393774,0.08062 -0.155029,0.08061 -0.184485,0.217041 -0.0217,0.105419 0.04961,0.173632 0.07131,0.06821 0.204638,0.06821 0.196887,0 0.386023,-0.102319 0.190686,-0.10387 0.213941,-0.215491 z m -0.09147,0.488342 q -0.150378,0.114721 -0.313159,0.175183 -0.162781,0.06046 -0.320911,0.06046 -0.230993,0 -0.345715,-0.128674 -0.114722,-0.128674 -0.06976,-0.334863 0.05116,-0.244947 0.2682,-0.379822 0.217041,-0.134876 0.558106,-0.134876 0.08992,0 0.178284,0.0124 0.08992,0.01085 0.181384,0.03566 l 0.0016,-0.01085 q 0.03876,-0.178284 -0.02946,-0.26355 -0.06666,-0.08527 -0.246497,-0.08527 -0.120923,0 -0.283704,0.06511 -0.16278,0.06511 -0.210839,0.06511 -0.04496,0 -0.06666,-0.03566 -0.0217,-0.03721 -0.0093,-0.09457 0.02015,-0.09147 0.204639,-0.15503 0.184485,-0.06356 0.451135,-0.06356 0.272852,0 0.382922,0.139527 0.110071,0.137976 0.05271,0.409277 l -0.150378,0.702283 h 0.07596 q 0.110071,0 0.142627,0.02325 0.03256,0.02325 0.02015,0.08372 -0.0124,0.05581 -0.04961,0.08372 -0.03566,0.02791 -0.09767,0.02791 h -0.243396 q -0.04341,0 -0.06666,-0.02636 -0.0217,-0.02635 -0.02015,-0.07596 z"
         style="font-style:italic"
         id="path2459" />
    </g>
    <g
       aria-label="f"
       id="text542-5-8"
       style="font-size:3.175px;font-family:Courier;-inkscape-font-specification:'Courier, Normal';fill:#ffffff;stroke-width:0.2;stroke-linecap:round;stroke-linejoin:bevel">
      <path
         d="m 25.238185,12.622003 q 0.06356,0 0.08992,0.02791 0.02791,0.02791 0.01705,0.08217 -0.0124,0.05581 -0.04961,0.08371 -0.03721,0.02791 -0.09767,0.02791 h -1.013891 q -0.06356,0 -0.09147,-0.02791 -0.02791,-0.02791 -0.0155,-0.08371 0.01085,-0.05426 0.04806,-0.08217 0.03876,-0.02791 0.09922,-0.02791 h 0.263549 l 0.201538,-0.947229 h -0.254248 q -0.06356,0 -0.09302,-0.02946 -0.02791,-0.02946 -0.01705,-0.08372 0.0124,-0.05581 0.05116,-0.08371 0.03876,-0.02791 0.100769,-0.02791 h 0.244947 l 0.0217,-0.10542 q 0.06046,-0.280603 0.246496,-0.406176 0.186035,-0.127124 0.542603,-0.127124 0.173633,0 0.248047,0.03876 0.07596,0.03876 0.05736,0.120923 -0.0093,0.04806 -0.05271,0.07906 -0.04186,0.03101 -0.09767,0.03101 -0.02791,0 -0.130225,-0.0186 -0.102319,-0.0186 -0.178283,-0.0186 -0.175183,0 -0.266651,0.07441 -0.09147,0.07286 -0.127124,0.243396 l -0.0186,0.08837 h 0.548804 q 0.06356,0 0.08992,0.02791 0.02791,0.0279 0.0155,0.08371 -0.01085,0.05271 -0.05116,0.08372 -0.04031,0.02946 -0.09922,0.02946 h -0.536401 l -0.201538,0.947229 z"
         style="font-style:italic"
         id="path2462" />
    </g>
    <g
       aria-label="cos"
       id="text542-9-7"
       style="font-size:3.175px;font-family:Courier;-inkscape-font-specification:'Courier, Normal';fill:#ffffff;stroke-width:0.2;stroke-linecap:round;stroke-linejoin:bevel">
      <path
         d="m 54.663213,20.774492 0.0016,-0.0062 q 0.01085,-0.05116 0.04496,-0.07441 0.03566,-0.02481 0.09767,-0.02481 0.06356,0 0.07906,0.03721 0.0155,0.03721 -0.0093,0.153479 l -0.06046,0.288355 q -0.0124,0.05736 -0.04806,0.08682 -0.03566,0.02791 -0.09457,0.02791 -0.04186,0 -0.06666,-0.02325 -0.02481,-0.02481 -0.05271,-0.100769 -0.04806,-0.125574 -0.141077,-0.189136 -0.09147,-0.06511 -0.229443,-0.06511 -0.241846,0 -0.42323,0.142627 -0.181384,0.142627 -0.229443,0.368969 -0.04961,0.230994 0.06356,0.378272 0.114721,0.145727 0.342614,0.145727 0.10387,0 0.203089,-0.02791 0.100769,-0.02945 0.196887,-0.08682 0.03256,-0.0186 0.09147,-0.05736 0.117823,-0.08217 0.175183,-0.08217 0.04806,0 0.07131,0.03101 0.02481,0.02946 0.01395,0.07751 -0.02636,0.122473 -0.285254,0.251147 -0.258899,0.127124 -0.519348,0.127124 -0.336414,0 -0.514698,-0.21549 -0.178283,-0.215491 -0.110071,-0.537952 0.06976,-0.322461 0.337964,-0.537952 0.269751,-0.217041 0.604615,-0.217041 0.117822,0 0.229443,0.03256 0.111621,0.03101 0.230994,0.09767 z"
         style="font-style:italic"
         id="path2445" />
      <path
         d="m 55.855388,21.935661 q 0.238745,0 0.42323,-0.150378 0.184485,-0.151929 0.234094,-0.386023 0.05116,-0.234094 -0.07131,-0.386023 -0.120923,-0.153479 -0.358118,-0.153479 -0.237195,0 -0.42168,0.153479 -0.184485,0.151929 -0.235644,0.386023 -0.04961,0.235644 0.06976,0.386023 0.120923,0.150378 0.359668,0.150378 z m 0.927075,-0.536401 q -0.06976,0.331763 -0.341064,0.542602 -0.271302,0.21084 -0.63252,0.21084 -0.359668,0 -0.541052,-0.21084 -0.181384,-0.210839 -0.111621,-0.542602 0.07131,-0.331763 0.342614,-0.541052 0.271302,-0.21084 0.63097,-0.21084 0.359668,0 0.541052,0.21084 0.182934,0.21084 0.111621,0.541052 z"
         style="font-style:italic"
         id="path2447" />
      <path
         d="m 57.070818,22.002324 0.05891,-0.275952 q 0.01395,-0.06821 0.04496,-0.09767 0.03256,-0.02946 0.08992,-0.02946 0.06356,0 0.08217,0.08682 0.01395,0.05271 0.02791,0.07907 0.04806,0.08372 0.164331,0.134876 0.116272,0.04961 0.269751,0.04961 0.164331,0 0.277502,-0.06666 0.113172,-0.06666 0.136426,-0.175183 0.02325,-0.110071 -0.04651,-0.156579 -0.06976,-0.04651 -0.263549,-0.04651 h -0.08527 q -0.316259,0 -0.458886,-0.110071 -0.142627,-0.110071 -0.09767,-0.31936 0.04341,-0.204639 0.229444,-0.31781 0.186035,-0.113172 0.47904,-0.113172 0.119373,0 0.235645,0.03411 0.117822,0.03256 0.124023,0.03256 0.01705,0 0.07131,-0.02946 0.05426,-0.03101 0.100769,-0.03101 0.05271,0 0.06976,0.03876 0.0186,0.03876 0.0015,0.116272 l -0.03876,0.181384 q -0.01705,0.08217 -0.04961,0.119373 -0.03256,0.03566 -0.08682,0.03566 -0.04651,0 -0.09767,-0.07906 -0.03721,-0.05426 -0.06201,-0.08216 -0.06666,-0.07596 -0.153479,-0.108521 -0.08527,-0.03411 -0.21084,-0.03411 -0.145728,0 -0.248047,0.06511 -0.102319,0.06356 -0.124023,0.162781 -0.02015,0.09767 0.06201,0.139526 0.08217,0.04186 0.382923,0.04806 0.32091,0.0078 0.448034,0.113172 0.127124,0.103869 0.08062,0.322461 -0.04496,0.209289 -0.235645,0.334863 -0.190686,0.125574 -0.469739,0.125574 -0.08837,0 -0.193786,-0.01705 -0.10542,-0.0155 -0.262,-0.05426 -0.06046,0.03566 -0.103869,0.05271 -0.04186,0.0186 -0.06821,0.0186 -0.05426,0 -0.07596,-0.03721 -0.02015,-0.03876 -0.0046,-0.110071 z"
         style="font-style:italic"
         id="path2449" />
    </g>
    <g
       aria-label="sin"
       id="text542-5-6-3"
       style="font-size:3.175px;font-family:Courier;-inkscape-font-specification:'Courier, Normal';fill:#ffffff;stroke-width:0.2;stroke-linecap:round;stroke-linejoin:bevel">
      <path
         d="m 53.260197,12.732074 0.05891,-0.275953 q 0.01395,-0.06821 0.04496,-0.09767 0.03256,-0.02946 0.08992,-0.02946 0.06356,0 0.08217,0.08682 0.01395,0.05271 0.02791,0.07906 0.04806,0.08372 0.164331,0.134875 0.116272,0.04961 0.269751,0.04961 0.164331,0 0.277502,-0.06666 0.113172,-0.06666 0.136426,-0.175183 0.02325,-0.110071 -0.04651,-0.15658 -0.06976,-0.04651 -0.263549,-0.04651 h -0.08527 q -0.316259,0 -0.458886,-0.110071 -0.142627,-0.110071 -0.09767,-0.319361 0.04341,-0.204638 0.229444,-0.31781 0.186035,-0.113171 0.47904,-0.113171 0.119373,0 0.235645,0.03411 0.117822,0.03256 0.124023,0.03256 0.01705,0 0.07131,-0.02946 0.05426,-0.03101 0.100769,-0.03101 0.05271,0 0.06976,0.03876 0.0186,0.03876 0.0015,0.116272 l -0.03876,0.181385 q -0.01705,0.08216 -0.04961,0.119372 -0.03256,0.03566 -0.08682,0.03566 -0.04651,0 -0.09767,-0.07906 -0.03721,-0.05426 -0.06201,-0.08216 -0.06666,-0.07597 -0.153479,-0.108521 -0.08527,-0.03411 -0.21084,-0.03411 -0.145728,0 -0.248047,0.06511 -0.102319,0.06356 -0.124023,0.162781 -0.02015,0.09767 0.06201,0.139526 0.08217,0.04186 0.382923,0.04806 0.32091,0.0078 0.448034,0.113171 0.127124,0.10387 0.08062,0.322461 -0.04496,0.20929 -0.235645,0.334864 -0.190686,0.125573 -0.469739,0.125573 -0.08837,0 -0.193786,-0.01705 -0.10542,-0.0155 -0.262,-0.05426 -0.06046,0.03566 -0.103869,0.05271 -0.04186,0.0186 -0.06821,0.0186 -0.05426,0 -0.07596,-0.03721 -0.02015,-0.03876 -0.0047,-0.11007 z"
         style="font-style:italic"
         id="path2452" />
      <path
         d="m 56.073979,10.96474 q 0.03566,-0.167432 0.07441,-0.21084 0.04031,-0.04341 0.139527,-0.04341 0.09612,0 0.119372,0.03721 0.02325,0.03566 -0.0062,0.172082 -0.02791,0.133325 -0.06356,0.165881 -0.03566,0.03101 -0.136426,0.03101 -0.09922,0 -0.124023,-0.02946 -0.02325,-0.02946 -0.0031,-0.122473 z m -0.06666,1.660363 h 0.497644 q 0.06046,0 0.08371,0.02636 0.02325,0.02481 0.0124,0.08062 -0.01395,0.06356 -0.04651,0.08837 -0.03101,0.02326 -0.10387,0.02326 h -1.203027 q -0.06201,0 -0.08837,-0.02791 -0.0248,-0.02791 -0.0124,-0.08371 0.01085,-0.05426 0.04806,-0.08062 0.03876,-0.02636 0.10387,-0.02636 h 0.472839 l 0.21239,-0.993737 h -0.302307 q -0.06356,0 -0.09147,-0.02791 -0.02636,-0.02946 -0.0155,-0.08371 0.01085,-0.05426 0.04806,-0.08062 0.03721,-0.0279 0.09922,-0.0279 h 0.454235 q 0.04186,0 0.06201,0.01705 0.02015,0.01705 0.01395,0.04651 z"
         style="font-style:italic"
         id="path2454" />
      <path
         d="m 57.19174,12.625103 0.21239,-0.993737 h -0.02945 q -0.10542,0 -0.139526,-0.02481 -0.03411,-0.0248 -0.0217,-0.08682 0.0124,-0.05736 0.04961,-0.08217 0.03876,-0.02635 0.111621,-0.02635 h 0.07286 0.148828 q 0.04186,0 0.06046,0.01705 0.02015,0.01705 0.01395,0.04651 l -0.0217,0.10542 q 0.134875,-0.10542 0.255798,-0.155029 0.122473,-0.05116 0.241846,-0.05116 0.234094,0 0.336413,0.145728 0.10387,0.145727 0.04961,0.403076 l -0.150379,0.702282 h 0.07286 q 0.07751,0 0.10542,0.02636 0.02946,0.02481 0.0186,0.08062 -0.0124,0.06046 -0.05426,0.08682 -0.04186,0.02481 -0.134875,0.02481 h -0.342615 q -0.09922,0 -0.122473,-0.02326 -0.02325,-0.02325 -0.0093,-0.08837 0.0124,-0.06046 0.04961,-0.08372 0.03721,-0.02326 0.127124,-0.02326 h 0.05426 l 0.137976,-0.644921 q 0.03876,-0.181385 -0.02325,-0.275953 -0.06201,-0.09612 -0.218591,-0.09612 -0.15813,0 -0.302307,0.10697 -0.142627,0.106971 -0.176733,0.265101 l -0.137976,0.644921 h 0.05426 q 0.09302,0 0.120923,0.02326 0.0279,0.02325 0.0155,0.08372 -0.01395,0.06511 -0.04651,0.08837 -0.03256,0.02326 -0.141077,0.02326 h -0.282153 -0.08372 q -0.06356,0 -0.08992,-0.02636 -0.02636,-0.02791 -0.01395,-0.08527 0.0124,-0.06201 0.05271,-0.08372 0.04186,-0.02326 0.147278,-0.02326 z"
         style="font-style:italic"
         id="path2456" />
    </g>
    <circle
       style="display:inline;vector-effect:none;fill:#0000ff;fill-opacity:1;fill-rule:evenodd;stroke:none;stroke-width:1;stroke-linecap:butt;stroke-linejoin:miter;stroke-miterlimit:4;stroke-dasharray:none;stroke-dashoffset:0;stroke-opacity:1;paint-order:normal"
       id="circle4958-09"
       cx="46.924324"
       cy="11.5747"
       r="4"
       inkscape:label="sin0" />
    <circle
       style="display:inline;vector-effect:none;fill:#0000ff;fill-opacity:1;fill-rule:evenodd;stroke:none;stroke-width:1;stroke-linecap:butt;stroke-linejoin:miter;stroke-miterlimit:4;stroke-dasharray:none;stroke-dashoffset:0;stroke-opacity:1;paint-order:normal"
       id="circle4958-4-3"
       cx="46.924324"
       cy="21.251228"
       r="4"
       inkscape:label="cos0" />
    <path
       style="fill:#ff0000;stroke:#ffffff;stroke-width:0.3;stroke-linecap:round;stroke-linejoin:bevel;stroke-dasharray:none"
       d="M 7.1765228,21.527367 H 22.970179 Z"
       id="path1416" />
    <path
       style="fill:#ff0000;stroke:#ffffff;stroke-width:0.3;stroke-linecap:round;stroke-linejoin:bevel;stroke-dasharray:none"
       d="M 7.1765222,11.850908 H 22.970179 Z"
       id="path1416-9" />
    <path
       style="fill:#ff0000;stroke:#ffffff;stroke-width:0.3;stroke-linecap:round;stroke-linejoin:bevel;stroke-dasharray:none"
       d="M 7.176522,46.53691 H 22.970179 Z"
       id="path1416-93" />
    <path
       style="fill:#ff0000;stroke:#ffffff;stroke-width:0.3;stroke-linecap:round;stroke-linejoin:bevel;stroke-dasharray:none"
       d="M 7.176522,36.860451 H 22.970179 Z"
       id="path1416-9-3" />
    <path
       style="fill:#ff0000;stroke:#ffffff;stroke-width:0.3;stroke-linecap:round;stroke-linejoin:bevel;stroke-dasharray:none"
       d="M 7.176524,69.525794 H 22.970179 Z"
       id="path1416-93-3" />
    <path
       style="fill:#ff0000;stroke:#ffffff;stroke-width:0.3;stroke-linecap:round;stroke-linejoin:bevel;stroke-dasharray:none"
       d="M 7.176524,59.849335 H 22.970179 Z"
       id="path1416-9-3-2" />
    <path
       style="fill:#ff0000;stroke:#ffffff;stroke-width:0.3;stroke-linecap:round;stroke-linejoin:bevel;stroke-dasharray:none"
       d="M 7.1765257,93.197303 H 22.970179 Z"
       id="path1416-93-3-5" />
    <path
       style="fill:#ff0000;stroke:#ffffff;stroke-width:0.3;stroke-linecap:round;stroke-linejoin:bevel;stroke-dasharray:none"
       d="M 7.1765257,83.520844 H 22.970179 Z"
       id="path1416-9-3-2-6" />
    <path
       style="fill:#ff0000;stroke:#ffffff;stroke-width:0.3;stroke-linecap:round;stroke-linejoin:bevel;stroke-dasharray:none"
       d="M 7.1765255,117.89704 H 22.970179 Z"
       id="path1416-93-3-3" />
    <path
       style="fill:#ff0000;stroke:#ffffff;stroke-width:0.3;stroke-linecap:round;stroke-linejoin:bevel;stroke-dasharray:none"
       d="M 7.1765255,108.22058 H 22.970179 Z"
       id="path1416-9-3-2-4" />
    <path
       style="fill:#ff0000;stroke:#ffffff;stroke-width:0.3;stroke-linecap:round;stroke-linejoin:bevel;stroke-dasharray:none"
       d="m 26.787191,21.527367 h 6.544797 z"
       id="path1416-8" />
    <path
       style="fill:#ff0000;stroke:#ffffff;stroke-width:0.3;stroke-linecap:round;stroke-linejoin:bevel;stroke-dasharray:none"
       d="m 26.787191,11.850908 h 6.544797 z"
       id="path1416-9-6" />
    <path
       style="fill:#ff0000;stroke:#ffffff;stroke-width:0.3;stroke-linecap:round;stroke-linejoin:bevel;stroke-dasharray:none"
       d="m 26.787191,46.53691 h 6.544797 z"
       id="path1416-93-7" />
    <path
       style="fill:#ff0000;stroke:#ffffff;stroke-width:0.3;stroke-linecap:round;stroke-linejoin:bevel;stroke-dasharray:none"
       d="m 26.787191,36.860451 h 6.544797 z"
       id="path1416-9-3-1" />
    <path
       style="fill:#ff0000;stroke:#ffffff;stroke-width:0.3;stroke-linecap:round;stroke-linejoin:bevel;stroke-dasharray:none"
       d="m 26.787191,69.525794 h 6.544797 z"
       id="path1416-93-3-8" />
    <path
       style="fill:#ff0000;stroke:#ffffff;stroke-width:0.3;stroke-linecap:round;stroke-linejoin:bevel;stroke-dasharray:none"
       d="m 26.787191,59.849335 h 6.544797 z"
       id="path1416-9-3-2-49" />
    <path
       style="fill:#ff0000;stroke:#ffffff;stroke-width:0.3;stroke-linecap:round;stroke-linejoin:bevel;stroke-dasharray:none"
       d="m 26.787193,93.197303 h 6.544795 z"
       id="path1416-93-3-5-7" />
    <path
       style="fill:#ff0000;stroke:#ffffff;stroke-width:0.3;stroke-linecap:round;stroke-linejoin:bevel;stroke-dasharray:none"
       d="m 26.787193,83.520844 h 6.544795 z"
       id="path1416-9-3-2-6-3" />
    <path
       style="fill:#ff0000;stroke:#ffffff;stroke-width:0.3;stroke-linecap:round;stroke-linejoin:bevel;stroke-dasharray:none"
       d="m 26.787193,117.89704 h 6.544795 z"
       id="path1416-93-3-3-1" />
    <path
       style="fill:#ff0000;stroke:#ffffff;stroke-width:0.3;stroke-linecap:round;stroke-linejoin:bevel;stroke-dasharray:none"
       d="m 26.787193,108.22058 h 6.544795 z"
       id="path1416-9-3-2-4-0" />
    <circle
       style="display:inline;vector-effect:none;fill:#00ff00;fill-opacity:1;fill-rule:evenodd;stroke:none;stroke-width:1;stroke-linecap:butt;stroke-linejoin:miter;stroke-miterlimit:4;stroke-dasharray:none;stroke-dashoffset:0;stroke-opacity:1;paint-order:normal"
       id="path4954-1"
       cx="7.1765213"
       cy="11.722048"
       r="4"
       inkscape:label="fm0" />
    <circle
       r="4"
       cy="11.5747"
       cx="33.152634"
       id="circle4956-49"
       style="display:inline;vector-effect:none;fill:#ff0000;fill-opacity:1;fill-rule:evenodd;stroke:none;stroke-width:1;stroke-linecap:butt;stroke-linejoin:miter;stroke-miterlimit:4;stroke-dasharray:none;stroke-dashoffset:0;stroke-opacity:1;paint-order:normal"
       inkscape:label="f0" />
    <circle
       r="4"
       cy="21.398506"
       cx="33.152634"
       id="circle4956-4-59"
       style="display:inline;vector-effect:none;fill:#ff0000;fill-opacity:1;fill-rule:evenodd;stroke:none;stroke-width:1;stroke-linecap:butt;stroke-linejoin:miter;stroke-miterlimit:4;stroke-dasharray:none;stroke-dashoffset:0;stroke-opacity:1;paint-order:normal"
       inkscape:label="a0" />
    <circle
       inkscape:label="am0"
       r="4"
       cy="21.398506"
       cx="16.524757"
       id="circle66-3-4"
       style="display:inline;vector-effect:none;fill:#ff0000;fill-opacity:1;fill-rule:evenodd;stroke:none;stroke-width:1;stroke-linecap:butt;stroke-linejoin:miter;stroke-miterlimit:4;stroke-dasharray:none;stroke-dashoffset:0;stroke-opacity:1;paint-order:normal" />
    <circle
       style="display:inline;vector-effect:none;fill:#00ff00;fill-opacity:1;fill-rule:evenodd;stroke:none;stroke-width:1;stroke-linecap:butt;stroke-linejoin:miter;stroke-miterlimit:4;stroke-dasharray:none;stroke-dashoffset:0;stroke-opacity:1;paint-order:normal"
       id="path4954-03-0"
       cx="7.1765213"
       cy="21.398506"
       r="4"
       inkscape:label="am0" />
    <circle
       inkscape:label="fm0"
       r="4"
       cy="11.722048"
       cx="16.524757"
       id="circle66-9-7"
       style="display:inline;vector-effect:none;fill:#ff0000;fill-opacity:1;fill-rule:evenodd;stroke:none;stroke-width:1;stroke-linecap:butt;stroke-linejoin:miter;stroke-miterlimit:4;stroke-dasharray:none;stroke-dashoffset:0;stroke-opacity:1;paint-order:normal" />
    <circle
       style="display:inline;vector-effect:none;fill:#00ff00;fill-opacity:1;fill-rule:evenodd;stroke:none;stroke-width:1;stroke-linecap:butt;stroke-linejoin:miter;stroke-miterlimit:4;stroke-dasharray:none;stroke-dashoffset:0;stroke-opacity:1;paint-order:normal"
       id="path4954"
       cx="7.1765299"
       cy="36.73159"
       r="4"
       inkscape:label="fm1" />
    <circle
       r="4"
       cy="36.584309"
       cx="33.152641"
       id="circle4956"
       style="display:inline;vector-effect:none;fill:#ff0000;fill-opacity:1;fill-rule:evenodd;stroke:none;stroke-width:1;stroke-linecap:butt;stroke-linejoin:miter;stroke-miterlimit:4;stroke-dasharray:none;stroke-dashoffset:0;stroke-opacity:1;paint-order:normal"
       inkscape:label="f1" />
    <circle
       r="4"
       cy="46.408092"
       cx="33.152641"
       id="circle4956-4"
       style="display:inline;vector-effect:none;fill:#ff0000;fill-opacity:1;fill-rule:evenodd;stroke:none;stroke-width:1;stroke-linecap:butt;stroke-linejoin:miter;stroke-miterlimit:4;stroke-dasharray:none;stroke-dashoffset:0;stroke-opacity:1;paint-order:normal"
       inkscape:label="a1" />
    <circle
       inkscape:label="am1"
       r="4"
       cy="46.408092"
       cx="16.524757"
       id="circle66-3"
       style="display:inline;vector-effect:none;fill:#ff0000;fill-opacity:1;fill-rule:evenodd;stroke:none;stroke-width:1;stroke-linecap:butt;stroke-linejoin:miter;stroke-miterlimit:4;stroke-dasharray:none;stroke-dashoffset:0;stroke-opacity:1;paint-order:normal" />
    <circle
       style="display:inline;vector-effect:none;fill:#00ff00;fill-opacity:1;fill-rule:evenodd;stroke:none;stroke-width:1;stroke-linecap:butt;stroke-linejoin:miter;stroke-miterlimit:4;stroke-dasharray:none;stroke-dashoffset:0;stroke-opacity:1;paint-order:normal"
       id="path4954-03"
       cx="7.1765299"
       cy="46.408092"
       r="4"
       inkscape:label="am1" />
    <circle
       inkscape:label="fm1"
       r="4"
       cy="36.73159"
       cx="16.524757"
       id="circle66-9"
       style="display:inline;vector-effect:none;fill:#ff0000;fill-opacity:1;fill-rule:evenodd;stroke:none;stroke-width:1;stroke-linecap:butt;stroke-linejoin:miter;stroke-miterlimit:4;stroke-dasharray:none;stroke-dashoffset:0;stroke-opacity:1;paint-order:normal" />
    <circle
       style="display:inline;vector-effect:none;fill:#00ff00;fill-opacity:1;fill-rule:evenodd;stroke:none;stroke-width:1;stroke-linecap:butt;stroke-linejoin:miter;stroke-miterlimit:4;stroke-dasharray:none;stroke-dashoffset:0;stroke-opacity:1;paint-order:normal"
       id="path4954-4"
       cx="7.1765308"
       cy="59.720474"
       r="4"
       inkscape:label="fm2" />
    <circle
       r="4"
       cy="59.573189"
       cx="33.152641"
       id="circle4956-5"
       style="display:inline;vector-effect:none;fill:#ff0000;fill-opacity:1;fill-rule:evenodd;stroke:none;stroke-width:1;stroke-linecap:butt;stroke-linejoin:miter;stroke-miterlimit:4;stroke-dasharray:none;stroke-dashoffset:0;stroke-opacity:1;paint-order:normal"
       inkscape:label="f2" />
    <circle
       r="4"
       cy="69.396965"
       cx="33.152641"
       id="circle4956-4-8"
       style="display:inline;vector-effect:none;fill:#ff0000;fill-opacity:1;fill-rule:evenodd;stroke:none;stroke-width:1;stroke-linecap:butt;stroke-linejoin:miter;stroke-miterlimit:4;stroke-dasharray:none;stroke-dashoffset:0;stroke-opacity:1;paint-order:normal"
       inkscape:label="a2" />
    <circle
       inkscape:label="am2"
       r="4"
       cy="69.396965"
       cx="16.524757"
       id="circle66-3-5"
       style="display:inline;vector-effect:none;fill:#ff0000;fill-opacity:1;fill-rule:evenodd;stroke:none;stroke-width:1;stroke-linecap:butt;stroke-linejoin:miter;stroke-miterlimit:4;stroke-dasharray:none;stroke-dashoffset:0;stroke-opacity:1;paint-order:normal" />
    <circle
       style="display:inline;vector-effect:none;fill:#00ff00;fill-opacity:1;fill-rule:evenodd;stroke:none;stroke-width:1;stroke-linecap:butt;stroke-linejoin:miter;stroke-miterlimit:4;stroke-dasharray:none;stroke-dashoffset:0;stroke-opacity:1;paint-order:normal"
       id="path4954-03-1"
       cx="7.1765308"
       cy="69.396965"
       r="4"
       inkscape:label="am2" />
    <circle
       inkscape:label="fm2"
       r="4"
       cy="59.720474"
       cx="16.524757"
       id="circle66-9-3"
       style="display:inline;vector-effect:none;fill:#ff0000;fill-opacity:1;fill-rule:evenodd;stroke:none;stroke-width:1;stroke-linecap:butt;stroke-linejoin:miter;stroke-miterlimit:4;stroke-dasharray:none;stroke-dashoffset:0;stroke-opacity:1;paint-order:normal" />
    <circle
       style="display:inline;vector-effect:none;fill:#00ff00;fill-opacity:1;fill-rule:evenodd;stroke:none;stroke-width:1;stroke-linecap:butt;stroke-linejoin:miter;stroke-miterlimit:4;stroke-dasharray:none;stroke-dashoffset:0;stroke-opacity:1;paint-order:normal"
       id="path4954-7"
       cx="7.1765299"
       cy="83.391983"
       r="4"
       inkscape:label="fm3" />
    <circle
       r="4"
       cy="83.244705"
       cx="33.152641"
       id="circle4956-1"
       style="display:inline;vector-effect:none;fill:#ff0000;fill-opacity:1;fill-rule:evenodd;stroke:none;stroke-width:1;stroke-linecap:butt;stroke-linejoin:miter;stroke-miterlimit:4;stroke-dasharray:none;stroke-dashoffset:0;stroke-opacity:1;paint-order:normal"
       inkscape:label="f3" />
    <circle
       r="4"
       cy="93.068489"
       cx="33.152641"
       id="circle4956-4-5"
       style="display:inline;vector-effect:none;fill:#ff0000;fill-opacity:1;fill-rule:evenodd;stroke:none;stroke-width:1;stroke-linecap:butt;stroke-linejoin:miter;stroke-miterlimit:4;stroke-dasharray:none;stroke-dashoffset:0;stroke-opacity:1;paint-order:normal"
       inkscape:label="a3" />
    <circle
       inkscape:label="am3"
       r="4"
       cy="93.068489"
       cx="16.524757"
       id="circle66-3-56"
       style="display:inline;vector-effect:none;fill:#ff0000;fill-opacity:1;fill-rule:evenodd;stroke:none;stroke-width:1;stroke-linecap:butt;stroke-linejoin:miter;stroke-miterlimit:4;stroke-dasharray:none;stroke-dashoffset:0;stroke-opacity:1;paint-order:normal" />
    <circle
       style="display:inline;vector-effect:none;fill:#00ff00;fill-opacity:1;fill-rule:evenodd;stroke:none;stroke-width:1;stroke-linecap:butt;stroke-linejoin:miter;stroke-miterlimit:4;stroke-dasharray:none;stroke-dashoffset:0;stroke-opacity:1;paint-order:normal"
       id="path4954-03-7"
       cx="7.1765299"
       cy="93.068489"
       r="4"
       inkscape:label="am3" />
    <circle
       inkscape:label="fm3"
       r="4"
       cy="83.391983"
       cx="16.524757"
       id="circle66-9-9"
       style="display:inline;vector-effect:none;fill:#ff0000;fill-opacity:1;fill-rule:evenodd;stroke:none;stroke-width:1;stroke-linecap:butt;stroke-linejoin:miter;stroke-miterlimit:4;stroke-dasharray:none;stroke-dashoffset:0;stroke-opacity:1;paint-order:normal" />
    <circle
       style="display:inline;vector-effect:none;fill:#00ff00;fill-opacity:1;fill-rule:evenodd;stroke:none;stroke-width:1;stroke-linecap:butt;stroke-linejoin:miter;stroke-miterlimit:4;stroke-dasharray:none;stroke-dashoffset:0;stroke-opacity:1;paint-order:normal"
       id="path4954-75"
       cx="7.1765289"
       cy="107.8872"
       r="4"
       inkscape:label="fm4" />
    <circle
       r="4"
       cy="107.73995"
       cx="33.152641"
       id="circle4956-3"
       style="display:inline;vector-effect:none;fill:#ff0000;fill-opacity:1;fill-rule:evenodd;stroke:none;stroke-width:1;stroke-linecap:butt;stroke-linejoin:miter;stroke-miterlimit:4;stroke-dasharray:none;stroke-dashoffset:0;stroke-opacity:1;paint-order:normal"
       inkscape:label="f4" />
    <circle
       r="4"
       cy="117.56374"
       cx="33.152641"
       id="circle4956-4-9"
       style="display:inline;vector-effect:none;fill:#ff0000;fill-opacity:1;fill-rule:evenodd;stroke:none;stroke-width:1;stroke-linecap:butt;stroke-linejoin:miter;stroke-miterlimit:4;stroke-dasharray:none;stroke-dashoffset:0;stroke-opacity:1;paint-order:normal"
       inkscape:label="a4" />
    <circle
       inkscape:label="am4"
       r="4"
       cy="117.56374"
       cx="16.524757"
       id="circle66-3-563"
       style="display:inline;vector-effect:none;fill:#ff0000;fill-opacity:1;fill-rule:evenodd;stroke:none;stroke-width:1;stroke-linecap:butt;stroke-linejoin:miter;stroke-miterlimit:4;stroke-dasharray:none;stroke-dashoffset:0;stroke-opacity:1;paint-order:normal" />
    <circle
       style="display:inline;vector-effect:none;fill:#00ff00;fill-opacity:1;fill-rule:evenodd;stroke:none;stroke-width:1;stroke-linecap:butt;stroke-linejoin:miter;stroke-miterlimit:4;stroke-dasharray:none;stroke-dashoffset:0;stroke-opacity:1;paint-order:normal"
       id="path4954-03-2"
       cx="7.1765289"
       cy="117.56374"
       r="4"
       inkscape:label="am4" />
    <circle
       inkscape:label="fm4"
       r="4"
       cy="107.8872"
       cx="16.524757"
       id="circle66-9-6"
       style="display:inline;vector-effect:none;fill:#ff0000;fill-opacity:1;fill-rule:evenodd;stroke:none;stroke-width:1;stroke-linecap:butt;stroke-linejoin:miter;stroke-miterlimit:4;stroke-dasharray:none;stroke-dashoffset:0;stroke-opacity:1;paint-order:normal" />
  </g>
</svg>
